<svg width="32" height="32" viewBox="0 0 32 32" fill="none" xmlns="http://www.w3.org/2000/svg">
<g id="menu-left">
<g id="Group">
<path id="Vector" d="M29.3335 7.99341C29.3335 7.26008 28.7388 6.66675 28.0068 6.66675H17.3268C16.975 6.66675 16.6375 6.80652 16.3887 7.05532C16.1399 7.30412 16.0002 7.64156 16.0002 7.99341C16.0002 8.34527 16.1399 8.68271 16.3887 8.93151C16.6375 9.18031 16.975 9.32008 17.3268 9.32008H28.0068C28.3587 9.32008 28.6961 9.18031 28.9449 8.93151C29.1937 8.68271 29.3335 8.34527 29.3335 7.99341Z" fill="black"/>
<path id="Vector_2" d="M29.3335 16C29.3335 15.2667 28.7388 14.6733 28.0068 14.6733H3.9935C3.64164 14.6733 3.3042 14.8131 3.0554 15.0619C2.8066 15.3107 2.66683 15.6482 2.66683 16C2.66683 16.3519 2.8066 16.6893 3.0554 16.9381C3.3042 17.1869 3.64164 17.3267 3.9935 17.3267H28.0068C28.3587 17.3267 28.6961 17.1869 28.9449 16.9381C29.1937 16.6893 29.3335 16.3519 29.3335 16Z" fill="black"/>
<path id="Vector_3" d="M28.0068 22.6802C28.3587 22.6802 28.6961 22.8199 28.9449 23.0687C29.1937 23.3175 29.3335 23.655 29.3335 24.0068C29.3335 24.3587 29.1937 24.6961 28.9449 24.9449C28.6961 25.1937 28.3587 25.3335 28.0068 25.3335H11.9935C11.6416 25.3335 11.3042 25.1937 11.0554 24.9449C10.8066 24.6961 10.6668 24.3587 10.6668 24.0068C10.6668 23.655 10.8066 23.3175 11.0554 23.0687C11.3042 22.8199 11.6416 22.6802 11.9935 22.6802H28.0068Z" fill="black"/>
</g>
</g>
</svg>
