<svg width="13" height="13" viewBox="0 0 13 13" fill="none" xmlns="http://www.w3.org/2000/svg">
<path fill-rule="evenodd" clip-rule="evenodd" d="M6.45361 11.5311C9.35311 11.5311 11.7036 9.18056 11.7036 6.28107C11.7036 3.38157 9.35311 1.03107 6.45361 1.03107C3.55412 1.03107 1.20361 3.38157 1.20361 6.28107C1.20361 9.18056 3.55412 11.5311 6.45361 11.5311ZM6.45361 12.2811C9.76732 12.2811 12.4536 9.59478 12.4536 6.28107C12.4536 2.96736 9.76732 0.281067 6.45361 0.281067C3.1399 0.281067 0.453613 2.96736 0.453613 6.28107C0.453613 9.59478 3.1399 12.2811 6.45361 12.2811Z" fill="black"/>
<path d="M5.70557 8.53092C5.70557 8.11671 6.04135 7.78092 6.45557 7.78092C6.86978 7.78092 7.20557 8.11671 7.20557 8.53092C7.20557 8.94513 6.86978 9.28092 6.45557 9.28092C6.04135 9.28092 5.70557 8.94513 5.70557 8.53092ZM5.7789 4.02725C5.75198 3.7693 5.87442 3.51856 6.0944 3.38117C6.31438 3.24379 6.59342 3.24379 6.8134 3.38117C7.03338 3.51856 7.15582 3.7693 7.1289 4.02725L6.86657 6.65759C6.84828 6.87181 6.66906 7.03638 6.45407 7.03638C6.23907 7.03638 6.05985 6.87181 6.04157 6.65759L5.7789 4.02725Z" fill="black"/>
</svg>
