<svg width="19" height="13" viewBox="0 0 19 13" fill="none" xmlns="http://www.w3.org/2000/svg">
<path d="M12.2661 6.44769C12.2661 8.00099 11.0069 9.26019 9.45361 9.26019C7.90031 9.26019 6.64111 8.00099 6.64111 6.44769C6.64111 4.89439 7.90031 3.63519 9.45361 3.63519C11.0069 3.63519 12.2661 4.89439 12.2661 6.44769Z" fill="#6472A1"/>
<path fill-rule="evenodd" clip-rule="evenodd" d="M0.453613 6.44769C0.453613 6.44769 3.82861 0.260193 9.45361 0.260193C15.0786 0.260193 18.4536 6.44769 18.4536 6.44769C18.4536 6.44769 15.0786 12.6352 9.45361 12.6352C3.82861 12.6352 0.453613 6.44769 0.453613 6.44769ZM9.45361 10.3852C11.6282 10.3852 13.3911 8.62231 13.3911 6.44769C13.3911 4.27307 11.6282 2.51019 9.45361 2.51019C7.27899 2.51019 5.51611 4.27307 5.51611 6.44769C5.51611 8.62231 7.27899 10.3852 9.45361 10.3852Z" fill="#6472A1"/>
</svg>
