<svg width="13" height="13" viewBox="0 0 13 13" fill="none" xmlns="http://www.w3.org/2000/svg">
<path d="M9.5283 4.79465L9.02081 4.2728C9.00071 4.24983 8.96871 4.23834 8.93999 4.23834C8.9084 4.23834 8.87927 4.24983 8.85917 4.2728L5.33999 7.81783L4.05917 6.53701C4.0362 6.51403 4.00707 6.50255 3.97835 6.50255C3.94963 6.50255 3.92051 6.51403 3.89753 6.53701L3.38389 7.05065C3.33753 7.09701 3.33753 7.1688 3.38389 7.21516L4.99948 8.83075C5.10327 8.93455 5.23045 8.99527 5.33712 8.99527C5.49015 8.99527 5.62266 8.88285 5.67189 8.8365H5.67476L9.53158 4.95957C9.57179 4.91034 9.57179 4.83855 9.52871 4.79506L9.5283 4.79465Z" fill="#049C28"/>
<path d="M6.45361 0.614319C3.13915 0.614319 0.453613 3.29986 0.453613 6.61432C0.453613 9.92878 3.13915 12.6143 6.45361 12.6143C9.76808 12.6143 12.4536 9.92878 12.4536 6.61432C12.4536 3.29986 9.76808 0.614319 6.45361 0.614319Z" fill="#049C28"/>
<path d="M3.14453 6.3937L4.02699 5.51124L5.79189 7.27615L8.88049 4.18756L9.76294 5.07002L5.79189 9.04106L3.14453 6.3937Z" fill="white"/>
</svg>
