<svg xmlns="http://www.w3.org/2000/svg" width="18" height="18" viewBox="0 0 18 18"><g transform="translate(-3 -3)"><path d="M3,12a9,9,0,1,1,9,9A9,9,0,0,1,3,12Zm9-7.2A7.2,7.2,0,1,0,19.2,12,7.2,7.2,0,0,0,12,4.8Z" transform="translate(0 0)" fill="#ed1c94" fill-rule="evenodd"/><path d="M15.767,9.967a.967.967,0,1,0-1.933,0v3.867H9.967a.967.967,0,1,0,0,1.933h3.867v3.867a.967.967,0,1,0,1.933,0V15.767h3.867a.967.967,0,1,0,0-1.933H15.767Z" transform="translate(-2.8 -2.8)" fill="#ed1c94" fill-rule="evenodd"/></g></svg>