<svg width="14" height="13" viewBox="0 0 14 13" fill="none" xmlns="http://www.w3.org/2000/svg">
<g clip-path="url(#clip0_6159_2121)">
<path d="M12.3686 2.71049H9.7475V0.466797H4.06589V2.71049H1.45065C1.28393 2.71069 1.12409 2.77192 1.0062 2.88074C0.888308 2.98957 0.821986 3.13711 0.821777 3.29102V11.1199C0.821992 11.2738 0.888318 11.4213 1.00621 11.5301C1.1241 11.639 1.28393 11.7002 1.45065 11.7004H12.3686C12.5353 11.7002 12.6952 11.639 12.8131 11.5301C12.931 11.4213 12.9973 11.2738 12.9975 11.1199V3.29102C12.9973 3.13711 12.931 2.98957 12.8131 2.88074C12.6952 2.77192 12.5353 2.71069 12.3686 2.71049ZM4.87839 1.2168H8.935V2.71049H4.87839V1.2168ZM12.146 3.49654V5.37824L10.7958 6.62455H7.33539V5.5293H6.48389V6.62455H3.02347L1.67328 5.37824V3.49654H12.146ZM1.67328 10.9144V6.48981L2.67077 7.4106H6.48389V8.51758H7.33539V7.4106H11.1485L12.146 6.48981V10.9144H1.67328Z" fill="black"/>
</g>
<defs>
<clipPath id="clip0_6159_2121">
<rect width="13" height="12" fill="white" transform="translate(0.403748 0.0917969)"/>
</clipPath>
</defs>
</svg>
