<svg width="23" height="26" viewBox="0 0 23 26" fill="none" xmlns="http://www.w3.org/2000/svg">
<path d="M11.8333 6.89874C12.9378 6.89874 13.8333 6.00331 13.8333 4.89874C13.8333 3.79417 12.9378 2.89874 11.8333 2.89874C10.7287 2.89874 9.83325 3.79417 9.83325 4.89874C9.83325 6.00331 10.7287 6.89874 11.8333 6.89874Z" fill="#999999"/>
<path d="M14.6003 13.1087C14.8453 13.4767 15.2113 13.7557 15.6313 13.8957L18.3063 14.7877L18.9393 12.8917L16.2643 11.9997L14.6013 9.50469C14.4078 9.21583 14.1429 8.98192 13.8323 8.82569L12.3983 8.10869C11.9717 7.89541 11.4826 7.84253 11.0203 7.95969L7.82729 8.75669C7.54704 8.82651 7.28521 8.95615 7.05978 9.1367C6.83434 9.31725 6.65065 9.54445 6.5213 9.80269L4.72729 13.3917L6.51629 14.2867L8.3103 10.6977L10.5333 10.1417L8.7293 18.4877L5.05529 21.0147L6.18829 22.6627L9.8633 20.1347C10.2843 19.8447 10.5763 19.4097 10.6833 18.9097L11.2003 16.5217L13.7173 18.4097L14.6423 23.0347L16.6033 22.6417L15.6783 18.0147C15.5812 17.5327 15.3099 17.1034 14.9163 16.8087L12.7453 15.1807L13.3923 11.2957L14.6003 13.1087Z" fill="#999999"/>
</svg>
