<svg width="25" height="26" viewBox="0 0 25 26" fill="none" xmlns="http://www.w3.org/2000/svg">
<path d="M21.8755 10.9011C21.8648 10.8515 21.8491 10.8031 21.8286 10.7567L20.0577 6.62419C19.6494 5.66935 18.6561 5.052 17.526 5.052H8.25504C7.12582 5.052 6.1316 5.66935 5.72379 6.62419L3.95098 10.7567C3.91069 10.8499 3.8901 10.9504 3.89051 11.052V19.302C3.89051 19.5009 3.96953 19.6917 4.11018 19.8323C4.25083 19.973 4.4416 20.052 4.64051 20.052H6.14051C6.33942 20.052 6.53019 19.973 6.67084 19.8323C6.81149 19.6917 6.89051 19.5009 6.89051 19.302V18.552H18.8905V19.302C18.8905 19.5009 18.9695 19.6917 19.1102 19.8323C19.2508 19.973 19.4416 20.052 19.6405 20.052H21.1405C21.3394 20.052 21.5302 19.973 21.6708 19.8323C21.8115 19.6917 21.8905 19.5009 21.8905 19.302V11.052C21.8906 11.0013 21.8855 10.9507 21.8755 10.9011ZM7.64051 15.552C7.34384 15.552 7.05383 15.464 6.80715 15.2992C6.56048 15.1344 6.36822 14.9001 6.25469 14.626C6.14116 14.3519 6.11145 14.0503 6.16933 13.7594C6.22721 13.4684 6.37007 13.2011 6.57985 12.9913C6.78963 12.7816 7.0569 12.6387 7.34787 12.5808C7.63884 12.5229 7.94044 12.5527 8.21453 12.6662C8.48862 12.7797 8.72289 12.972 8.88771 13.2186C9.05254 13.4653 9.14051 13.7553 9.14051 14.052C9.14051 14.4498 8.98247 14.8314 8.70117 15.1127C8.41986 15.394 8.03833 15.552 7.64051 15.552ZM18.1405 15.552C17.8438 15.552 17.5538 15.464 17.3072 15.2992C17.0605 15.1344 16.8682 14.9001 16.7547 14.626C16.6412 14.3519 16.6115 14.0503 16.6693 13.7594C16.7272 13.4684 16.8701 13.2011 17.0798 12.9913C17.2896 12.7816 17.5569 12.6387 17.8479 12.5808C18.1388 12.5229 18.4404 12.5527 18.7145 12.6662C18.9886 12.7797 19.2229 12.972 19.3877 13.2186C19.5525 13.4653 19.6405 13.7553 19.6405 14.052C19.6405 14.4498 19.4825 14.8314 19.2012 15.1127C18.9199 15.394 18.5383 15.552 18.1405 15.552ZM5.7777 10.302L7.10098 7.21528C7.27067 6.81872 7.73426 6.552 8.25504 6.552H17.526C18.0463 6.552 18.5104 6.81872 18.68 7.21528L20.0033 10.302H5.7777Z" fill="#146ef6"/>
</svg>
