<svg width="38" height="37" viewBox="0 0 38 37" fill="none" xmlns="http://www.w3.org/2000/svg">
<g id="close" opacity="0.5">
<path id="Vector" d="M20.9811 18.5L27.8463 11.6347C28.1722 11.3095 28.3554 10.8681 28.3558 10.4077C28.3562 9.94736 28.1737 9.50568 27.8485 9.17986C27.5232 8.85404 27.0819 8.67076 26.6215 8.67036C26.1611 8.66995 25.7195 8.85244 25.3936 9.17769L18.5284 16.0429L11.6632 9.17769C11.3373 8.85187 10.8954 8.66882 10.4346 8.66882C9.97387 8.66882 9.53196 8.85187 9.20613 9.17769C8.88031 9.50351 8.69727 9.94542 8.69727 10.4062C8.69727 10.867 8.88031 11.3089 9.20613 11.6347L16.0714 18.5L9.20613 25.3652C8.88031 25.691 8.69727 26.1329 8.69727 26.5937C8.69727 27.0545 8.88031 27.4964 9.20613 27.8222C9.53196 28.148 9.97387 28.3311 10.4346 28.3311C10.8954 28.3311 11.3373 28.148 11.6632 27.8222L18.5284 20.957L25.3936 27.8222C25.7195 28.148 26.1614 28.3311 26.6221 28.3311C27.0829 28.3311 27.5248 28.148 27.8507 27.8222C28.1765 27.4964 28.3595 27.0545 28.3595 26.5937C28.3595 26.1329 28.1765 25.691 27.8507 25.3652L20.9811 18.5Z" fill="#7F8DAF"/>
</g>
</svg>
