<svg width="7" height="23" viewBox="0 0 7 23" fill="none" xmlns="http://www.w3.org/2000/svg">
<path fill-rule="evenodd" clip-rule="evenodd" d="M3.49772 22.5C2.79048 22.5 2.1122 22.2103 1.6121 21.6945C1.11201 21.1788 0.831055 20.4793 0.831055 19.75C0.831055 19.0207 1.11201 18.3212 1.6121 17.8055C2.1122 17.2897 2.79048 17 3.49772 17C4.20497 17 4.88324 17.2897 5.38334 17.8055C5.88344 18.3212 6.16439 19.0207 6.16439 19.75C6.16439 20.4793 5.88344 21.1788 5.38334 21.6945C4.88324 22.2103 4.20497 22.5 3.49772 22.5ZM3.49772 14.25C2.79048 14.25 2.1122 13.9603 1.6121 13.4445C1.11201 12.9288 0.831055 12.2293 0.831055 11.5C0.831055 10.7707 1.11201 10.0712 1.6121 9.55546C2.1122 9.03973 2.79048 8.75 3.49772 8.75C4.20497 8.75 4.88324 9.03973 5.38334 9.55546C5.88344 10.0712 6.16439 10.7707 6.16439 11.5C6.16439 12.2293 5.88344 12.9288 5.38334 13.4445C4.88324 13.9603 4.20497 14.25 3.49772 14.25ZM3.49772 6C2.79048 6 2.1122 5.71027 1.6121 5.19454C1.11201 4.67882 0.831055 3.97935 0.831055 3.25C0.831055 2.52065 1.11201 1.82118 1.6121 1.30546C2.1122 0.789731 2.79048 0.5 3.49772 0.5C4.20497 0.5 4.88324 0.789731 5.38334 1.30546C5.88344 1.82118 6.16439 2.52065 6.16439 3.25C6.16439 3.97935 5.88344 4.67882 5.38334 5.19454C4.88324 5.71027 4.20497 6 3.49772 6Z" fill="#969EB5"/>
</svg>
