<svg width="80" height="81" viewBox="0 0 80 81" fill="none" xmlns="http://www.w3.org/2000/svg">
<circle cx="40" cy="40.1084" r="40" fill="#374458"/>
<g clip-path="url(#clip0_6314_1487)">
<path d="M42.8276 49.856V45.7454C42.8276 45.5435 42.7576 45.374 42.6177 45.237C42.4778 45.1 42.3121 45.0315 42.1207 45.0315H37.8793C37.6879 45.0315 37.5222 45.1 37.3823 45.237C37.2424 45.374 37.1724 45.5435 37.1724 45.7454V49.856C37.1724 50.0579 37.2424 50.2274 37.3823 50.3644C37.5222 50.5014 37.6879 50.5699 37.8793 50.5699H42.1207C42.3121 50.5699 42.4778 50.5014 42.6177 50.3644C42.7576 50.2274 42.8276 50.0579 42.8276 49.856ZM42.7834 41.7646L43.181 31.8344C43.181 31.6613 43.1074 31.5243 42.9601 31.4233C42.7687 31.2646 42.592 31.1853 42.43 31.1853H37.5701C37.4081 31.1853 37.2313 31.2646 37.0399 31.4233C36.8926 31.5243 36.819 31.6757 36.819 31.8776L37.1945 41.7646C37.1945 41.9089 37.2681 42.0279 37.4154 42.1216C37.5627 42.2154 37.7394 42.2622 37.9456 42.2622H42.0323C42.2385 42.2622 42.4116 42.2154 42.5515 42.1216C42.6914 42.0279 42.7687 41.9089 42.7834 41.7646ZM42.4741 21.5579L59.4397 52.0195C59.9551 52.9281 59.9404 53.8368 59.3955 54.7454C59.1451 55.1637 58.8027 55.4954 58.3683 55.7406C57.9338 55.9858 57.4662 56.1084 56.9655 56.1084H23.0345C22.5338 56.1084 22.0662 55.9858 21.6317 55.7406C21.1973 55.4954 20.8549 55.1637 20.6045 54.7454C20.0596 53.8368 20.0449 52.9281 20.5604 52.0195L37.5259 21.5579C37.7762 21.1108 38.1223 20.7574 38.5641 20.4978C39.0059 20.2382 39.4846 20.1084 40 20.1084C40.5155 20.1084 40.9941 20.2382 41.4359 20.4978C41.8777 20.7574 42.2238 21.1108 42.4741 21.5579Z" fill="#FFCC4A"/>
</g>
<defs>
<clipPath id="clip0_6314_1487">
<rect width="41" height="36" fill="white" transform="translate(19.5 20.1084)"/>
</clipPath>
</defs>
</svg>
