<svg width="28" height="29" viewBox="0 0 28 29" fill="none" xmlns="http://www.w3.org/2000/svg">
<g clip-path="url(#clip0_160_898)">
<path d="M5.11263 0.190308C2.28046 0.190308 0 2.47077 0 5.30294V23.0777C0 25.9099 2.28046 28.1903 5.11263 28.1903H14.7464V17.2441H11.8519V13.3031H14.7464V9.93607C14.7464 7.29077 16.4566 4.86194 20.3963 4.86194C21.9914 4.86194 23.1709 5.01507 23.1709 5.01507L23.0781 8.69534C23.0781 8.69534 21.8752 8.68397 20.5625 8.68397C19.1418 8.68397 18.914 9.33855 18.914 10.4252V13.3031H23.191L23.0046 17.2441H18.914V28.1904H22.8874C25.7195 28.1904 28 25.9099 28 23.0777V5.30297C28 2.4708 25.7195 0.190336 22.8874 0.190336H5.1126L5.11263 0.190308Z" fill="#405CA0"/>
</g>
<defs>
<clipPath id="clip0_160_898">
<rect width="28" height="28" fill="white" transform="translate(0 0.190308)"/>
</clipPath>
</defs>
</svg>
