<svg width="28" height="29" viewBox="0 0 28 29" fill="none" xmlns="http://www.w3.org/2000/svg">
<g clip-path="url(#clip0_160_902)">
<path d="M9.46094 19.7651C9.50955 19.6921 9.49132 19.6131 9.40625 19.5281C9.29688 19.443 9.21181 19.4309 9.15104 19.4916C9.10243 19.5645 9.12066 19.6435 9.20573 19.7286C9.3151 19.8137 9.40017 19.8258 9.46094 19.7651ZM8.95052 19.0177C8.88976 18.9326 8.81684 18.9083 8.73177 18.9447C8.65885 18.9934 8.65885 19.0663 8.73177 19.1635C8.81684 19.2607 8.88976 19.2911 8.95052 19.2546C9.02344 19.206 9.02344 19.127 8.95052 19.0177ZM8.20312 18.2885C8.22743 18.2399 8.19705 18.1913 8.11198 18.1427C8.02691 18.1184 7.9783 18.1305 7.96615 18.1791C7.92969 18.2399 7.95399 18.2885 8.03906 18.325C8.13628 18.3493 8.19097 18.3371 8.20312 18.2885ZM8.58594 18.7078C8.61024 18.6956 8.61936 18.6683 8.61328 18.6257C8.6072 18.5832 8.58594 18.5498 8.54948 18.5255C8.47656 18.4404 8.4158 18.4222 8.36719 18.4708C8.31858 18.5194 8.32465 18.5862 8.38542 18.6713C8.45833 18.7442 8.52517 18.7564 8.58594 18.7078ZM10.1536 20.075C10.178 19.9899 10.1233 19.923 9.98958 19.8744C9.88021 19.838 9.80122 19.8623 9.7526 19.9473C9.7283 20.0324 9.78299 20.0993 9.91667 20.1479C10.026 20.1843 10.105 20.16 10.1536 20.075ZM10.9193 20.1296C10.9193 20.0324 10.8464 19.9838 10.7005 19.9838C10.579 19.9838 10.5182 20.0324 10.5182 20.1296C10.5182 20.2269 10.5851 20.2755 10.7188 20.2755C10.8524 20.2755 10.9193 20.2269 10.9193 20.1296ZM11.6302 20.002C11.6059 19.917 11.5269 19.8866 11.3932 19.9109C11.2595 19.9352 11.2049 19.9899 11.2292 20.075C11.2535 20.1722 11.3264 20.2086 11.4479 20.1843C11.5694 20.16 11.6302 20.0993 11.6302 20.002ZM23.3333 14.2234C23.3333 11.647 22.4219 9.44735 20.599 7.62443C18.776 5.80151 16.5764 4.89006 14 4.89006C11.4236 4.89006 9.22396 5.80151 7.40104 7.62443C5.57812 9.44735 4.66667 11.647 4.66667 14.2234C4.66667 16.2529 5.26215 18.0789 6.45312 19.7013C7.6441 21.3236 9.17535 22.4508 11.0469 23.0828C11.2656 23.1192 11.4266 23.0888 11.5299 22.9916C11.6332 22.8944 11.6849 22.7729 11.6849 22.627C11.6849 21.9951 11.6788 21.4178 11.6667 20.8953C11.5938 20.9074 11.4996 20.9226 11.3841 20.9408C11.2687 20.9591 11.053 20.9712 10.737 20.9773C10.421 20.9834 10.1293 20.9591 9.86198 20.9044C9.59462 20.8497 9.33029 20.7282 9.06901 20.5398C8.80772 20.3514 8.62847 20.0993 8.53125 19.7833C8.25174 19.0663 7.90538 18.6166 7.49219 18.4343C7.46788 18.4222 7.44054 18.4009 7.41016 18.3705L7.26432 18.2247L7.13672 18.0515L7.20964 17.9148L7.5651 17.851C7.63802 17.851 7.72917 17.8631 7.83854 17.8875C7.94792 17.9118 8.13021 18.0059 8.38542 18.17C8.64062 18.3341 8.84115 18.5498 8.98698 18.8171C9.18142 19.1574 9.40929 19.4126 9.67057 19.5828C9.93186 19.7529 10.1962 19.838 10.4635 19.838C10.7309 19.838 10.9618 19.8167 11.1562 19.7742C11.3507 19.7316 11.533 19.6739 11.7031 19.601C11.7882 19.0298 11.9887 18.6105 12.3047 18.3432C11.7092 18.2703 11.1866 18.1579 10.737 18.0059C10.2873 17.854 9.84375 17.6171 9.40625 17.295C8.96875 16.973 8.63151 16.5111 8.39453 15.9096C8.15755 15.308 8.03906 14.5819 8.03906 13.7312C8.03906 12.7711 8.36111 11.9387 9.00521 11.2338C8.71354 10.4803 8.74392 9.65394 9.09635 8.75464C9.32726 8.68172 9.65842 8.72729 10.0898 8.89136C10.5213 9.05542 10.8889 9.23467 11.1927 9.42912L11.6667 9.72078C12.3715 9.51419 13.1493 9.41089 14 9.41089C14.8507 9.41089 15.6285 9.51419 16.3333 9.72078C16.467 9.63571 16.6402 9.52634 16.8529 9.39266C17.0655 9.25898 17.4028 9.10099 17.8646 8.9187C18.3264 8.73641 18.6727 8.68172 18.9036 8.75464C19.2561 9.65394 19.2865 10.4803 18.9948 11.2338C19.6389 11.9387 19.9609 12.7711 19.9609 13.7312C19.9609 14.4239 19.8759 15.0346 19.7057 15.5632C19.5356 16.0919 19.3199 16.5172 19.0586 16.8393C18.7973 17.1613 18.4722 17.4317 18.0833 17.6505C17.6944 17.8692 17.3147 18.0272 16.944 18.1244C16.5734 18.2217 16.1571 18.2946 15.6953 18.3432C16.1207 18.7199 16.3333 19.2972 16.3333 20.075C16.3333 20.5611 16.3303 21.1019 16.3242 21.6973C16.3181 22.2928 16.3151 22.6027 16.3151 22.627C16.3151 22.7729 16.3668 22.8944 16.4701 22.9916C16.5734 23.0888 16.7344 23.1192 16.9531 23.0828C18.8247 22.4508 20.3559 21.3236 21.5469 19.7013C22.7378 18.0789 23.3333 16.2529 23.3333 14.2234ZM28 5.47339V22.9734C28 24.4196 27.4865 25.6561 26.4596 26.683C25.4327 27.7099 24.1962 28.2234 22.75 28.2234H5.25C3.80382 28.2234 2.56727 27.7099 1.54036 26.683C0.513455 25.6561 0 24.4196 0 22.9734V5.47339C0 4.02721 0.513455 2.79066 1.54036 1.76375C2.56727 0.736844 3.80382 0.223389 5.25 0.223389H22.75C24.1962 0.223389 25.4327 0.736844 26.4596 1.76375C27.4865 2.79066 28 4.02721 28 5.47339Z" fill="#16181F"/>
</g>
<defs>
<clipPath id="clip0_160_902">
<rect width="28" height="28" fill="white" transform="translate(0 0.223389)"/>
</clipPath>
</defs>
</svg>
