<svg width="19" height="15" viewBox="0 0 19 15" fill="none" xmlns="http://www.w3.org/2000/svg">
<g id="Group">
<path id="Vector" d="M7.8125 0.108978C7.36495 0.108978 6.93572 0.286768 6.61926 0.603236C6.30279 0.919703 6.125 1.34893 6.125 1.79648V2.35898H2.1875C1.73995 2.35898 1.31072 2.53677 0.994257 2.85324C0.67779 3.1697 0.5 3.59893 0.5 4.04648L0.5 5.60348L9.06575 7.88723C9.35029 7.963 9.64971 7.963 9.93425 7.88723L18.5 5.60348V4.04648C18.5 3.59893 18.3222 3.1697 18.0057 2.85324C17.6893 2.53677 17.2601 2.35898 16.8125 2.35898H12.875V1.79648C12.875 1.34893 12.6972 0.919703 12.3807 0.603236C12.0643 0.286768 11.6351 0.108978 11.1875 0.108978H7.8125ZM7.8125 1.23398H11.1875C11.3367 1.23398 11.4798 1.29324 11.5852 1.39873C11.6907 1.50422 11.75 1.64729 11.75 1.79648V2.35898H7.25V1.79648C7.25 1.64729 7.30926 1.50422 7.41475 1.39873C7.52024 1.29324 7.66332 1.23398 7.8125 1.23398Z" fill="#CD2020"/>
<path id="Vector_2" d="M0.5 13.0465C0.5 13.494 0.67779 13.9232 0.994257 14.2397C1.31072 14.5562 1.73995 14.734 2.1875 14.734H16.8125C17.2601 14.734 17.6893 14.5562 18.0057 14.2397C18.3222 13.9232 18.5 13.494 18.5 13.0465V6.69022L9.64512 9.04934C9.55004 9.07473 9.44996 9.07473 9.35487 9.04934L0.5 6.69022V13.0465Z" fill="#CD2020"/>
</g>
</svg>
