<svg width="17" height="17" viewBox="0 0 17 17" fill="none" xmlns="http://www.w3.org/2000/svg">
<path fill-rule="evenodd" clip-rule="evenodd" d="M1.90375 8.17529C1.90375 10.0318 2.64125 11.8123 3.954 13.125C5.26675 14.4378 7.04723 15.1753 8.90375 15.1753C10.7603 15.1753 12.5407 14.4378 13.8535 13.125C15.1662 11.8123 15.9037 10.0318 15.9037 8.17529C15.9037 6.31878 15.1662 4.5383 13.8535 3.22555C12.5407 1.91279 10.7603 1.17529 8.90375 1.17529C7.04723 1.17529 5.26675 1.91279 3.954 3.22555C2.64125 4.5383 1.90375 6.31878 1.90375 8.17529ZM16.9037 8.17529C16.9037 10.297 16.0609 12.3319 14.5606 13.8321C13.0603 15.3324 11.0255 16.1753 8.90375 16.1753C6.78202 16.1753 4.74718 15.3324 3.24689 13.8321C1.7466 12.3319 0.903748 10.297 0.903748 8.17529C0.903748 6.05356 1.7466 4.01873 3.24689 2.51844C4.74718 1.01815 6.78202 0.175293 8.90375 0.175293C11.0255 0.175293 13.0603 1.01815 14.5606 2.51844C16.0609 4.01873 16.9037 6.05356 16.9037 8.17529ZM6.75775 10.9783C6.66399 11.0722 6.53678 11.125 6.4041 11.1251C6.27142 11.1252 6.14413 11.0725 6.05025 10.9788C5.95636 10.885 5.90356 10.7578 5.90347 10.6251C5.90338 10.4925 5.95599 10.3652 6.04975 10.2713L10.1467 6.17529H7.37875C7.24614 6.17529 7.11896 6.12261 7.02519 6.02885C6.93143 5.93508 6.87875 5.8079 6.87875 5.67529C6.87875 5.54268 6.93143 5.41551 7.02519 5.32174C7.11896 5.22797 7.24614 5.17529 7.37875 5.17529H11.3537C11.4864 5.17529 11.6135 5.22797 11.7073 5.32174C11.8011 5.41551 11.8537 5.54268 11.8537 5.67529V9.65029C11.8537 9.7829 11.8011 9.91008 11.7073 10.0038C11.6135 10.0976 11.4864 10.1503 11.3537 10.1503C11.2211 10.1503 11.094 10.0976 11.0002 10.0038C10.9064 9.91008 10.8537 9.7829 10.8537 9.65029V6.88229L6.75775 10.9783Z" fill="white"/>
</svg>
