<svg width="41" height="41" viewBox="0 0 41 41" fill="none" xmlns="http://www.w3.org/2000/svg">
<rect x="0.223755" y="0.010498" width="40" height="40" fill="white"/>
<path d="M20.2238 13.9425C21.3284 13.9425 22.2238 13.0471 22.2238 11.9425C22.2238 10.8379 21.3284 9.9425 20.2238 9.9425C19.1192 9.9425 18.2238 10.8379 18.2238 11.9425C18.2238 13.0471 19.1192 13.9425 20.2238 13.9425Z" fill="#999999"/>
<path d="M22.9908 20.1524C23.2358 20.5204 23.6018 20.7994 24.0218 20.9394L26.6968 21.8314L27.3298 19.9354L24.6548 19.0434L22.9918 16.5484C22.7983 16.2596 22.5334 16.0257 22.2228 15.8694L20.7888 15.1524C20.3622 14.9392 19.8731 14.8863 19.4108 15.0034L16.2178 15.8004C15.9375 15.8703 15.6757 15.9999 15.4503 16.1805C15.2248 16.361 15.0412 16.5882 14.9118 16.8464L13.1178 20.4354L14.9068 21.3304L16.7008 17.7414L18.9238 17.1854L17.1198 25.5314L13.4458 28.0584L14.5788 29.7064L18.2538 27.1784C18.6748 26.8884 18.9668 26.4534 19.0738 25.9534L19.5908 23.5654L22.1078 25.4534L23.0328 30.0784L24.9938 29.6854L24.0688 25.0584C23.9717 24.5764 23.7004 24.1471 23.3068 23.8524L21.1358 22.2244L21.7828 18.3394L22.9908 20.1524Z" fill="#999999"/>
</svg>
