<svg width="12" height="12" viewBox="0 0 12 12" fill="none" xmlns="http://www.w3.org/2000/svg">
<g id="Group">
<path id="Vector" fill-rule="evenodd" clip-rule="evenodd" d="M0 5.82488C0 5.60422 0.079009 5.39261 0.219646 5.23658C0.360282 5.08056 0.551026 4.9929 0.749916 4.9929H9.43845L6.21831 1.42206C6.07749 1.26584 5.99838 1.05396 5.99838 0.833026C5.99838 0.612094 6.07749 0.400211 6.21831 0.243988C6.35912 0.0877652 6.55011 0 6.74925 0C6.94839 0 7.13937 0.0877652 7.28019 0.243988L11.7797 5.23584C11.8495 5.31312 11.9049 5.40493 11.9427 5.50601C11.9805 5.60708 12 5.71544 12 5.82488C12 5.93431 11.9805 6.04267 11.9427 6.14374C11.9049 6.24482 11.8495 6.33663 11.7797 6.41392L7.28019 11.4058C7.13937 11.562 6.94839 11.6498 6.74925 11.6498C6.55011 11.6498 6.35912 11.562 6.21831 11.4058C6.07749 11.2495 5.99838 11.0377 5.99838 10.8167C5.99838 10.5958 6.07749 10.3839 6.21831 10.2277L9.43845 6.65685H0.749916C0.551026 6.65685 0.360282 6.5692 0.219646 6.41317C0.079009 6.25715 0 6.04553 0 5.82488Z" fill="#146ef6"/>
</g>
</svg>
