<svg width="19" height="21" viewBox="0 0 19 21" fill="none" xmlns="http://www.w3.org/2000/svg">
<path d="M13.3442 19.0014C13.9642 18.6423 14.507 18.2141 14.9763 17.7337C16.3177 16.3572 17.0548 14.5438 17.2262 12.6538C17.3983 10.7508 16.9976 8.77751 16.0641 7.0979C15.7091 6.45942 15.277 5.86387 14.7706 5.3318C14.7813 6.17751 14.6277 7.23419 13.9385 7.97287C13.7485 8.17636 13.4057 8.20747 13.1721 8.04194C13.0714 7.971 13.0078 7.87454 12.9828 7.77248H12.9821C12.9778 7.75693 11.7472 2.63037 8.17802 1.21276C8.29016 2.81458 8.15803 6.57641 4.93245 9.26104C4.71389 9.44213 4.3689 9.43466 4.16105 9.24424C4.05249 9.14467 4.0032 9.0146 4.01177 8.88703C4.01177 8.88454 4.05034 8.44084 3.88107 7.76564C3.59679 8.91628 3.09038 9.89455 2.60612 10.8286C1.61259 12.7472 0.725486 14.4604 2.46041 17.1251C2.91325 17.8215 3.48751 18.4183 4.11391 18.8309C4.35747 18.9914 4.60746 19.1227 4.8596 19.2198C4.20462 17.6192 4.90959 16.4673 5.62742 15.2949C6.16168 14.4224 6.70523 13.535 6.50667 12.4472C6.45953 12.1884 6.66237 11.945 6.95951 11.904C7.1445 11.8785 7.32235 11.9376 7.44163 12.0477C7.4452 12.0502 8.0766 12.6227 8.38016 13.5469C8.77728 12.6582 9.07799 11.5685 8.82943 10.5753C8.76586 10.3183 8.95299 10.0651 9.24798 10.0097C9.3694 9.98665 9.49011 10.0016 9.59511 10.0439C9.84152 10.1391 14.2042 11.9226 13.3435 19.0014H13.3442ZM15.8084 18.3473C15.0313 19.1439 14.0735 19.8141 12.9292 20.3014C12.8271 20.3518 12.7057 20.3735 12.5807 20.3574C12.2821 20.3182 12.0764 20.0761 12.1214 19.816C13.0392 14.6197 11.1822 12.324 10.0072 11.4211C9.9558 13.5643 8.37873 15.672 8.22445 15.873C8.09089 16.0616 7.81875 16.1481 7.57162 16.0678C7.28949 15.9763 7.14593 15.7031 7.25164 15.458C7.45734 14.975 7.48377 14.5326 7.42091 14.1492C7.21807 14.7149 6.90236 15.2302 6.58881 15.7417C5.89027 16.8818 5.20744 17.9976 6.27668 19.623C6.33453 19.6983 6.3681 19.7892 6.3681 19.8869C6.3681 20.1501 6.12311 20.363 5.8217 20.363C5.0053 20.363 4.19462 20.0761 3.4568 19.5901C2.71326 19.1003 2.039 18.4021 1.51331 17.5943C-0.49589 14.5083 0.499067 12.5885 1.61188 10.4378C2.30256 9.10484 3.04324 7.67478 3.02182 5.806C3.00896 5.63175 3.10753 5.45751 3.29323 5.36416C3.55394 5.23285 3.88749 5.31002 4.0382 5.53716C4.60032 6.38163 4.86888 7.18067 4.99602 7.79302C7.8109 4.69332 7.0145 0.606636 7.01236 0.593568H7.01307C7.00165 0.530715 7.00379 0.465373 7.02307 0.400031C7.09736 0.146753 7.39377 -0.00695692 7.68447 0.0577628C11.1158 0.825065 12.8843 4.29691 13.6206 6.24286C13.8021 5.29509 13.5749 4.28197 13.5442 4.15129C13.5057 4.0094 13.5414 3.85383 13.6585 3.73372C13.8528 3.53334 14.1971 3.50845 14.427 3.67771C15.5263 4.49107 16.4027 5.52596 17.0469 6.68407C18.0655 8.51614 18.5026 10.6618 18.3154 12.7273C18.1269 14.8058 17.3062 16.8108 15.8091 18.3467L15.8084 18.3473Z" fill="#DD422D"/>
</svg>
