<svg width="41" height="41" viewBox="0 0 41 41" fill="none" xmlns="http://www.w3.org/2000/svg">
<rect x="0.890503" y="0.552002" width="40" height="40" fill="white"/>
<g clip-path="url(#clip0_5900_2618)">
<path d="M14.328 30.4895C15.2551 30.4895 16.1614 30.2146 16.9322 29.6995C17.7031 29.1844 18.3039 28.4524 18.6587 27.5958C19.0135 26.7393 19.1063 25.7968 18.9254 24.8875C18.7446 23.9782 18.2981 23.143 17.6426 22.4874C16.987 21.8319 16.1518 21.3854 15.2425 21.2046C14.3332 21.0237 13.3907 21.1165 12.5342 21.4713C11.6776 21.8261 10.9456 22.4269 10.4305 23.1978C9.91542 23.9686 9.6405 24.8749 9.6405 25.802C9.6419 27.0448 10.1362 28.2362 11.015 29.115C11.8938 29.9938 13.0852 30.4881 14.328 30.4895ZM14.328 22.6145C14.9584 22.6145 15.5747 22.8014 16.0989 23.1517C16.6231 23.5019 17.0316 23.9998 17.2729 24.5822C17.5141 25.1646 17.5772 25.8055 17.4543 26.4239C17.3313 27.0422 17.0277 27.6101 16.5819 28.0559C16.1361 28.5017 15.5682 28.8053 14.9499 28.9283C14.3315 29.0512 13.6906 28.9881 13.1082 28.7469C12.5258 28.5056 12.0279 28.0971 11.6777 27.5729C11.3274 27.0487 11.1405 26.4324 11.1405 25.802C11.1415 24.9569 11.4776 24.1467 12.0752 23.5492C12.6727 22.9516 13.4829 22.6155 14.328 22.6145Z" fill="#999999"/>
<path d="M22.7655 25.802C22.7655 26.7291 23.0404 27.6354 23.5555 28.4062C24.0706 29.1771 24.8026 29.7779 25.6592 30.1327C26.5157 30.4875 27.4582 30.5803 28.3675 30.3994C29.2768 30.2186 30.112 29.7721 30.7676 29.1166C31.4231 28.461 31.8696 27.6258 32.0504 26.7165C32.2313 25.8072 32.1385 24.8647 31.7837 24.0082C31.4289 23.1516 30.8281 22.4196 30.0572 21.9045C29.2864 21.3894 28.3801 21.1145 27.453 21.1145C26.2102 21.1159 25.0188 21.6102 24.14 22.489C23.2612 23.3678 22.7669 24.5592 22.7655 25.802ZM27.453 22.6145C28.0834 22.6145 28.6997 22.8014 29.2239 23.1517C29.7481 23.5019 30.1566 23.9998 30.3979 24.5822C30.6391 25.1646 30.7022 25.8055 30.5793 26.4239C30.4563 27.0422 30.1527 27.6101 29.7069 28.0559C29.2611 28.5017 28.6932 28.8053 28.0749 28.9283C27.4565 29.0512 26.8156 28.9881 26.2332 28.7469C25.6508 28.5056 25.1529 28.0971 24.8027 27.5729C24.4524 27.0487 24.2655 26.4324 24.2655 25.802C24.2665 24.9569 24.6026 24.1467 25.2002 23.5492C25.7977 22.9516 26.6079 22.6155 27.453 22.6145Z" fill="#999999"/>
<path d="M23.7926 14.5603C24.6751 14.5603 25.3905 13.8449 25.3905 12.9624C25.3905 12.0799 24.6751 11.3645 23.7926 11.3645C22.9101 11.3645 22.1948 12.0799 22.1948 12.9624C22.1948 13.8449 22.9101 14.5603 23.7926 14.5603Z" fill="#999999"/>
<path d="M17.8415 21.0348L20.1405 23.303V27.4895H21.6405V23.1463C21.6401 22.9973 21.6103 22.8499 21.5529 22.7125C21.4954 22.5751 21.4114 22.4503 21.3056 22.3454L18.9022 19.9741L22.0171 16.8591L24.7436 19.6506C24.8486 19.7576 24.9739 19.8426 25.112 19.9008C25.2502 19.959 25.3985 19.9891 25.5484 19.9895H26.8905V18.4895H25.7063L21.371 14.051L21.3488 14.0727L20.955 13.679L15.705 18.929L17.8263 21.0502L17.8415 21.0348Z" fill="#999999"/>
</g>
<defs>
<clipPath id="clip0_5900_2618">
<rect width="24" height="24" fill="white" transform="translate(8.8905 8.552)"/>
</clipPath>
</defs>
</svg>
