<svg width="19" height="19" viewBox="0 0 19 19" fill="none" xmlns="http://www.w3.org/2000/svg">
<g id="ico social media">
<path id="Vector" d="M13.4375 9.98965C12.59 9.99045 11.7654 10.2647 11.0862 10.7715L8.71249 8.39777C9.22535 7.72353 9.50208 6.89927 9.49999 6.05215C9.50221 5.16503 9.20479 4.30316 8.65594 3.60621C8.10709 2.90926 7.33897 2.41807 6.47605 2.21224C5.61314 2.00642 4.70601 2.09803 3.90167 2.47221C3.09733 2.8464 2.44291 3.48124 2.04448 4.27385C1.64605 5.06646 1.52695 5.97039 1.70648 6.83916C1.88601 7.70792 2.35365 8.4906 3.03362 9.06036C3.71359 9.63011 4.56604 9.95356 5.45281 9.97827C6.33958 10.003 7.20872 9.72752 7.91937 9.19652L10.2875 11.5703C9.75663 12.2807 9.48117 13.1496 9.50571 14.0361C9.53026 14.9227 9.85338 15.775 10.4227 16.4549C10.9921 17.1349 11.7743 17.6028 12.6428 17.7827C13.5112 17.9627 14.415 17.8442 15.2076 17.4464C16.0003 17.0487 16.6355 16.395 17.0103 15.5912C17.3851 14.7874 17.4776 13.8806 17.2727 13.0177C17.0679 12.1548 16.5777 11.3863 15.8817 10.8368C15.1856 10.2872 14.3244 9.9887 13.4375 9.98965ZM2.74999 6.05215C2.74999 5.49589 2.91494 4.95212 3.22398 4.4896C3.53303 4.02709 3.97228 3.66661 4.4862 3.45373C5.00011 3.24086 5.56561 3.18517 6.11118 3.29369C6.65676 3.40221 7.1579 3.67007 7.55123 4.06341C7.94457 4.45674 8.21243 4.95788 8.32095 5.50345C8.42947 6.04903 8.37378 6.61453 8.1609 7.12844C7.94803 7.64236 7.58755 8.08161 7.12503 8.39065C6.66252 8.6997 6.11875 8.86465 5.56249 8.86465C4.81657 8.86465 4.1012 8.56833 3.57375 8.04088C3.04631 7.51344 2.74999 6.79807 2.74999 6.05215Z" fill="#CD2020"/>
</g>
</svg>
