<svg width="19" height="19" viewBox="0 0 19 19" fill="none" xmlns="http://www.w3.org/2000/svg">
<g id="ico certification" clip-path="url(#clip0_989_71)">
<path id="Vector" d="M14.1406 11.4254L16.7 17.859L13.1 18.984L10.6812 12.1812C10.25 12.2164 9.85625 12.234 9.5 12.234C9.14375 12.234 8.75 12.2164 8.31875 12.1812L5.9 18.984L2.3 17.859L4.85938 11.4254C3.52813 10.9215 2.46875 10.2447 1.68125 9.39511C0.89375 8.5455 0.5 7.61679 0.5 6.60898C0.5 5.58945 0.903125 4.64902 1.70938 3.78769C2.51562 2.92636 3.60781 2.24374 4.98594 1.73984C6.36406 1.23593 7.86875 0.983978 9.5 0.983978C11.1312 0.983978 12.6359 1.23593 14.0141 1.73984C15.3922 2.24374 16.4844 2.92636 17.2906 3.78769C18.0969 4.64902 18.5 5.58945 18.5 6.60898C18.5 7.61679 18.1062 8.5455 17.3188 9.39511C16.5312 10.2447 15.4719 10.9215 14.1406 11.4254Z" fill="#526177"/>
</g>
<defs>
<clipPath id="clip0_989_71">
<rect width="18" height="18" fill="white" transform="translate(0.5 0.983978)"/>
</clipPath>
</defs>
</svg>
