<svg width="19" height="19" viewBox="0 0 19 19" fill="none" xmlns="http://www.w3.org/2000/svg">
<g id="ico training">
<path id="Vector" d="M17.2344 9.31604H15.0863C14.7822 6.7426 12.7414 4.70178 10.168 4.39768V2.24963C10.168 2.17229 10.1047 2.10901 10.0273 2.10901H8.97266C8.89531 2.10901 8.83203 2.17229 8.83203 2.24963V4.39768C6.25859 4.70178 4.21777 6.7426 3.91367 9.31604H1.76562C1.68828 9.31604 1.625 9.37932 1.625 9.45667V10.5114C1.625 10.5887 1.68828 10.652 1.76562 10.652H3.91367C4.21777 13.2254 6.25859 15.2662 8.83203 15.5703V17.7184C8.83203 17.7957 8.89531 17.859 8.97266 17.859H10.0273C10.1047 17.859 10.168 17.7957 10.168 17.7184V15.5703C12.7414 15.2662 14.7822 13.2254 15.0863 10.652H17.2344C17.3117 10.652 17.375 10.5887 17.375 10.5114V9.45667C17.375 9.37932 17.3117 9.31604 17.2344 9.31604ZM9.5 14.2731C7.13047 14.2731 5.21094 12.3535 5.21094 9.98401C5.21094 7.61448 7.13047 5.69495 9.5 5.69495C11.8695 5.69495 13.7891 7.61448 13.7891 9.98401C13.7891 12.3535 11.8695 14.2731 9.5 14.2731Z" fill="#526177"/>
<path id="Vector_2" d="M9.5 7.87463C8.93574 7.87463 8.4084 8.0926 8.00938 8.49338C7.61035 8.89241 7.39062 9.41975 7.39062 9.98401C7.39062 10.5483 7.61035 11.0756 8.00938 11.4746C8.4084 11.8719 8.9375 12.0934 9.5 12.0934C10.0625 12.0934 10.5916 11.8737 10.9906 11.4746C11.3879 11.0756 11.6094 10.5465 11.6094 9.98401C11.6094 9.42151 11.3896 8.89241 10.9906 8.49338C10.5916 8.0926 10.0643 7.87463 9.5 7.87463Z" fill="#526177"/>
</g>
</svg>
