<svg width="19" height="19" viewBox="0 0 19 19" fill="none" xmlns="http://www.w3.org/2000/svg">
<g id="ico language">
<path id="Vector" d="M17.3165 16.2278L14.1524 8.56373C14.094 8.42219 13.9948 8.30119 13.8676 8.21604C13.7403 8.1309 13.5906 8.08545 13.4375 8.08545C13.2844 8.08545 13.1347 8.1309 13.0074 8.21604C12.8802 8.30119 12.781 8.42219 12.7226 8.56373L9.55852 16.2278C9.51918 16.3218 9.49879 16.4226 9.49854 16.5245C9.49828 16.6264 9.51816 16.7273 9.55703 16.8215C9.5959 16.9157 9.653 17.0013 9.72504 17.0733C9.79708 17.1454 9.88265 17.2025 9.97683 17.2414C10.071 17.2802 10.1719 17.3001 10.2738 17.2999C10.3757 17.2996 10.4766 17.2793 10.5706 17.2399C10.6645 17.2006 10.7498 17.1431 10.8215 17.0707C10.8932 16.9983 10.9499 16.9124 10.9883 16.8181L11.6327 15.2575H15.2422L15.8867 16.8181C15.9451 16.9597 16.0442 17.0807 16.1715 17.1659C16.2988 17.2511 16.4486 17.2966 16.6017 17.2965C16.7288 17.2965 16.8539 17.2651 16.966 17.2051C17.0781 17.1452 17.1737 17.0586 17.2443 16.9529C17.3149 16.8472 17.3584 16.7258 17.3709 16.5993C17.3835 16.4729 17.3646 16.3453 17.3161 16.2278H17.3165ZM12.2715 13.7106L13.4377 10.8858L14.6038 13.7106H12.2715Z" fill="#526177"/>
<path id="Vector_2" d="M9.91625 13.0398C10.0364 12.8738 10.0858 12.6669 10.0536 12.4646C10.0213 12.2622 9.91012 12.0809 9.74434 11.9605C9.7373 11.9552 9.21699 11.5692 8.46148 10.7395C9.85543 8.85233 10.645 6.70534 10.9671 5.69495H12.1016C12.3067 5.69495 12.5034 5.61346 12.6485 5.46841C12.7935 5.32336 12.875 5.12664 12.875 4.92151C12.875 4.71638 12.7935 4.51965 12.6485 4.37461C12.5034 4.22956 12.3067 4.14807 12.1016 4.14807H8.02344V3.44495C8.02344 3.23982 7.94195 3.04309 7.7969 2.89804C7.65186 2.753 7.45513 2.67151 7.25 2.67151C7.04487 2.67151 6.84814 2.753 6.7031 2.89804C6.55805 3.04309 6.47656 3.23982 6.47656 3.44495V4.14807H2.39844C2.19331 4.14807 1.99658 4.22956 1.85153 4.37461C1.70649 4.51965 1.625 4.71638 1.625 4.92151C1.625 5.12664 1.70649 5.32336 1.85153 5.46841C1.99658 5.61346 2.19331 5.69495 2.39844 5.69495H9.33301C8.99832 6.64241 8.38203 8.13831 7.44195 9.50448C6.3377 8.03917 5.92742 7.091 5.92426 7.08327C5.84342 6.89644 5.69218 6.74902 5.50335 6.67298C5.31453 6.59693 5.10333 6.59839 4.91558 6.67705C4.72782 6.75571 4.57864 6.90521 4.5004 7.09314C4.42216 7.28107 4.42116 7.49226 4.49762 7.68092C4.51801 7.72944 5.00914 8.88432 6.35598 10.6316C6.38832 10.6734 6.42031 10.7142 6.4523 10.755C5.07277 12.3142 3.71926 13.2813 3.15289 13.5935C2.9728 13.6917 2.8391 13.8575 2.78121 14.0543C2.72333 14.2511 2.74599 14.4628 2.84422 14.6429C2.94245 14.823 3.10819 14.9567 3.305 15.0146C3.5018 15.0725 3.71354 15.0498 3.89363 14.9516C3.96957 14.9101 5.60223 14.0062 7.46656 11.9426C8.25828 12.7891 8.8025 13.1885 8.8352 13.2117C8.91746 13.2715 9.0107 13.3144 9.10958 13.3381C9.20846 13.3618 9.31103 13.3657 9.41144 13.3497C9.51185 13.3337 9.60812 13.2981 9.69474 13.2448C9.78136 13.1916 9.85663 13.1218 9.91625 13.0394V13.0398Z" fill="#526177"/>
</g>
</svg>
