<svg width="25" height="25" viewBox="0 0 25 25" fill="none" xmlns="http://www.w3.org/2000/svg">
<path d="M5.9375 22.4457C6.8646 22.4457 7.77088 22.1708 8.54174 21.6558C9.31259 21.1407 9.9134 20.4086 10.2682 19.5521C10.623 18.6955 10.7158 17.753 10.5349 16.8438C10.3541 15.9345 9.90762 15.0992 9.25206 14.4437C8.5965 13.7881 7.76127 13.3417 6.85199 13.1608C5.9427 12.9799 5.0002 13.0728 4.14367 13.4276C3.28714 13.7823 2.55506 14.3832 2.03999 15.154C1.52492 15.9249 1.25 16.8311 1.25 17.7582C1.2514 19.001 1.74571 20.1925 2.62449 21.0713C3.50326 21.95 4.69473 22.4443 5.9375 22.4457ZM5.9375 14.5707C6.56793 14.5707 7.1842 14.7577 7.70838 15.1079C8.23256 15.4582 8.64111 15.956 8.88237 16.5384C9.12362 17.1209 9.18674 17.7618 9.06375 18.3801C8.94076 18.9984 8.63718 19.5664 8.1914 20.0121C7.74562 20.4579 7.17766 20.7615 6.55935 20.8845C5.94104 21.0075 5.30014 20.9444 4.7177 20.7031C4.13526 20.4619 3.63744 20.0533 3.28719 19.5291C2.93694 19.0049 2.75 18.3887 2.75 17.7582C2.75096 16.9132 3.08709 16.103 3.68465 15.5054C4.28222 14.9078 5.09242 14.5717 5.9375 14.5707Z" fill="#999999"/>
<path d="M14.375 17.7582C14.375 18.6853 14.6499 19.5916 15.165 20.3625C15.6801 21.1333 16.4121 21.7341 17.2687 22.0889C18.1252 22.4437 19.0677 22.5365 19.977 22.3557C20.8863 22.1748 21.7215 21.7284 22.3771 21.0728C23.0326 20.4172 23.4791 19.582 23.6599 18.6727C23.8408 17.7634 23.748 16.8209 23.3932 15.9644C23.0384 15.1079 22.4376 14.3758 21.6667 13.8607C20.8959 13.3457 19.9896 13.0707 19.0625 13.0707C17.8197 13.0721 16.6283 13.5665 15.7495 14.4452C14.8707 15.324 14.3764 16.5155 14.375 17.7582ZM19.0625 14.5707C19.6929 14.5707 20.3092 14.7577 20.8334 15.1079C21.3576 15.4582 21.7661 15.956 22.0074 16.5384C22.2486 17.1209 22.3117 17.7618 22.1888 18.3801C22.0658 18.9984 21.7622 19.5664 21.3164 20.0121C20.8706 20.4579 20.3027 20.7615 19.6844 20.8845C19.066 21.0075 18.4251 20.9444 17.8427 20.7031C17.2603 20.4619 16.7624 20.0533 16.4122 19.5291C16.0619 19.0049 15.875 18.3887 15.875 17.7582C15.876 16.9132 16.2121 16.103 16.8097 15.5054C17.4072 14.9078 18.2174 14.5717 19.0625 14.5707Z" fill="#999999"/>
<path d="M15.4021 6.51649C16.2846 6.51649 16.9999 5.8011 16.9999 4.91861C16.9999 4.03613 16.2846 3.32074 15.4021 3.32074C14.5196 3.32074 13.8042 4.03613 13.8042 4.91861C13.8042 5.8011 14.5196 6.51649 15.4021 6.51649Z" fill="#999999"/>
<path d="M9.45092 12.9911L11.75 15.2593V19.4458H13.25V15.1026C13.2496 14.9536 13.2198 14.8062 13.1623 14.6688C13.1048 14.5314 13.0208 14.4066 12.9151 14.3017L10.5116 11.9304L13.6266 8.81544L16.3531 11.6069C16.4581 11.7139 16.5833 11.7989 16.7215 11.8571C16.8596 11.9153 17.008 11.9454 17.1579 11.9458H18.5V10.4458H17.3158L12.9805 6.00725L12.9582 6.029L12.5645 5.63525L7.31445 10.8853L9.43573 13.0065L9.45092 12.9911Z" fill="#999999"/>
</svg>
