<svg xmlns="http://www.w3.org/2000/svg" width="46" height="46" viewBox="0 0 46 46">
  <g id="Group_170" data-name="Group 170" transform="translate(-256 -4261)">
    <circle id="Ellipse_7" data-name="Ellipse 7" cx="23" cy="23" r="23" transform="translate(256 4261)" fill="#146ef6"/>
    <path id="instagram-filled" d="M12.094,10.239A1.972,1.972,0,1,0,10.122,12.2,1.97,1.97,0,0,0,12.094,10.239ZM15.023.022H5.016A5,5,0,0,0,.016,5V6.387H7.373a4.749,4.749,0,0,1,5.5,0h7.152V5A4.994,4.994,0,0,0,15.023.022Zm2.025,4.735a.556.556,0,0,1-.556.553H14.775a.556.556,0,0,1-.556-.553V3.047a.556.556,0,0,1,.556-.553h1.717a.556.556,0,0,1,.556.553Zm-2.177,5.483a4.749,4.749,0,0,1-9.5,0,4.683,4.683,0,0,1,.451-2.009H.016v6.813a4.994,4.994,0,0,0,5,4.978H15.023a5,5,0,0,0,5-4.978V8.23h-5.6a4.685,4.685,0,0,1,.451,2.009Z" transform="translate(268.984 4273.978)" fill="#fff"/>
  </g>
</svg>
