<svg width="28" height="29" viewBox="0 0 28 29" fill="none" xmlns="http://www.w3.org/2000/svg">
<g clip-path="url(#clip0_160_904)">
<path d="M16.9001 15.0439C16.9001 13.5307 15.6633 12.2993 14.1431 12.2993C12.6231 12.2993 11.3864 13.5307 11.3864 15.0439C11.3864 16.5575 12.6231 17.7886 14.1431 17.7886C15.6633 17.7886 16.9001 16.5575 16.9001 15.0439ZM20.9959 0.756836H7.00396C3.14901 0.756836 0.0127563 3.87945 0.0127563 7.71755V9.657H10.3003C11.3859 8.88711 12.7116 8.43231 14.1431 8.43231C15.5746 8.43231 16.9006 8.88711 17.9862 9.657H27.9871V7.71755C27.9871 3.87942 24.8509 0.756836 20.9959 0.756836ZM23.8273 7.37702C23.8273 7.80236 23.4778 8.15043 23.0505 8.15043H20.6503C20.223 8.15043 19.8735 7.80236 19.8735 7.37702V4.98716C19.8735 4.56184 20.223 4.21374 20.6503 4.21374H23.0505C23.4778 4.21374 23.8273 4.56178 23.8273 4.98716V7.37702ZM20.784 15.0439C20.784 18.6899 17.8048 21.6556 14.1431 21.6556C10.4813 21.6556 7.50234 18.6899 7.50234 15.0439C7.50234 14.0401 7.72942 13.0882 8.13323 12.235H0.0127563V21.7624C0.0127563 25.6007 3.14901 28.7231 7.00396 28.7231H20.996C24.8509 28.7231 27.9871 25.6007 27.9871 21.7624V12.235H20.1531C20.5569 13.0882 20.784 14.0401 20.784 15.0439Z" fill="#F14356"/>
</g>
<defs>
<clipPath id="clip0_160_904">
<rect width="28" height="28" fill="white" transform="translate(0 0.73999)"/>
</clipPath>
</defs>
</svg>
