<svg width="28" height="29" viewBox="0 0 28 29" fill="none" xmlns="http://www.w3.org/2000/svg">
<g clip-path="url(#clip0_160_900)">
<path d="M4.32031 24.1496H8.53125V11.4985H4.32031V24.1496ZM8.80469 7.59747C8.79253 6.96553 8.57378 6.44296 8.14844 6.02976C7.72309 5.61657 7.15799 5.40997 6.45312 5.40997C5.74826 5.40997 5.17405 5.61657 4.73047 6.02976C4.28689 6.44296 4.0651 6.96553 4.0651 7.59747C4.0651 8.21726 4.28082 8.7368 4.71224 9.15607C5.14366 9.57534 5.70573 9.78497 6.39844 9.78497H6.41667C7.13368 9.78497 7.71094 9.57534 8.14844 9.15607C8.58594 8.7368 8.80469 8.21726 8.80469 7.59747ZM19.4688 24.1496H23.6797V16.8943C23.6797 15.0228 23.2361 13.607 22.349 12.647C21.4618 11.6869 20.2891 11.2068 18.8307 11.2068C17.1779 11.2068 15.908 11.9178 15.0208 13.3397H15.0573V11.4985H10.8464C10.8828 12.3006 10.8828 16.5176 10.8464 24.1496H15.0573V17.0766C15.0573 16.6148 15.0998 16.2746 15.1849 16.0558C15.3672 15.6305 15.6406 15.2689 16.0052 14.9712C16.3698 14.6734 16.8194 14.5246 17.3542 14.5246C18.7639 14.5246 19.4688 15.4785 19.4688 17.3865V24.1496ZM28 5.95685V23.4568C28 24.903 27.4865 26.1396 26.4596 27.1665C25.4327 28.1934 24.1962 28.7068 22.75 28.7068H5.25C3.80382 28.7068 2.56727 28.1934 1.54036 27.1665C0.513455 26.1396 0 24.903 0 23.4568V5.95685C0 4.51067 0.513455 3.27412 1.54036 2.24721C2.56727 1.2203 3.80382 0.706848 5.25 0.706848H22.75C24.1962 0.706848 25.4327 1.2203 26.4596 2.24721C27.4865 3.27412 28 4.51067 28 5.95685Z" fill="#136BC4"/>
</g>
<defs>
<clipPath id="clip0_160_900">
<rect width="28" height="28" fill="white" transform="translate(0 0.706848)"/>
</clipPath>
</defs>
</svg>
