<svg width="30" height="21" viewBox="0 0 30 21" fill="none" xmlns="http://www.w3.org/2000/svg">
<path d="M29.1666 19.2627C29.1666 20.0385 28.5347 20.6662 27.757 20.6662H16.4095C16.0356 20.6662 15.6771 20.5183 15.4128 20.2551C15.1484 19.9919 14.9999 19.6349 14.9999 19.2627C14.9999 18.8904 15.1484 18.5334 15.4128 18.2702C15.6771 18.007 16.0356 17.8591 16.4095 17.8591H27.757C28.5362 17.8591 29.1666 18.4868 29.1666 19.2627Z" fill="#212121"/>
<path d="M29.1666 10.7947C29.1666 11.5705 28.5348 12.1982 27.757 12.1982H2.24284C1.86899 12.1982 1.51046 12.0503 1.24611 11.7871C0.981761 11.5239 0.833252 11.1669 0.833252 10.7947C0.833252 10.4224 0.981761 10.0654 1.24611 9.8022C1.51046 9.53899 1.86899 9.39111 2.24284 9.39111H27.757C28.5362 9.39111 29.1666 10.0202 29.1666 10.7947Z" fill="#212121"/>
<path d="M27.757 3.72993C28.1308 3.72993 28.4894 3.58206 28.7537 3.31885C29.0181 3.05563 29.1666 2.69863 29.1666 2.32639C29.1666 1.95415 29.0181 1.59715 28.7537 1.33394C28.4894 1.07072 28.1308 0.922852 27.757 0.922852H10.7428C10.5577 0.922852 10.3744 0.959155 10.2034 1.02969C10.0324 1.10022 9.877 1.20361 9.74611 1.33394C9.61522 1.46427 9.51139 1.619 9.44055 1.78928C9.36971 1.95957 9.33325 2.14208 9.33325 2.32639C9.33325 2.51071 9.36971 2.69322 9.44055 2.8635C9.51139 3.03379 9.61522 3.18851 9.74611 3.31885C9.877 3.44918 10.0324 3.55256 10.2034 3.62309C10.3744 3.69363 10.5577 3.72993 10.7428 3.72993H27.757Z" fill="#212121"/>
</svg>
