<svg width="24" height="25" viewBox="0 0 24 25" fill="none" xmlns="http://www.w3.org/2000/svg">
<g clip-path="url(#clip0_5900_2643)">
<path d="M11.9237 8.56982C13.1271 8.56982 14.1525 8.98649 15 9.81982C15.8475 10.6532 16.2712 11.6532 16.2712 12.8198C16.2712 13.9865 15.8475 14.9865 15 15.8198C14.1525 16.6532 13.1271 17.0698 11.9237 17.0698C10.7203 17.0698 9.69492 16.6532 8.84746 15.8198C8 14.9865 7.57627 13.9865 7.57627 12.8198C7.57627 11.6532 8 10.6532 8.84746 9.81982C9.69492 8.98649 10.7203 8.56982 11.9237 8.56982ZM21.6102 11.7698H23.8475V13.8698H21.6102C21.3729 16.1032 20.4492 18.0115 18.839 19.5948C17.2288 21.1782 15.2881 22.1032 13.0169 22.3698V24.5698H10.8305V22.3698C8.59322 22.1032 6.66102 21.1782 5.0339 19.5948C3.40678 18.0115 2.47458 16.1032 2.23729 13.8698H0V11.7698H2.23729C2.47458 9.53649 3.40678 7.62816 5.0339 6.04482C6.66102 4.46149 8.59322 3.53649 10.8305 3.26982V1.06982H13.0169V3.26982C15.2881 3.53649 17.2288 4.46149 18.839 6.04482C20.4492 7.62816 21.3729 9.53649 21.6102 11.7698ZM11.9492 20.2698C14.0508 20.2698 15.839 19.5448 17.3136 18.0948C18.7881 16.6448 19.5254 14.8865 19.5254 12.8198C19.5254 10.7532 18.7881 8.99482 17.3136 7.54482C15.839 6.09482 14.0508 5.36982 11.9492 5.36982C9.84746 5.36982 8.05085 6.09482 6.55932 7.54482C5.0678 8.99482 4.32203 10.7532 4.32203 12.8198C4.32203 14.8865 5.0678 16.6448 6.55932 18.0948C8.05085 19.5448 9.84746 20.2698 11.9492 20.2698Z" fill="#374458"/>
</g>
<defs>
<clipPath id="clip0_5900_2643">
<rect width="24" height="24" fill="white" transform="translate(0 0.819824)"/>
</clipPath>
</defs>
</svg>
