<svg width="15" height="15" viewBox="0 0 15 15" fill="none" xmlns="http://www.w3.org/2000/svg">
<path d="M14.5192 5.93923H9.3859V0.8059C9.3859 0.682132 9.33673 0.563434 9.24922 0.475917C9.1617 0.3884 9.043 0.339233 8.91923 0.339233H7.05257C6.9288 0.339233 6.8101 0.3884 6.72258 0.475917C6.63507 0.563434 6.5859 0.682132 6.5859 0.8059V5.93923H1.45257C1.3288 5.93923 1.2101 5.9884 1.12258 6.07592C1.03507 6.16343 0.985901 6.28213 0.985901 6.4059V8.27257C0.985901 8.39633 1.03507 8.51503 1.12258 8.60255C1.2101 8.69007 1.3288 8.73923 1.45257 8.73923H6.5859V13.8726C6.5859 13.9963 6.63507 14.115 6.72258 14.2025C6.8101 14.2901 6.9288 14.3392 7.05257 14.3392H8.91923C9.043 14.3392 9.1617 14.2901 9.24922 14.2025C9.33673 14.115 9.3859 13.9963 9.3859 13.8726V8.73923H14.5192C14.643 8.73923 14.7617 8.69007 14.8492 8.60255C14.9367 8.51503 14.9859 8.39633 14.9859 8.27257V6.4059C14.9859 6.28213 14.9367 6.16343 14.8492 6.07592C14.7617 5.9884 14.643 5.93923 14.5192 5.93923Z" fill="#2F80ED"/>
</svg>
