<svg width="62" height="40" viewBox="0 0 62 40" fill="none" xmlns="http://www.w3.org/2000/svg">
<path id="upload" d="M50.2108 16.6232C50.2108 16.4593 50.2381 16.2935 50.2381 16.1297C50.2381 7.21533 43.134 0 34.3699 0C28.0479 0 22.6155 3.75884 20.064 9.18936C18.9522 8.62758 17.7058 8.29792 16.3891 8.29792C12.3435 8.29792 8.96894 11.3019 8.32523 15.2246C3.47015 16.8962 0 21.5465 0 27.02C0 33.9056 5.50074 39.5 12.2752 39.5H26.3333V28.5278H19.7227L30.7222 17.0484L41.7218 28.5141H35.1111V39.4863H50.2382C56.4372 39.4863 61.4444 34.3426 61.4444 28.0479C61.4444 21.7533 56.4119 16.6368 50.2108 16.6232H50.2108Z" fill="#6472A1"/>
</svg>
