<svg width="23" height="23" viewBox="0 0 23 23" fill="none" xmlns="http://www.w3.org/2000/svg">
<g id="notifications-active" clip-path="url(#clip0_116_768)">
<path id="Vector" d="M6.05804 1.91667C4.92857 2.76852 4.02158 3.83333 3.33705 5.11111C2.65253 6.38889 2.27604 7.7554 2.20759 9.21065H0C0.0684524 7.43596 0.504836 5.76775 1.30915 4.20602C2.11347 2.64429 3.18304 1.34876 4.51786 0.319444L6.05804 1.91667ZM20.7411 9.21065C20.6726 7.7554 20.2876 6.38889 19.5859 5.11111C18.8843 3.83333 17.9688 2.76852 16.8393 1.91667L18.4308 0.319444C19.7656 1.34876 20.8266 2.64429 21.6138 4.20602C22.401 5.76775 22.846 7.43596 22.9487 9.21065H20.7411ZM18.5848 9.7963V16.0255L20.7924 18.3148V19.4329H2.15625V18.3148L4.36384 16.0255V9.7963C4.36384 8.0571 4.87723 6.52199 5.90402 5.19097C6.9308 3.85995 8.2314 2.99923 9.8058 2.6088V1.86343C9.8058 1.36651 9.96838 0.958332 10.2935 0.638888C10.6187 0.319444 11.0123 0.159721 11.4743 0.159721C11.9364 0.159721 12.3214 0.319444 12.6295 0.638888C12.9375 0.958332 13.0915 1.36651 13.0915 1.86343V2.6088C14.7001 2.99923 16.0179 3.85995 17.0446 5.19097C18.0714 6.52199 18.5848 8.0571 18.5848 9.7963ZM11.4487 22.8403C10.8668 22.8403 10.362 22.6184 9.93415 22.1748C9.50632 21.7311 9.29241 21.2076 9.29241 20.6042H13.6562C13.6562 20.8881 13.6049 21.1721 13.5022 21.456C13.1942 22.2014 12.6637 22.6451 11.9107 22.787C11.7738 22.8225 11.6198 22.8403 11.4487 22.8403Z" fill="#333333"/>
</g>
<defs>
<clipPath id="clip0_116_768">
<rect width="23" height="23" fill="white"/>
</clipPath>
</defs>
</svg>
