<svg xmlns="http://www.w3.org/2000/svg" width="46" height="46" viewBox="0 0 46 46">
  <g id="Group_168" data-name="Group 168" transform="translate(-370 -4261)">
    <circle id="Ellipse_9" data-name="Ellipse 9" cx="23" cy="23" r="23" transform="translate(370 4261)" fill="#146ef6"/>
    <path id="pinterest" d="M4.648,7.9a3.538,3.538,0,0,1,.657-2.159,1.935,1.935,0,0,1,1.6-.892,1.418,1.418,0,0,1,1.2.517,2.012,2.012,0,0,1,.4,1.268,6.19,6.19,0,0,1-.141,1.174q-.188.657-.469,1.6-.282.892-.423,1.455a1.707,1.707,0,0,0,.352,1.62,1.922,1.922,0,0,0,1.526.681,3.1,3.1,0,0,0,2.7-1.855A8.923,8.923,0,0,0,13.1,6.823a4.4,4.4,0,0,0-1.291-3.286A4.976,4.976,0,0,0,8.169,2.269,5.658,5.658,0,0,0,3.92,3.935,5.552,5.552,0,0,0,2.3,7.95,3.615,3.615,0,0,0,3.1,10.3a.652.652,0,0,1,.188.657,6.451,6.451,0,0,0-.235.939.516.516,0,0,1-.258.305.54.54,0,0,1-.352.024A3.538,3.538,0,0,1,.61,10.486,6.221,6.221,0,0,1,0,7.668,6.786,6.786,0,0,1,.328,5.6a6.932,6.932,0,0,1,1.033-2A8.336,8.336,0,0,1,3.052,1.893,7.813,7.813,0,0,1,5.446.7,10.05,10.05,0,0,1,8.5.25a8.321,8.321,0,0,1,3.075.563,7.1,7.1,0,0,1,2.394,1.5,6.8,6.8,0,0,1,1.5,2.183,6.374,6.374,0,0,1,.54,2.558,9.216,9.216,0,0,1-1.784,5.821,5.566,5.566,0,0,1-4.6,2.3,3.794,3.794,0,0,1-1.761-.423,2.592,2.592,0,0,1-1.15-1.032q-.7,2.723-.845,3.239a10.947,10.947,0,0,1-1.69,3.286h-.8a11.445,11.445,0,0,1,.094-3.944L5.024,9.827A4.492,4.492,0,0,1,4.648,7.9Z" transform="translate(385 4273.75)" fill="#fff"/>
  </g>
</svg>
