<svg width="19" height="19" viewBox="0 0 19 19" fill="none" xmlns="http://www.w3.org/2000/svg">
<g clip-path="url(#clip0_5780_9274)">
<path fill-rule="evenodd" clip-rule="evenodd" d="M18.1606 16.2023C18.1606 16.5751 17.8584 16.8773 17.4856 16.8773H16.8106C16.4378 16.8773 16.1356 16.5751 16.1356 16.2023C16.1356 15.8296 16.4378 15.5273 16.8106 15.5273H17.4856C17.8584 15.5273 18.1606 15.8296 18.1606 16.2023ZM12.9856 16.2023C12.9856 16.5751 12.6834 16.8773 12.3106 16.8773H0.835583C0.462792 16.8773 0.160583 16.5751 0.160583 16.2023C0.160583 15.8296 0.462792 15.5273 0.835583 15.5273H12.3106C12.6834 15.5273 12.9856 15.8296 12.9856 16.2023Z" fill="white"/>
<path fill-rule="evenodd" clip-rule="evenodd" d="M18.1606 3.60225C18.1606 3.97503 17.8584 4.27725 17.4856 4.27725H6.01058C5.63779 4.27725 5.33558 3.97503 5.33558 3.60225C5.33558 3.22946 5.63779 2.92725 6.01058 2.92725H17.4856C17.8584 2.92725 18.1606 3.22946 18.1606 3.60225ZM2.18558 3.60225C2.18558 3.97503 1.88337 4.27725 1.51058 4.27725H0.835583C0.462792 4.27725 0.160583 3.97503 0.160583 3.60225C0.160583 3.22946 0.462792 2.92725 0.835583 2.92725H1.51058C1.88337 2.92725 2.18558 3.22946 2.18558 3.60225Z" fill="white"/>
<path fill-rule="evenodd" clip-rule="evenodd" d="M18.1606 9.90229C18.1606 10.2751 17.8584 10.5773 17.4856 10.5773H11.4106C11.0378 10.5773 10.7356 10.2751 10.7356 9.90229C10.7356 9.52951 11.0378 9.22729 11.4106 9.22729H17.4856C17.8584 9.22729 18.1606 9.52951 18.1606 9.90229ZM7.58558 9.90229C7.58558 10.2751 7.28337 10.5773 6.91058 10.5773H0.835583C0.462792 10.5773 0.160583 10.2751 0.160583 9.90229C0.160583 9.52951 0.462792 9.22729 0.835583 9.22729H6.91058C7.28337 9.22729 7.58558 9.52951 7.58558 9.90229Z" fill="white"/>
<path fill-rule="evenodd" clip-rule="evenodd" d="M14.5606 14.8524C13.815 14.8524 13.2106 15.4569 13.2106 16.2024C13.2106 16.948 13.815 17.5524 14.5606 17.5524C15.3062 17.5524 15.9106 16.948 15.9106 16.2024C15.9106 15.4569 15.3062 14.8524 14.5606 14.8524ZM14.5606 13.5024C13.0694 13.5024 11.8606 14.7112 11.8606 16.2024C11.8606 17.6937 13.0694 18.9024 14.5606 18.9024C16.0518 18.9024 17.2606 17.6937 17.2606 16.2024C17.2606 14.7112 16.0518 13.5024 14.5606 13.5024Z" fill="white"/>
<path fill-rule="evenodd" clip-rule="evenodd" d="M3.76058 2.25234C3.01499 2.25234 2.41058 2.85676 2.41058 3.60234C2.41058 4.34793 3.01499 4.95234 3.76058 4.95234C4.50616 4.95234 5.11058 4.34793 5.11058 3.60234C5.11058 2.85676 4.50616 2.25234 3.76058 2.25234ZM3.76058 0.902344C2.26941 0.902344 1.06058 2.11118 1.06058 3.60234C1.06058 5.09351 2.26941 6.30234 3.76058 6.30234C5.25174 6.30234 6.46058 5.09351 6.46058 3.60234C6.46058 2.11118 5.25174 0.902344 3.76058 0.902344Z" fill="white"/>
<path fill-rule="evenodd" clip-rule="evenodd" d="M9.16057 8.55239C8.41498 8.55239 7.81057 9.15681 7.81057 9.90239C7.81057 10.648 8.41498 11.2524 9.16057 11.2524C9.90613 11.2524 10.5106 10.648 10.5106 9.90239C10.5106 9.15681 9.90613 8.55239 9.16057 8.55239ZM9.16057 7.20239C7.66941 7.20239 6.46057 8.41123 6.46057 9.90239C6.46057 11.3936 7.66941 12.6024 9.16057 12.6024C10.6518 12.6024 11.8606 11.3936 11.8606 9.90239C11.8606 8.41123 10.6518 7.20239 9.16057 7.20239Z" fill="white"/>
</g>
<defs>
<clipPath id="clip0_5780_9274">
<rect width="18" height="18" fill="white" transform="translate(0.160583 0.902344)"/>
</clipPath>
</defs>
</svg>
