<svg xmlns="http://www.w3.org/2000/svg" width="46" height="46" viewBox="0 0 46 46">
  <g id="Group_171" data-name="Group 171" transform="translate(-199 -4261)">
    <circle id="Ellipse_6" data-name="Ellipse 6" cx="23" cy="23" r="23" transform="translate(199 4261)" fill="#146ef6"/>
    <path id="twitter" d="M21.6,5.106a5.805,5.805,0,0,1-.806,1.156A5.954,5.954,0,0,1,19.337,7.49q.024.193.036.361a13.106,13.106,0,0,1-.927,5.021,13.221,13.221,0,0,1-5.261,6.538,13.834,13.834,0,0,1-8.236,1.5A9.456,9.456,0,0,1,0,19a9.221,9.221,0,0,0,6.6-1.9,4.545,4.545,0,0,1-4.19-3.106,2.818,2.818,0,0,0,.939.048,8.736,8.736,0,0,0,1.06-.145A4.967,4.967,0,0,1,1.4,11.559,5.035,5.035,0,0,1,.891,9.344a4.231,4.231,0,0,0,2,.6A5.164,5.164,0,0,1,.927,6.755a5.908,5.908,0,0,1,.542-2.878A15.134,15.134,0,0,0,6.61,7.73a10.65,10.65,0,0,0,4.033.843,5.39,5.39,0,0,1,.542-3.419,4.658,4.658,0,0,1,2.781-2.023,4.1,4.1,0,0,1,4.118,1.276,7.329,7.329,0,0,0,2.866-1.06A4.348,4.348,0,0,1,18.975,5.9,12.521,12.521,0,0,0,21.6,5.105Z" transform="translate(211 4272)" fill="#fff"/>
  </g>
</svg>
