<svg width="19" height="19" viewBox="0 0 19 19" fill="none" xmlns="http://www.w3.org/2000/svg">
<g id="user-filled">
<path id="Vector" d="M3.875 17.859H15.125V15.0465C15.1238 14.0026 14.7086 13.0017 13.9704 12.2636C13.2323 11.5254 12.2314 11.1102 11.1875 11.109H7.8125C6.76858 11.1102 5.76775 11.5254 5.02958 12.2636C4.29142 13.0017 3.87619 14.0026 3.875 15.0465V17.859Z" fill="#CD2020"/>
<path id="Vector_2" d="M5.5625 6.04648C5.5625 6.82524 5.79343 7.58652 6.22609 8.23404C6.65875 8.88155 7.2737 9.38623 7.99318 9.68425C8.71267 9.98227 9.50437 10.0602 10.2682 9.90832C11.032 9.75639 11.7336 9.38138 12.2842 8.83071C12.8349 8.28004 13.2099 7.57845 13.3618 6.81465C13.5138 6.05085 13.4358 5.25915 13.1378 4.53966C12.8398 3.82018 12.3351 3.20522 11.6876 2.77257C11.04 2.33991 10.2788 2.10898 9.5 2.10898C8.45571 2.10898 7.45419 2.52382 6.71577 3.26225C5.97734 4.00067 5.5625 5.00219 5.5625 6.04648Z" fill="#CD2020"/>
</g>
</svg>
