<svg width="17" height="19" viewBox="0 0 17 19" fill="none" xmlns="http://www.w3.org/2000/svg">
<path d="M12.5181 16.8198H4.51807C4.51807 17.3503 4.30735 17.859 3.93228 18.234C3.55721 18.6091 3.0485 18.8198 2.51807 18.8198C1.98763 18.8198 1.47893 18.6091 1.10385 18.234C0.72878 17.859 0.518066 17.3503 0.518066 16.8198V2.81982C0.518066 2.28939 0.72878 1.78068 1.10385 1.40561C1.47893 1.03054 1.98763 0.819824 2.51807 0.819824H14.5181C15.0485 0.819824 15.5572 1.03054 15.9323 1.40561C16.3074 1.78068 16.5181 2.28939 16.5181 2.81982V16.8198C16.5181 17.3503 16.3074 17.859 15.9323 18.234C15.5572 18.6091 15.0485 18.8198 14.5181 18.8198C13.9876 18.8198 13.4789 18.6091 13.1039 18.234C12.7288 17.859 12.5181 17.3503 12.5181 16.8198ZM13.5181 12.8198C13.7833 12.8198 14.0376 12.7145 14.2252 12.5269C14.4127 12.3394 14.5181 12.085 14.5181 11.8198C14.5181 11.5546 14.4127 11.3003 14.2252 11.1127C14.0376 10.9252 13.7833 10.8198 13.5181 10.8198C13.2528 10.8198 12.9985 10.9252 12.811 11.1127C12.6234 11.3003 12.5181 11.5546 12.5181 11.8198C12.5181 12.085 12.6234 12.3394 12.811 12.5269C12.9985 12.7145 13.2528 12.8198 13.5181 12.8198ZM3.51807 12.8198C3.78328 12.8198 4.03764 12.7145 4.22517 12.5269C4.41271 12.3394 4.51807 12.085 4.51807 11.8198C4.51807 11.5546 4.41271 11.3003 4.22517 11.1127C4.03764 10.9252 3.78328 10.8198 3.51807 10.8198C3.25285 10.8198 2.9985 10.9252 2.81096 11.1127C2.62342 11.3003 2.51807 11.5546 2.51807 11.8198C2.51807 12.085 2.62342 12.3394 2.81096 12.5269C2.9985 12.7145 3.25285 12.8198 3.51807 12.8198ZM2.51807 2.81982V8.81982H14.5181V2.81982H2.51807Z" fill="#146ef6"/>
</svg>
