<svg width="19" height="21" viewBox="0 0 19 21" fill="none" xmlns="http://www.w3.org/2000/svg">
<path d="M5.36836 20.293C3.99288 17.4828 4.71236 15.871 5.79157 14.3626C6.95554 12.7095 7.25181 11.0564 7.25181 11.0564C7.25181 11.0564 8.16172 12.2135 7.80199 14.032C9.4103 12.2755 9.72781 9.48604 9.47375 8.41155C13.135 10.8913 14.7009 16.2843 12.5848 20.2929C23.7797 14.1146 15.357 4.85747 13.8968 3.82431C14.3835 4.85747 14.4682 6.63451 13.4947 7.48174C11.844 1.30343 7.71735 0.0429688 7.71735 0.0429688C8.20404 3.22504 5.93974 6.7172 3.78114 9.32078C3.69655 8.06032 3.63293 7.17187 2.93472 5.95263C2.7654 8.26687 0.966539 10.1473 0.479841 12.4409C-0.176306 15.5816 0.966539 17.8754 5.36836 20.293Z" fill="#DD422D"/>
</svg>
