<svg width="22" height="17" viewBox="0 0 22 17" fill="none" xmlns="http://www.w3.org/2000/svg">
<g clip-path="url(#clip0_83_1130)">
<path d="M14.8271 9.23015C14.8271 9.12409 14.7943 9.03697 14.7287 8.96879L10.8787 4.96879C10.8131 4.90061 10.7292 4.86652 10.6271 4.86652C10.5251 4.86652 10.4412 4.90061 10.3756 4.96879L6.53652 8.95743C6.46361 9.04833 6.42715 9.13924 6.42715 9.23015C6.42715 9.33621 6.45996 9.42333 6.52559 9.49152C6.59121 9.5597 6.67507 9.59379 6.77715 9.59379H9.22715V13.5938C9.22715 13.6923 9.26178 13.7775 9.33105 13.8495C9.40033 13.9214 9.48236 13.9574 9.57715 13.9574H11.6771C11.7719 13.9574 11.854 13.9214 11.9232 13.8495C11.9925 13.7775 12.0271 13.6923 12.0271 13.5938V9.59379H14.4771C14.5719 9.59379 14.654 9.5578 14.7232 9.48583C14.7925 9.41387 14.8271 9.32864 14.8271 9.23015ZM21.8271 12.5029C21.8271 13.7074 21.417 14.7358 20.5967 15.5881C19.7764 16.4404 18.7865 16.8665 17.6271 16.8665H5.72715C4.37819 16.8665 3.22428 16.3684 2.26543 15.3722C1.30658 14.376 0.827148 13.1771 0.827148 11.7756C0.827148 10.7908 1.08236 9.88167 1.59277 9.04833C2.10319 8.215 2.78861 7.59 3.64902 7.17333C3.63444 6.94606 3.62715 6.78318 3.62715 6.6847C3.62715 5.07864 4.17402 3.70743 5.26777 2.57106C6.36152 1.4347 7.68131 0.866516 9.22715 0.866516C10.3646 0.866516 11.4055 1.19606 12.3498 1.85515C13.2941 2.51424 13.9813 3.38924 14.4115 4.48015C14.9292 4.01046 15.5344 3.77561 16.2271 3.77561C17.0001 3.77561 17.66 4.0597 18.2068 4.62788C18.7537 5.19606 19.0271 5.88167 19.0271 6.6847C19.0271 7.26046 18.8777 7.78318 18.5787 8.25288C19.5266 8.48773 20.305 9.00099 20.9139 9.79265C21.5227 10.5843 21.8271 11.4877 21.8271 12.5029Z" fill="white"/>
</g>
<defs>
<clipPath id="clip0_83_1130">
<rect width="21" height="16" fill="white" transform="translate(0.827148 0.866516)"/>
</clipPath>
</defs>
</svg>
