<svg width="15" height="14" viewBox="0 0 15 14" fill="none" xmlns="http://www.w3.org/2000/svg">
<path d="M0.84958 9.32765L0.0207494 12.9047C-0.0371575 13.1695 0.0275802 13.4464 0.196925 13.658C0.36627 13.8697 0.622123 13.9936 0.893203 13.9953C0.95557 14.0016 1.01841 14.0016 1.08078 13.9953L4.67965 13.1664L11.5895 6.28279L7.73324 2.43527L0.84958 9.32765Z" fill="#146ef6"/>
<path d="M13.7619 2.8366L11.1881 0.262865C10.8359 -0.0876215 10.2666 -0.0876215 9.91435 0.262864L8.48352 1.69369L12.3354 5.54557L13.7662 4.11474C13.9353 3.94478 14.0299 3.71453 14.0291 3.47477C14.0283 3.23501 13.9321 3.00541 13.7619 2.8366V2.8366Z" fill="#146ef6"/>
</svg>
