<svg width="24" height="32" viewBox="0 0 24 32" fill="none" xmlns="http://www.w3.org/2000/svg">
<g opacity="0.86">
<path d="M14.1458 10.1634H23.4875C23.7749 10.1634 24.0008 9.9376 24.0008 9.65016C24.0008 8.73652 23.6004 7.87421 22.9024 7.29934L15.0697 0.770398C14.4743 0.277648 13.7352 0.0107422 12.955 0.0107422C12.5341 0.0107422 12.1953 0.349507 12.1953 0.770398V8.21298C12.1953 9.29087 13.0679 10.1634 14.1458 10.1634Z" fill="#146ef6"/>
<path d="M12.8684 6.31579V0H2.52631C1.13684 0 0 1.13684 0 2.52632V29.0526C0 30.4421 1.13684 31.5789 2.52631 31.5789H21.4737C22.8632 31.5789 24 30.4421 24 29.0526V9.86842H16.4211C14.4632 9.86842 12.8684 8.27368 12.8684 6.31579Z" fill="#146ef6"/>
</g>
</svg>
