<svg width="18" height="18" viewBox="0 0 18 18" fill="none" xmlns="http://www.w3.org/2000/svg">
<path d="M16.2278 6.8656H10.6105V1.24829C10.6105 0.559 10.0515 0 9.36218 0H8.11389C7.4246 0 6.8656 0.559 6.8656 1.24829V6.8656H1.24829C0.559 6.8656 0 7.4246 0 8.11389V9.36218C0 10.0515 0.559 10.6105 1.24829 10.6105H6.8656V16.2278C6.8656 16.9171 7.4246 17.4761 8.11389 17.4761H9.36218C10.0515 17.4761 10.6105 16.9171 10.6105 16.2278V10.6105H16.2278C16.9171 10.6105 17.4761 10.0515 17.4761 9.36218V8.11389C17.4761 7.4246 16.9171 6.8656 16.2278 6.8656Z" fill="#146ef6"/>
</svg>
