<svg width="20" height="24" viewBox="0 0 20 24" fill="none" xmlns="http://www.w3.org/2000/svg">
<path d="M18.0545 6.75781H1.74853C1.54983 6.75758 1.35919 6.83635 1.2186 6.97677C1.07802 7.11719 0.999023 7.30774 0.999023 7.50644L0.999024 23.2496C0.998791 23.4485 1.07765 23.6394 1.21824 23.7801C1.35882 23.9209 1.5496 24 1.74853 24L18.0545 24C18.2534 24 18.4442 23.9209 18.5848 23.7801C18.7253 23.6394 18.8042 23.4485 18.804 23.2496L18.804 7.50644C18.8042 7.30767 18.7253 7.11699 18.5847 6.97651C18.444 6.83604 18.2532 6.75735 18.0545 6.75781Z" fill="#969EB5"/>
<path d="M19.055 1.69713H12.8696V0.750383C12.8701 0.551531 12.7914 0.360663 12.651 0.219889C12.5105 0.079114 12.3198 -4.76835e-07 12.121 0H7.68442C7.48549 0 7.29471 0.0790863 7.15413 0.219835C7.01354 0.360585 6.93468 0.55145 6.93491 0.750383V1.69713H0.749507C0.550806 1.6969 0.360164 1.77567 0.219579 1.91609C0.0789933 2.05651 0 2.24706 0 2.44576V4.63379C0 4.8325 0.0789938 5.02305 0.219579 5.16347C0.360164 5.30388 0.550806 5.38266 0.749507 5.38242H19.0559C19.2547 5.38289 19.4454 5.30419 19.5861 5.16372C19.7267 5.02325 19.8056 4.83257 19.8054 4.63379L19.8054 2.44576C19.8056 2.24699 19.7267 2.0563 19.5861 1.91583C19.4454 1.77536 19.2547 1.69666 19.0559 1.69713L19.055 1.69713Z" fill="#969EB5"/>
</svg>
