<svg width="24" height="15" viewBox="0 0 24 15" fill="none" xmlns="http://www.w3.org/2000/svg">
<path d="M19.0674 6.31259C19.0674 6.25037 19.0778 6.18741 19.0778 6.12519C19.0778 2.74 16.38 0 13.0519 0C10.6511 0 8.58815 1.42741 7.61926 3.48963C7.19704 3.2763 6.7237 3.15111 6.2237 3.15111C4.68741 3.15111 3.40593 4.29185 3.16148 5.78148C1.31778 6.4163 0 8.18222 0 10.2607C0 12.8756 2.08889 15 4.66148 15H10V10.8333H7.48963L11.6667 6.47407L15.8437 10.8281H13.3333V14.9948H19.0778C21.4319 14.9948 23.3333 13.0415 23.3333 10.6511C23.3333 8.26074 21.4222 6.31778 19.0674 6.31259H19.0674Z" fill="#ffffff"/>
</svg>
