<svg width="58" height="58" viewBox="0 0 58 58" fill="none" xmlns="http://www.w3.org/2000/svg">
<g clip-path="url(#clip0_601_3879)">
<path d="M45.4127 41.4885C37.8079 38.7181 35.3768 36.3796 35.3768 31.3724C35.3768 28.3676 37.8686 26.4201 38.718 23.8448C39.5675 21.2695 40.0588 18.2204 40.4672 16.0024C40.8757 13.7845 41.038 12.9266 41.2601 10.5634C41.5317 7.61405 39.5573 0 29 0C18.4459 0 16.4652 7.61405 16.7429 10.5634C16.965 12.9266 17.1282 13.7846 17.5357 16.0024C17.9433 18.2204 18.4299 21.2693 19.2788 23.8448C20.1276 26.4203 22.6229 28.3676 22.6229 31.3724C22.6229 36.3796 20.1919 38.7181 12.5871 41.4885C4.9547 44.2651 0 47.0032 0 48.9375V58H58V48.9375C58 47.0062 53.0423 44.2682 45.4127 41.4885Z" fill="#526177"/>
</g>
<defs>
<clipPath id="clip0_601_3879">
<rect width="58" height="58" fill="white"/>
</clipPath>
</defs>
</svg>
