<svg id="Layer_1" data-name="Layer 1" xmlns="http://www.w3.org/2000/svg" xmlns:xlink="http://www.w3.org/1999/xlink" viewBox="0 0 127 48"><defs><style>.cls-1{fill:none;}.cls-2{clip-path:url(#clip-path);}.cls-3{fill:#221c36;}.cls-4{clip-path:url(#clip-path-2);}.cls-5{fill:url(#linear-gradient);}.cls-6{clip-path:url(#clip-path-3);}.cls-7{fill:url(#linear-gradient-2);}.cls-8{clip-path:url(#clip-path-4);}.cls-9{fill:url(#linear-gradient-3);}.cls-10{clip-path:url(#clip-path-5);}.cls-11{fill:url(#linear-gradient-4);}.cls-12{clip-path:url(#clip-path-6);}.cls-13{fill:url(#linear-gradient-5);}.cls-14{clip-path:url(#clip-path-7);}.cls-15{fill:url(#linear-gradient-6);}.cls-16{clip-path:url(#clip-path-8);}.cls-17{fill:url(#linear-gradient-7);}.cls-18{clip-path:url(#clip-path-10);}.cls-19{fill:url(#linear-gradient-9);}.cls-20{clip-path:url(#clip-path-11);}.cls-21{fill:url(#linear-gradient-10);}.cls-22{clip-path:url(#clip-path-12);}.cls-23{fill:url(#linear-gradient-11);}.cls-24{clip-path:url(#clip-path-13);}.cls-25{fill:url(#linear-gradient-12);}.cls-26{clip-path:url(#clip-path-14);}.cls-27{fill:url(#linear-gradient-13);}.cls-28{clip-path:url(#clip-path-15);}.cls-29{fill:url(#linear-gradient-14);}.cls-30{clip-path:url(#clip-path-16);}.cls-31{fill:url(#linear-gradient-15);}.cls-32{clip-path:url(#clip-path-17);}.cls-33{fill:url(#linear-gradient-16);}.cls-34{clip-path:url(#clip-path-18);}.cls-35{fill:url(#linear-gradient-17);}.cls-36{clip-path:url(#clip-path-19);}.cls-37{fill:url(#linear-gradient-18);}.cls-38{clip-path:url(#clip-path-20);}.cls-39{fill:url(#linear-gradient-19);}.cls-40{clip-path:url(#clip-path-21);}.cls-41{fill:url(#linear-gradient-20);}.cls-42{clip-path:url(#clip-path-22);}.cls-43{fill:url(#linear-gradient-21);}.cls-44{clip-path:url(#clip-path-23);}.cls-45{fill:url(#linear-gradient-22);}.cls-46{clip-path:url(#clip-path-24);}.cls-47{fill:url(#linear-gradient-23);}.cls-48{clip-path:url(#clip-path-25);}.cls-49{fill:url(#linear-gradient-24);}.cls-50{clip-path:url(#clip-path-26);}.cls-51{fill:url(#linear-gradient-25);}.cls-52{clip-path:url(#clip-path-27);}.cls-53{fill:url(#linear-gradient-26);}.cls-54{clip-path:url(#clip-path-28);}.cls-55{fill:url(#linear-gradient-27);}.cls-56{clip-path:url(#clip-path-29);}.cls-57{fill:url(#linear-gradient-28);}.cls-58{clip-path:url(#clip-path-30);}.cls-59{fill:url(#linear-gradient-29);}.cls-60{clip-path:url(#clip-path-31);}.cls-61{fill:url(#linear-gradient-30);}.cls-62{clip-path:url(#clip-path-32);}.cls-63{fill:url(#linear-gradient-31);}.cls-64{clip-path:url(#clip-path-33);}.cls-65{fill:url(#linear-gradient-32);}.cls-66{clip-path:url(#clip-path-34);}.cls-67{fill:url(#linear-gradient-33);}.cls-68{clip-path:url(#clip-path-35);}.cls-69{fill:url(#linear-gradient-34);}.cls-70{clip-path:url(#clip-path-36);}.cls-71{fill:url(#linear-gradient-35);}.cls-72{clip-path:url(#clip-path-37);}.cls-73{fill:url(#linear-gradient-36);}.cls-74{clip-path:url(#clip-path-38);}.cls-75{fill:url(#linear-gradient-37);}.cls-76{clip-path:url(#clip-path-39);}.cls-77{fill:url(#linear-gradient-38);}.cls-78{clip-path:url(#clip-path-40);}.cls-79{fill:url(#linear-gradient-39);}.cls-80{clip-path:url(#clip-path-41);}.cls-81{fill:url(#linear-gradient-40);}.cls-82{clip-path:url(#clip-path-42);}.cls-83{fill:url(#linear-gradient-41);}.cls-84{clip-path:url(#clip-path-43);}.cls-85{fill:url(#linear-gradient-42);}.cls-86{clip-path:url(#clip-path-44);}.cls-87{fill:url(#linear-gradient-43);}.cls-88{clip-path:url(#clip-path-45);}.cls-89{fill:url(#linear-gradient-44);}.cls-90{clip-path:url(#clip-path-46);}.cls-91{fill:url(#linear-gradient-45);}.cls-92{clip-path:url(#clip-path-47);}.cls-93{fill:url(#linear-gradient-46);}.cls-94{clip-path:url(#clip-path-48);}.cls-95{fill:url(#linear-gradient-47);}.cls-96{clip-path:url(#clip-path-49);}.cls-97{fill:url(#linear-gradient-48);}.cls-98{clip-path:url(#clip-path-50);}.cls-99{fill:url(#linear-gradient-49);}.cls-100{clip-path:url(#clip-path-51);}.cls-101{fill:url(#linear-gradient-50);}.cls-102{clip-path:url(#clip-path-52);}.cls-103{fill:url(#linear-gradient-51);}.cls-104{clip-path:url(#clip-path-53);}.cls-105{fill:url(#linear-gradient-52);}.cls-106{clip-path:url(#clip-path-54);}.cls-107{fill:url(#linear-gradient-53);}.cls-108{clip-path:url(#clip-path-55);}.cls-109{fill:url(#linear-gradient-54);}.cls-110{clip-path:url(#clip-path-56);}.cls-111{fill:url(#linear-gradient-55);}.cls-112{clip-path:url(#clip-path-57);}.cls-113{fill:url(#linear-gradient-56);}.cls-114{clip-path:url(#clip-path-58);}.cls-115{fill:url(#linear-gradient-57);}.cls-116{clip-path:url(#clip-path-59);}.cls-117{fill:url(#linear-gradient-58);}.cls-118{clip-path:url(#clip-path-60);}.cls-119{fill:url(#linear-gradient-59);}.cls-120{clip-path:url(#clip-path-61);}.cls-121{fill:url(#linear-gradient-60);}.cls-122{clip-path:url(#clip-path-62);}.cls-123{fill:url(#linear-gradient-61);}.cls-124{clip-path:url(#clip-path-63);}.cls-125{fill:url(#linear-gradient-62);}.cls-126{clip-path:url(#clip-path-64);}.cls-127{fill:url(#linear-gradient-63);}.cls-128{clip-path:url(#clip-path-65);}.cls-129{fill:url(#linear-gradient-64);}.cls-130{clip-path:url(#clip-path-66);}.cls-131{fill:url(#linear-gradient-65);}.cls-132{clip-path:url(#clip-path-67);}.cls-133{fill:url(#linear-gradient-66);}.cls-134{clip-path:url(#clip-path-68);}.cls-135{fill:url(#linear-gradient-67);}.cls-136{clip-path:url(#clip-path-69);}.cls-137{fill:url(#linear-gradient-68);}.cls-138{clip-path:url(#clip-path-70);}.cls-139{fill:url(#linear-gradient-69);}.cls-140{clip-path:url(#clip-path-71);}.cls-141{fill:url(#linear-gradient-70);}.cls-142{clip-path:url(#clip-path-72);}.cls-143{fill:url(#linear-gradient-71);}.cls-144{clip-path:url(#clip-path-73);}.cls-145{fill:url(#linear-gradient-72);}.cls-146{clip-path:url(#clip-path-74);}.cls-147{fill:url(#linear-gradient-73);}.cls-148{clip-path:url(#clip-path-75);}.cls-149{fill:url(#linear-gradient-74);}.cls-150{clip-path:url(#clip-path-76);}.cls-151{fill:url(#linear-gradient-75);}.cls-152{clip-path:url(#clip-path-77);}.cls-153{fill:url(#linear-gradient-76);}.cls-154{clip-path:url(#clip-path-78);}.cls-155{fill:url(#linear-gradient-77);}.cls-156{clip-path:url(#clip-path-79);}.cls-157{fill:url(#linear-gradient-78);}.cls-158{clip-path:url(#clip-path-80);}.cls-159{fill:url(#linear-gradient-79);}.cls-160{clip-path:url(#clip-path-81);}.cls-161{fill:url(#linear-gradient-80);}.cls-162{clip-path:url(#clip-path-82);}.cls-163{fill:url(#linear-gradient-81);}.cls-164{clip-path:url(#clip-path-83);}.cls-165{fill:url(#linear-gradient-82);}.cls-166{clip-path:url(#clip-path-84);}.cls-167{fill:url(#linear-gradient-83);}.cls-168{clip-path:url(#clip-path-85);}.cls-169{fill:url(#linear-gradient-84);}</style><clipPath id="clip-path"><rect class="cls-1" x="-118" y="-78.06" width="362.78" height="204.06"/></clipPath><clipPath id="clip-path-2"><path class="cls-1" d="M116.91,21.22l2,5.42h-4ZM115.75,19l-4.66,12.46h2.11l1.16-3.08h5.11l1.17,3.08h2.19L118.19,19Z"/></clipPath><linearGradient id="linear-gradient" x1="-871.92" y1="564.86" x2="-871.73" y2="564.86" gradientTransform="matrix(164.39, 0, 0, -164.39, 143435.23, 92881.44)" gradientUnits="userSpaceOnUse"><stop offset="0" stop-color="#b80bff"/><stop offset="1" stop-color="#0095ff"/></linearGradient><clipPath id="clip-path-3"><rect class="cls-1" x="124.11" y="19.01" width="2.05" height="12.46"/></clipPath><linearGradient id="linear-gradient-2" x1="-871.92" y1="564.93" x2="-871.73" y2="564.93" gradientTransform="matrix(164.39, 0, 0, -164.39, 143436.27, 92893.23)" xlink:href="#linear-gradient"/><clipPath id="clip-path-4"><path class="cls-1" d="M106.89,29.49a1.27,1.27,0,0,0,0,1.75,1.23,1.23,0,0,0,.88.33,1.26,1.26,0,0,0,.89-.33,1.24,1.24,0,0,0,0-1.75,1.26,1.26,0,0,0-.89-.34,1.24,1.24,0,0,0-.88.34"/></clipPath><linearGradient id="linear-gradient-3" x1="-871.92" y1="564.81" x2="-871.73" y2="564.81" gradientTransform="matrix(164.39, 0, 0, -164.39, 143436.37, 92879.34)" xlink:href="#linear-gradient"/><clipPath id="clip-path-5"><path class="cls-1" d="M19.07,45.12a.73.73,0,0,0,.58.85h0A.69.69,0,0,0,20,46a.7.7,0,0,0,.5-.56.74.74,0,0,0-.58-.85h-.14a.72.72,0,0,0-.71.59m10.21-1a.73.73,0,1,0,.38,1.4h0a.73.73,0,0,0-.21-1.43l-.19,0m-19-3.2a.73.73,0,0,0,.15,1,.75.75,0,0,0,.65.11.81.81,0,0,0,.37-.27.71.71,0,0,0-.16-1,.69.69,0,0,0-.43-.14.72.72,0,0,0-.58.29m26.88-.56a.73.73,0,0,0,.69,1.24.76.76,0,0,0,.26-.15.72.72,0,0,0,.07-1,.7.7,0,0,0-.55-.25.71.71,0,0,0-.47.18m-35.14-16a.71.71,0,0,0-.68.76.73.73,0,0,0,.76.69l.17,0a.73.73,0,0,0-.21-1.43h0M3,15.3H3a.72.72,0,0,0,.39.95.7.7,0,0,0,.49,0,.71.71,0,0,0,.46-.42A.72.72,0,0,0,4,14.91a.69.69,0,0,0-.28-.05A.73.73,0,0,0,3,15.3M8.85,7.15a.73.73,0,0,0-.06,1,.74.74,0,0,0,.76.21.72.72,0,0,0,.27-.15.73.73,0,0,0,.06-1A.71.71,0,0,0,9.34,7a.72.72,0,0,0-.49.19m27-1.28A.73.73,0,0,0,36.66,7,.79.79,0,0,0,37,6.72a.73.73,0,0,0-.16-1,.75.75,0,0,0-.43-.13.72.72,0,0,0-.59.3M17.64,2.32A.73.73,0,0,0,18,3.72h0a.73.73,0,0,0-.21-1.43.64.64,0,0,0-.2,0m9.16.08a.73.73,0,0,0,.59.84.77.77,0,0,0,.34,0,.72.72,0,0,0-.09-1.41h-.12a.73.73,0,0,0-.72.6"/></clipPath><linearGradient id="linear-gradient-4" x1="-871.73" y1="564.17" x2="-871.54" y2="564.17" gradientTransform="matrix(-256.47, 0, 0, 256.47, -223556.29, -144665.9)" xlink:href="#linear-gradient"/><clipPath id="clip-path-6"><path class="cls-1" d="M6.48,37.15a1.57,1.57,0,0,0-.14,2.23h0A1.58,1.58,0,0,0,8,39.85a1.63,1.63,0,0,0,.59-.33,1.59,1.59,0,0,0,.14-2.24,1.6,1.6,0,0,0-1.19-.53,1.55,1.55,0,0,0-1,.4"/></clipPath><linearGradient id="linear-gradient-5" x1="-871.73" y1="564.02" x2="-871.54" y2="564.02" gradientTransform="matrix(-256.47, 0, 0, 256.47, -223552.5, -144614.53)" xlink:href="#linear-gradient"/><clipPath id="clip-path-7"><path class="cls-1" d="M2.54,28.74A1.58,1.58,0,1,0,3,28.67a1.91,1.91,0,0,0-.47.07"/></clipPath><linearGradient id="linear-gradient-6" x1="-871.73" y1="564.17" x2="-871.54" y2="564.17" gradientTransform="matrix(-256.47, 0, 0, 256.47, -223555.11, -144661.5)" xlink:href="#linear-gradient"/><clipPath id="clip-path-8"><path class="cls-1" d="M22.22.66a1.59,1.59,0,1,0,.21,3.17,1.35,1.35,0,0,0,.36-.07,1.58,1.58,0,0,0-.46-3.1h-.11"/></clipPath><linearGradient id="linear-gradient-7" x1="-871.73" y1="564.52" x2="-871.54" y2="564.52" gradientTransform="matrix(-256.47, 0, 0, 256.47, -223562.57, -144779.43)" xlink:href="#linear-gradient"/><clipPath id="clip-path-10"><path class="cls-1" d="M30.62,37.8h0a1.59,1.59,0,0,0,1.17,2.94l.24-.1a1.58,1.58,0,0,0-.7-3,1.63,1.63,0,0,0-.71.16"/></clipPath><linearGradient id="linear-gradient-9" x1="-871.73" y1="563.89" x2="-871.54" y2="563.89" gradientTransform="matrix(-256.47, 0, 0, 256.47, -223551.28, -144579.05)" xlink:href="#linear-gradient"/><clipPath id="clip-path-11"><path class="cls-1" d="M21,40.84a1.59,1.59,0,0,0,1.48,1.69,1.54,1.54,0,0,0,.57-.07,1.58,1.58,0,0,0,1.12-1.41,1.6,1.6,0,0,0-1.48-1.69h-.11A1.58,1.58,0,0,0,21,40.84"/></clipPath><linearGradient id="linear-gradient-10" x1="-871.73" y1="563.9" x2="-871.54" y2="563.9" gradientTransform="matrix(-256.47, 0, 0, 256.47, -223551.06, -144581.72)" xlink:href="#linear-gradient"/><clipPath id="clip-path-12"><path class="cls-1" d="M31.77,8.74a1.59,1.59,0,0,0,.46,2.2,1.58,1.58,0,0,0,2.19-.46,1.59,1.59,0,1,0-2.65-1.74"/></clipPath><linearGradient id="linear-gradient-11" x1="-871.73" y1="564.35" x2="-871.54" y2="564.35" gradientTransform="matrix(-256.47, 0, 0, 256.47, -223560.09, -144727.66)" xlink:href="#linear-gradient"/><clipPath id="clip-path-13"><path class="cls-1" d="M8.06,13.83A1.6,1.6,0,0,0,8.53,16a1.62,1.62,0,0,0,1.33.18,1.65,1.65,0,0,0,.87-.66,1.59,1.59,0,0,0-2.67-1.72"/></clipPath><linearGradient id="linear-gradient-12" x1="-871.73" y1="564.39" x2="-871.54" y2="564.39" gradientTransform="matrix(-256.47, 0, 0, 256.47, -223559.75, -144732.21)" xlink:href="#linear-gradient"/><clipPath id="clip-path-14"><path class="cls-1" d="M15.24,7.31a1.59,1.59,0,0,0,1.19,2.93l.26-.11h0a1.59,1.59,0,1,0-1.45-2.82"/></clipPath><linearGradient id="linear-gradient-13" x1="-871.73" y1="564.45" x2="-871.54" y2="564.45" gradientTransform="matrix(-256.47, 0, 0, 256.47, -223560.78, -144754.84)" xlink:href="#linear-gradient"/><clipPath id="clip-path-15"><path class="cls-1" d="M26.73,40a.73.73,0,0,0-.59.85.74.74,0,0,0,.85.58l.08,0a.73.73,0,0,0,.5-.83.72.72,0,0,0-.71-.59h-.13m-9.41-.25a.73.73,0,0,0,.44.93.8.8,0,0,0,.46,0,.75.75,0,0,0,.47-.45.72.72,0,0,0-.44-.93.67.67,0,0,0-.24,0,.73.73,0,0,0-.69.48m-7.08-5.38a.74.74,0,0,0-.08,1,.69.69,0,0,0,.76.22.6.6,0,0,0,.26-.14.72.72,0,0,0,.09-1,.74.74,0,0,0-.56-.26.78.78,0,0,0-.47.17m25-.08a.72.72,0,0,0,.69,1.24.72.72,0,0,0,.34-1.17.76.76,0,0,0-.55-.25.74.74,0,0,0-.48.18M6.82,26.16a.73.73,0,0,0,.25,1.43l.09,0A.73.73,0,0,0,7,26.14l-.13,0m0-7.86a.73.73,0,0,0,.9.93.75.75,0,0,0,.48-.47.73.73,0,0,0-.46-.92.93.93,0,0,0-.23,0,.74.74,0,0,0-.69.5M12,10.57a.73.73,0,0,0,.7,1.24.76.76,0,0,0,.26-.15.72.72,0,0,0,.07-1,.73.73,0,0,0-.55-.25.74.74,0,0,0-.48.18M28.58,7.52a.73.73,0,0,0,.46.92.66.66,0,0,0,.44,0A.71.71,0,0,0,30,8a.72.72,0,0,0-.45-.92.67.67,0,0,0-.24,0,.74.74,0,0,0-.69.5M20.27,6.45a.73.73,0,0,0,.28,1.43l.07,0a.72.72,0,0,0,.5-.84.73.73,0,0,0-.71-.58h-.14"/></clipPath><linearGradient id="linear-gradient-14" x1="-871.73" y1="564.17" x2="-871.54" y2="564.17" gradientTransform="matrix(-256.47, 0, 0, 256.47, -223556.2, -144666.39)" xlink:href="#linear-gradient"/><clipPath id="clip-path-16"><path class="cls-1" d="M16.71,33.93A1.55,1.55,0,0,0,17.35,36h0a1.5,1.5,0,0,0,1.17.11,1.55,1.55,0,0,0,.27-2.85,1.57,1.57,0,0,0-.72-.18,1.54,1.54,0,0,0-1.37.83"/></clipPath><linearGradient id="linear-gradient-15" x1="-871.73" y1="564.03" x2="-871.54" y2="564.03" gradientTransform="matrix(-256.47, 0, 0, 256.47, -223553.04, -144619.81)" xlink:href="#linear-gradient"/><clipPath id="clip-path-17"><path class="cls-1" d="M10.07,23.42A1.55,1.55,0,0,0,11.56,25a1.43,1.43,0,0,0,.51-.06,1.55,1.55,0,0,0-.39-3h-.06a1.55,1.55,0,0,0-1.55,1.49"/></clipPath><linearGradient id="linear-gradient-16" x1="-871.73" y1="564.24" x2="-871.54" y2="564.24" gradientTransform="matrix(-256.47, 0, 0, 256.47, -223556.73, -144685.02)" xlink:href="#linear-gradient"/><clipPath id="clip-path-18"><path class="cls-1" d="M24.49,11.68a1.55,1.55,0,0,0,1.24,1.81,1.5,1.5,0,0,0,.73,0,1.54,1.54,0,0,0-.16-3h0a1.43,1.43,0,0,0-.29,0,1.55,1.55,0,0,0-1.52,1.26"/></clipPath><linearGradient id="linear-gradient-17" x1="-871.73" y1="564.35" x2="-871.54" y2="564.35" gradientTransform="matrix(-256.47, 0, 0, 256.47, -223559.3, -144725.4)" xlink:href="#linear-gradient"/><clipPath id="clip-path-19"><path class="cls-1" d="M20.57,35.66a.71.71,0,0,0,.55.84h0a.73.73,0,0,0,.36,0,.71.71,0,0,0-.07-1.37l-.14,0a.72.72,0,0,0-.7.57m8.06-1.55h0a.71.71,0,0,0,.47,1.34h0a.71.71,0,0,0,.41-.92.72.72,0,0,0-.66-.46.8.8,0,0,0-.26,0M14.71,32a.72.72,0,0,0,0,1,.7.7,0,0,0,.71.17.67.67,0,0,0,.3-.18.71.71,0,0,0-1-1M11.8,26.15a.7.7,0,0,0-.51.86.69.69,0,0,0,.86.52h0a.7.7,0,0,0,.48-.85.71.71,0,0,0-.69-.54l-.17,0m-.2-6.41a.71.71,0,0,0,.44.91.66.66,0,0,0,.44,0,.7.7,0,0,0,.46-.44.71.71,0,0,0-.44-.91.93.93,0,0,0-.23,0,.71.71,0,0,0-.67.48m4.2-5.93h0a.7.7,0,0,0-.11,1,.68.68,0,0,0,.76.24.57.57,0,0,0,.23-.12.69.69,0,0,0,.12-1,.72.72,0,0,0-.56-.28.68.68,0,0,0-.44.16M29,13a.71.71,0,0,0,.83,1,.68.68,0,0,0,.43-.35.72.72,0,0,0-.3-1,.8.8,0,0,0-.33-.08A.69.69,0,0,0,29,13m-6.4-1.88a.7.7,0,0,0-.64.77.72.72,0,0,0,.78.64l.14,0a.71.71,0,0,0-.21-1.39h-.07"/></clipPath><linearGradient id="linear-gradient-18" x1="-871.73" y1="564.17" x2="-871.54" y2="564.17" gradientTransform="matrix(-256.47, 0, 0, 256.47, -223556.26, -144666.13)" xlink:href="#linear-gradient"/><clipPath id="clip-path-20"><path class="cls-1" d="M11.39,41.77a.1.1,0,0,0,0,.14l3.83,2.17h.05A.09.09,0,0,0,15.4,44a.1.1,0,0,0,0-.14l-3.83-2.17h0a.11.11,0,0,0-.09.05"/></clipPath><linearGradient id="linear-gradient-19" x1="-871.22" y1="563.69" x2="-871.03" y2="563.69" gradientTransform="matrix(-256.47, 0, 0, 256.47, -223394.86, -144524.75)" xlink:href="#linear-gradient"/><clipPath id="clip-path-21"><path class="cls-1" d="M17.6,40.53l-2.38,3.4a.11.11,0,0,0,0,.15h.06a.09.09,0,0,0,.08,0l2.38-3.4a.1.1,0,0,0,0-.14l-.06,0a.09.09,0,0,0-.08,0"/></clipPath><linearGradient id="linear-gradient-20" x1="-871.22" y1="563.7" x2="-871.03" y2="563.7" gradientTransform="matrix(-256.47, 0, 0, 256.47, -223394.81, -144527.98)" xlink:href="#linear-gradient"/><clipPath id="clip-path-22"><path class="cls-1" d="M14.4,39.56a.1.1,0,0,0-.09.12l.9,4.33a.1.1,0,0,0,.1.08h0a.1.1,0,0,0,.08-.12l-.89-4.33a.11.11,0,0,0-.1-.08h0"/></clipPath><linearGradient id="linear-gradient-21" x1="-871.23" y1="563.7" x2="-871.05" y2="563.7" gradientTransform="matrix(-251.64, 0, 0, 251.64, -219191.98, -141806.47)" xlink:href="#linear-gradient"/><clipPath id="clip-path-23"><path class="cls-1" d="M15.21,44a.11.11,0,0,0,.07.13L19,45.22h0a.11.11,0,0,0,.1-.08A.1.1,0,0,0,19.1,45l-3.76-1.14h0a.11.11,0,0,0-.1.07"/></clipPath><linearGradient id="linear-gradient-22" x1="-871.22" y1="563.66" x2="-871.03" y2="563.66" gradientTransform="matrix(-256.47, 0, 0, 256.47, -223394.99, -144515.66)" xlink:href="#linear-gradient"/><clipPath id="clip-path-24"><path class="cls-1" d="M4.49,30.68a.1.1,0,0,0,.08.12l3.73.91h0a.1.1,0,0,0,.1-.08.11.11,0,0,0-.07-.13l-3.74-.9h0a.1.1,0,0,0-.1.08"/></clipPath><linearGradient id="linear-gradient-23" x1="-871.22" y1="563.89" x2="-871.03" y2="563.89" gradientTransform="matrix(-256.47, 0, 0, 256.47, -223394.99, -144587.16)" xlink:href="#linear-gradient"/><clipPath id="clip-path-25"><path class="cls-1" d="M11.82,30.47l-3.53,1a.1.1,0,0,0-.07.12.11.11,0,0,0,.1.08h0l3.52-1a.1.1,0,0,0,.07-.13.1.1,0,0,0-.09-.07h0"/></clipPath><linearGradient id="linear-gradient-24" x1="-871.22" y1="563.89" x2="-871.03" y2="563.89" gradientTransform="matrix(-256.47, 0, 0, 256.47, -223394.88, -144587.54)" xlink:href="#linear-gradient"/><clipPath id="clip-path-26"><path class="cls-1" d="M7.13,27.47a.1.1,0,0,0-.07.12l1.16,4a.11.11,0,0,0,.1.08h0a.09.09,0,0,0,.07-.12l-1.16-4a.1.1,0,0,0-.1-.08h0"/></clipPath><linearGradient id="linear-gradient-25" x1="-871.22" y1="563.91" x2="-871.03" y2="563.91" gradientTransform="matrix(-256.47, 0, 0, 256.47, -223395.48, -144594.67)" xlink:href="#linear-gradient"/><clipPath id="clip-path-27"><path class="cls-1" d="M8.26,31.52a.11.11,0,0,0,0,.14l1.92,2.76a.1.1,0,0,0,.08,0l.06,0a.11.11,0,0,0,0-.15L8.41,31.55a.11.11,0,0,0-.09-.05l-.06,0"/></clipPath><linearGradient id="linear-gradient-26" x1="-871.22" y1="563.86" x2="-871.03" y2="563.86" gradientTransform="matrix(-256.47, 0, 0, 256.47, -223394.79, -144577.66)" xlink:href="#linear-gradient"/><clipPath id="clip-path-28"><path class="cls-1" d="M2.58,25.66a.1.1,0,0,0,0,.14l5.68,5.88a.11.11,0,0,0,.07,0,.11.11,0,0,0,.08,0,.11.11,0,0,0,0-.15L2.72,25.66a.1.1,0,0,0-.14,0"/></clipPath><linearGradient id="linear-gradient-27" x1="-871.22" y1="563.93" x2="-871.03" y2="563.93" gradientTransform="matrix(-256.47, 0, 0, 256.47, -223395.11, -144600.19)" xlink:href="#linear-gradient"/><clipPath id="clip-path-29"><path class="cls-1" d="M24.68,6.75l-3.56.17A.1.1,0,0,0,21,7a.11.11,0,0,0,.1.1h0L24.69,7a.1.1,0,0,0,.1-.11.11.11,0,0,0-.1-.1h0"/></clipPath><linearGradient id="linear-gradient-28" x1="-871.22" y1="564.29" x2="-871.03" y2="564.29" gradientTransform="matrix(-256.47, 0, 0, 256.47, -223395.29, -144714.56)" xlink:href="#linear-gradient"/><clipPath id="clip-path-30"><path class="cls-1" d="M30.46,4.43,24.65,6.76a.11.11,0,0,0-.06.14.11.11,0,0,0,.1.06h0l5.8-2.33a.1.1,0,0,0,0-.2h0"/></clipPath><linearGradient id="linear-gradient-29" x1="-871.22" y1="564.31" x2="-871.03" y2="564.31" gradientTransform="matrix(-256.47, 0, 0, 256.47, -223395.32, -144720.97)" xlink:href="#linear-gradient"/><clipPath id="clip-path-31"><path class="cls-1" d="M22.76,3.11a.1.1,0,0,0,0,.14L24.59,6.9a.11.11,0,0,0,.1.06h0a.11.11,0,0,0,.05-.14L22.9,3.16a.1.1,0,0,0-.09-.06h0"/></clipPath><linearGradient id="linear-gradient-30" x1="-871.22" y1="564.32" x2="-871.03" y2="564.32" gradientTransform="matrix(-256.47, 0, 0, 256.47, -223394.62, -144725.7)" xlink:href="#linear-gradient"/><clipPath id="clip-path-32"><path class="cls-1" d="M24.66,6.76a.09.09,0,0,0-.07.12l1,4.09a.1.1,0,0,0,.1.08h0a.11.11,0,0,0,.07-.13l-1-4.09a.12.12,0,0,0-.1-.08h0"/></clipPath><linearGradient id="linear-gradient-31" x1="-871.22" y1="564.26" x2="-871.03" y2="564.26" gradientTransform="matrix(-256.47, 0, 0, 256.47, -223395.79, -144703.29)" xlink:href="#linear-gradient"/><clipPath id="clip-path-33"><path class="cls-1" d="M18.38,3.32a.11.11,0,0,0,0,.14L24.64,7h.05a.12.12,0,0,0,.09,0,.11.11,0,0,0,0-.14L18.52,3.28h-.05a.1.1,0,0,0-.09,0"/></clipPath><linearGradient id="linear-gradient-32" x1="-871.22" y1="564.32" x2="-871.03" y2="564.32" gradientTransform="matrix(-256.47, 0, 0, 256.47, -223395.16, -144724.5)" xlink:href="#linear-gradient"/><clipPath id="clip-path-34"><path class="cls-1" d="M24.58,6.84a.11.11,0,0,0,.09.12l3.9.66h0a.12.12,0,0,0,.11-.09.11.11,0,0,0-.09-.12l-3.9-.65h0a.12.12,0,0,0-.11.09"/></clipPath><linearGradient id="linear-gradient-33" x1="-871.22" y1="564.29" x2="-871.03" y2="564.29" gradientTransform="matrix(-256.47, 0, 0, 256.47, -223395.47, -144712.84)" xlink:href="#linear-gradient"/><clipPath id="clip-path-35"><path class="cls-1" d="M13.87,17,8.24,18.25a.11.11,0,0,0-.08.12.11.11,0,0,0,.1.08h0l5.62-1.26a.1.1,0,0,0,.08-.12.1.1,0,0,0-.1-.08h0"/></clipPath><linearGradient id="linear-gradient-34" x1="-871.22" y1="564.11" x2="-871.03" y2="564.11" gradientTransform="matrix(-256.47, 0, 0, 256.47, -223395.09, -144658.1)" xlink:href="#linear-gradient"/><clipPath id="clip-path-36"><path class="cls-1" d="M15.61,14.74,13.81,17a.09.09,0,0,0,0,.14s0,0,.06,0a.09.09,0,0,0,.08,0l1.8-2.28a.11.11,0,0,0,0-.15l-.06,0a.09.09,0,0,0-.08,0"/></clipPath><linearGradient id="linear-gradient-35" x1="-871.22" y1="564.14" x2="-871.03" y2="564.14" gradientTransform="matrix(-256.47, 0, 0, 256.47, -223395.63, -144666.55)" xlink:href="#linear-gradient"/><clipPath id="clip-path-37"><path class="cls-1" d="M12.92,11.56a.1.1,0,0,0-.09.12l1,5.43a.1.1,0,0,0,.1.08h0a.1.1,0,0,0,.08-.12l-1-5.42a.12.12,0,0,0-.1-.09h0"/></clipPath><linearGradient id="linear-gradient-36" x1="-871.22" y1="564.17" x2="-871.03" y2="564.17" gradientTransform="matrix(-256.47, 0, 0, 256.47, -223394.39, -144676.84)" xlink:href="#linear-gradient"/><clipPath id="clip-path-38"><path class="cls-1" d="M13.79,17.05l-1,2.45a.11.11,0,0,0,0,.14h0a.11.11,0,0,0,.1-.06L14,17.13a.09.09,0,0,0-.05-.13h0a.11.11,0,0,0-.1.06"/></clipPath><linearGradient id="linear-gradient-37" x1="-871.22" y1="564.1" x2="-871.03" y2="564.1" gradientTransform="matrix(-256.47, 0, 0, 256.47, -223394.99, -144655.01)" xlink:href="#linear-gradient"/><clipPath id="clip-path-39"><path class="cls-1" d="M10.63,15.5a.11.11,0,0,0,0,.14l3.16,1.54h.05a.11.11,0,0,0,.09-.05.09.09,0,0,0-.05-.14l-3.16-1.54,0,0a.13.13,0,0,0-.1.06"/></clipPath><linearGradient id="linear-gradient-38" x1="-871.22" y1="564.13" x2="-871.03" y2="564.13" gradientTransform="matrix(-256.47, 0, 0, 256.47, -223394.91, -144665.77)" xlink:href="#linear-gradient"/><clipPath id="clip-path-40"><path class="cls-1" d="M2.1,20.57a.12.12,0,0,0,0,.15l3.11,1.82h0a.12.12,0,0,0,.09-.05.1.1,0,0,0,0-.14l-3.1-1.82-.05,0a.11.11,0,0,0-.09.05"/></clipPath><linearGradient id="linear-gradient-39" x1="-871.22" y1="564.05" x2="-871.03" y2="564.05" gradientTransform="matrix(-256.47, 0, 0, 256.47, -223394.71, -144638.71)" xlink:href="#linear-gradient"/><clipPath id="clip-path-41"><path class="cls-1" d="M8,15.45l-5.86,5.1a.1.1,0,0,0,0,.14.09.09,0,0,0,.08,0,.07.07,0,0,0,.06,0l5.86-5.09a.11.11,0,0,0-.06-.19.09.09,0,0,0-.07,0"/></clipPath><linearGradient id="linear-gradient-40" x1="-871.22" y1="564.11" x2="-871.03" y2="564.11" gradientTransform="matrix(-256.47, 0, 0, 256.47, -223394.9, -144656.72)" xlink:href="#linear-gradient"/><clipPath id="clip-path-42"><path class="cls-1" d="M2.08,20.62,2,24.41a.1.1,0,0,0,.1.11h0a.1.1,0,0,0,.1-.1l.14-3.79a.11.11,0,0,0-.1-.11h0a.11.11,0,0,0-.11.1"/></clipPath><linearGradient id="linear-gradient-41" x1="-871.22" y1="564.03" x2="-871.03" y2="564.03" gradientTransform="matrix(-256.47, 0, 0, 256.47, -223395.84, -144631.8)" xlink:href="#linear-gradient"/><clipPath id="clip-path-43"><path class="cls-1" d="M3.33,16.23,2.09,20.6a.1.1,0,0,0,.07.13h0a.12.12,0,0,0,.1-.07l1.24-4.38a.09.09,0,0,0-.07-.12h0a.1.1,0,0,0-.1.08"/></clipPath><linearGradient id="linear-gradient-42" x1="-871.22" y1="564.1" x2="-871.03" y2="564.1" gradientTransform="matrix(-256.47, 0, 0, 256.47, -223395.11, -144654.56)" xlink:href="#linear-gradient"/><clipPath id="clip-path-44"><path class="cls-1" d="M40.26,38l-7.4.74a.12.12,0,0,0-.09.12.11.11,0,0,0,.1.09h0l7.39-.74a.11.11,0,0,0,0-.21h0"/></clipPath><linearGradient id="linear-gradient-43" x1="-871.22" y1="563.76" x2="-871.03" y2="563.76" gradientTransform="matrix(-256.47, 0, 0, 256.47, -223394.95, -144547.16)" xlink:href="#linear-gradient"/><clipPath id="clip-path-45"><path class="cls-1" d="M40.19,38.06l-2,2.34a.11.11,0,0,0,0,.15l.07,0a.11.11,0,0,0,.08,0l2.06-2.34a.12.12,0,0,0,0-.15.11.11,0,0,0-.07,0,.12.12,0,0,0-.08,0"/></clipPath><linearGradient id="linear-gradient-44" x1="-871.22" y1="563.75" x2="-871.03" y2="563.75" gradientTransform="matrix(-256.47, 0, 0, 256.47, -223394.83, -144543.01)" xlink:href="#linear-gradient"/><clipPath id="clip-path-46"><path class="cls-1" d="M36.3,35.25a.1.1,0,0,0,0,.14l3.88,2.82.06,0a.09.09,0,0,0,.08,0,.1.1,0,0,0,0-.15l-3.88-2.81a.07.07,0,0,0-.06,0,.1.1,0,0,0-.09,0"/></clipPath><linearGradient id="linear-gradient-45" x1="-871.22" y1="563.79" x2="-871.03" y2="563.79" gradientTransform="matrix(-256.47, 0, 0, 256.47, -223394.78, -144556.8)" xlink:href="#linear-gradient"/><clipPath id="clip-path-47"><rect class="cls-1" x="25.81" y="35.87" width="0.21" height="4.28" transform="translate(-11.41 11.13) rotate(-19.96)"/></clipPath><linearGradient id="linear-gradient-46" x1="-871.22" y1="563.77" x2="-871.03" y2="563.77" gradientTransform="matrix(-256.47, 0, 0, 256.47, -223394.89, -144550.26)" xlink:href="#linear-gradient"/><clipPath id="clip-path-48"><rect class="cls-1" x="23.47" y="34.36" width="0.21" height="3.22" transform="translate(-12.72 59.06) rotate(-89.22)"/></clipPath><linearGradient id="linear-gradient-47" x1="-871.22" y1="563.8" x2="-871.03" y2="563.8" gradientTransform="matrix(-256.47, 0, 0, 256.47, -223394.89, -144561.12)" xlink:href="#linear-gradient"/><clipPath id="clip-path-49"><rect class="cls-1" x="25.11" y="35.41" width="3.19" height="0.21" transform="translate(-9.51 9.77) rotate(-17.66)"/></clipPath><linearGradient id="linear-gradient-48" x1="-871.22" y1="563.81" x2="-871.03" y2="563.81" gradientTransform="matrix(-256.47, 0, 0, 256.47, -223394.96, -144563.35)" xlink:href="#linear-gradient"/><clipPath id="clip-path-50"><rect class="cls-1" x="21.95" y="37.77" width="4.33" height="0.21" transform="translate(-20.73 40.17) rotate(-60.44)"/></clipPath><linearGradient id="linear-gradient-49" x1="-871.22" y1="563.77" x2="-871.03" y2="563.77" gradientTransform="matrix(-256.47, 0, 0, 256.47, -223394.9, -144550.97)" xlink:href="#linear-gradient"/><clipPath id="clip-path-51"><path class="cls-1" d="M39.61,9.32l-5.54,5.32a.11.11,0,0,0,0,.14.1.1,0,0,0,.15,0l5.54-5.32a.11.11,0,0,0,0-.15.1.1,0,0,0-.14,0"/></clipPath><linearGradient id="linear-gradient-50" x1="-871.22" y1="564.2" x2="-871.03" y2="564.2" gradientTransform="matrix(-256.47, 0, 0, 256.47, -223395.25, -144686.99)" xlink:href="#linear-gradient"/><clipPath id="clip-path-52"><path class="cls-1" d="M39.91,9.18l-5.42.3h0a.1.1,0,0,0-.09.11.1.1,0,0,0,.11.1l5.42-.31h0a.1.1,0,0,0,.1-.11.1.1,0,0,0-.1-.09h0"/></clipPath><linearGradient id="linear-gradient-51" x1="-871.2" y1="564.27" x2="-871.01" y2="564.27" gradientTransform="matrix(-256.47, 0, 0, 256.47, -223389.36, -144706.8)" xlink:href="#linear-gradient"/><clipPath id="clip-path-53"><path class="cls-1" d="M37,6.64a.11.11,0,0,0,0,.15l2.64,2.68a.1.1,0,0,0,.14,0,.11.11,0,0,0,0-.15L37.11,6.64a.1.1,0,0,0-.14,0"/></clipPath><linearGradient id="linear-gradient-52" x1="-871.22" y1="564.27" x2="-871.03" y2="564.27" gradientTransform="matrix(-256.47, 0, 0, 256.47, -223394.74, -144708.93)" xlink:href="#linear-gradient"/><clipPath id="clip-path-54"><path class="cls-1" d="M13,4.88,9.82,7.12a.09.09,0,0,0,0,.14.1.1,0,0,0,.08,0l.06,0,3.14-2.24a.11.11,0,0,0,0-.14.09.09,0,0,0-.08,0H13"/></clipPath><linearGradient id="linear-gradient-53" x1="-871.22" y1="564.31" x2="-871.03" y2="564.31" gradientTransform="matrix(-256.47, 0, 0, 256.47, -223394.93, -144720.06)" xlink:href="#linear-gradient"/><clipPath id="clip-path-55"><path class="cls-1" d="M17.1,3.12,13,4.87a.11.11,0,0,0-.05.14.11.11,0,0,0,.1.06h0l4.12-1.75a.1.1,0,0,0,.05-.13.09.09,0,0,0-.09-.06h0"/></clipPath><linearGradient id="linear-gradient-54" x1="-871.22" y1="564.34" x2="-871.03" y2="564.34" gradientTransform="matrix(-256.47, 0, 0, 256.47, -223394.98, -144730.42)" xlink:href="#linear-gradient"/><clipPath id="clip-path-56"><path class="cls-1" d="M13,4.89a.11.11,0,0,0,0,.14l2.23,2.83a.12.12,0,0,0,.08,0,.11.11,0,0,0,.07,0,.1.1,0,0,0,0-.14L13.1,4.9a.12.12,0,0,0-.09,0,.07.07,0,0,0-.06,0"/></clipPath><linearGradient id="linear-gradient-55" x1="-871.22" y1="564.3" x2="-871.03" y2="564.3" gradientTransform="matrix(-256.47, 0, 0, 256.47, -223395.62, -144717.33)" xlink:href="#linear-gradient"/><clipPath id="clip-path-57"><path class="cls-1" d="M38.78,8.15a1.59,1.59,0,0,0-.1,2.24h0a1.57,1.57,0,0,0,1.63.45,1.68,1.68,0,0,0,.61-.34A1.59,1.59,0,0,0,41,8.26a1.55,1.55,0,0,0-1.17-.52,1.58,1.58,0,0,0-1.07.41"/></clipPath><linearGradient id="linear-gradient-56" x1="-871.22" y1="564.25" x2="-871.03" y2="564.25" gradientTransform="matrix(-256.47, 0, 0, 256.47, -223395.33, -144701.24)" xlink:href="#linear-gradient"/><clipPath id="clip-path-58"><path class="cls-1" d="M38.79,10.36l0,0a1.49,1.49,0,0,1-.38-1.07,1.47,1.47,0,0,1,.48-1,1.51,1.51,0,0,1,1.07-.39,1.46,1.46,0,0,1,1,.49,1.48,1.48,0,0,1-.67,2.41,1.54,1.54,0,0,1-.43.06,1.47,1.47,0,0,1-1.06-.44m-.08-2.29a1.7,1.7,0,0,0-.55,1.17,1.68,1.68,0,0,0,.34,1.1h0l.11.12a1.67,1.67,0,0,0,1.25.55,1.73,1.73,0,0,0,.5-.07,1.88,1.88,0,0,0,.64-.37,1.68,1.68,0,0,0,.11-2.38,1.64,1.64,0,0,0-1.17-.55h-.09a1.69,1.69,0,0,0-1.13.44"/></clipPath><linearGradient id="linear-gradient-57" x1="-871.22" y1="564.25" x2="-871.03" y2="564.25" gradientTransform="matrix(-256.47, 0, 0, 256.47, -223395.15, -144701.53)" xlink:href="#linear-gradient"/><clipPath id="clip-path-59"><path class="cls-1" d="M23.07,6.78a1.57,1.57,0,0,0,1.5,1.66,1.69,1.69,0,0,0,.55-.06,1.59,1.59,0,0,0-.39-3.1h-.08a1.58,1.58,0,0,0-1.58,1.51"/></clipPath><linearGradient id="linear-gradient-58" x1="-871.22" y1="564.29" x2="-871.03" y2="564.29" gradientTransform="matrix(-256.47, 0, 0, 256.47, -223395.12, -144715.19)" xlink:href="#linear-gradient"/><clipPath id="clip-path-60"><path class="cls-1" d="M24.57,8.34a1.47,1.47,0,1,1,.52-.06,1.61,1.61,0,0,1-.44.06h-.08M23,6.77a1.7,1.7,0,0,0,1.6,1.78h.09a2.08,2.08,0,0,0,.5-.07A1.72,1.72,0,0,0,26.34,7a1.7,1.7,0,0,0-1.6-1.78h-.09A1.7,1.7,0,0,0,23,6.77"/></clipPath><linearGradient id="linear-gradient-59" x1="-871.22" y1="564.29" x2="-871.03" y2="564.29" gradientTransform="matrix(-256.47, 0, 0, 256.47, -223395.25, -144714.99)" xlink:href="#linear-gradient"/><clipPath id="clip-path-61"><path class="cls-1" d="M24.94,34.39a1.55,1.55,0,0,0,.27,3.09,1.65,1.65,0,0,0,.32-.06,1.55,1.55,0,0,0-.45-3h-.14"/></clipPath><linearGradient id="linear-gradient-60" x1="-871.22" y1="563.8" x2="-871.03" y2="563.8" gradientTransform="matrix(-256.47, 0, 0, 256.47, -223394.88, -144561.27)" xlink:href="#linear-gradient"/><clipPath id="clip-path-62"><path class="cls-1" d="M23.64,36.06A1.44,1.44,0,0,1,25,34.5h.13a1.46,1.46,0,0,1,.93.34,1.5,1.5,0,0,1,.51,1,1.45,1.45,0,0,1-1,1.51,1.33,1.33,0,0,1-.3.06h-.13a1.43,1.43,0,0,1-1.43-1.32m1.29-1.77a1.65,1.65,0,0,0,.14,3.3h.15l.34-.07a1.65,1.65,0,0,0-.48-3.23h-.15"/></clipPath><linearGradient id="linear-gradient-61" x1="-871.22" y1="563.8" x2="-871.03" y2="563.8" gradientTransform="matrix(-256.47, 0, 0, 256.47, -223394.82, -144561.36)" xlink:href="#linear-gradient"/><clipPath id="clip-path-63"><path class="cls-1" d="M7.7,29.93a1.59,1.59,0,0,0,1.16,2.94l.23-.09A1.59,1.59,0,0,0,7.7,29.93"/></clipPath><linearGradient id="linear-gradient-62" x1="-871.22" y1="563.88" x2="-871.03" y2="563.88" gradientTransform="matrix(-256.47, 0, 0, 256.47, -223395.13, -144585.82)" xlink:href="#linear-gradient"/><clipPath id="clip-path-64"><path class="cls-1" d="M7.06,32h0A1.48,1.48,0,0,1,7,30.87,1.45,1.45,0,0,1,7.75,30a1.43,1.43,0,0,1,.64-.15,1.62,1.62,0,0,1,.49.08A1.48,1.48,0,0,1,9,32.69l-.21.08a1.59,1.59,0,0,1-.43.06A1.49,1.49,0,0,1,7.06,32m.6-2.17a1.68,1.68,0,0,0-.86,1,1.65,1.65,0,0,0,.08,1.29A1.69,1.69,0,0,0,8.4,33,1.66,1.66,0,0,0,8.89,33l.24-.1a1.69,1.69,0,0,0,.78-2.26,1.64,1.64,0,0,0-1-.85,1.54,1.54,0,0,0-.56-.1,1.7,1.7,0,0,0-.73.17"/></clipPath><linearGradient id="linear-gradient-63" x1="-871.22" y1="563.88" x2="-871.03" y2="563.88" gradientTransform="matrix(-256.47, 0, 0, 256.47, -223394.8, -144586.33)" xlink:href="#linear-gradient"/><clipPath id="clip-path-65"><path class="cls-1" d="M.74,20.35a1.59,1.59,0,0,0,1.32,1.81,1.85,1.85,0,0,0,.71-.05A1.59,1.59,0,0,0,2.55,19L2.3,19A1.59,1.59,0,0,0,.74,20.35"/></clipPath><linearGradient id="linear-gradient-64" x1="-871.22" y1="564.06" x2="-871.03" y2="564.06" gradientTransform="matrix(-256.47, 0, 0, 256.47, -223395.18, -144643.06)" xlink:href="#linear-gradient"/><clipPath id="clip-path-66"><path class="cls-1" d="M2.08,22.05a1.46,1.46,0,0,1-1-.59A1.48,1.48,0,1,1,2.74,22a1.59,1.59,0,0,1-.43.06.9.9,0,0,1-.23,0m-.77-2.82a1.66,1.66,0,0,0-.67,1.1,1.68,1.68,0,0,0,1.41,1.93l.26,0a2,2,0,0,0,.49-.07A1.73,1.73,0,0,0,4,20.85a1.69,1.69,0,0,0-1.41-1.93l-.27,0a1.64,1.64,0,0,0-1,.33"/></clipPath><linearGradient id="linear-gradient-65" x1="-871.22" y1="564.06" x2="-871.03" y2="564.06" gradientTransform="matrix(-256.47, 0, 0, 256.47, -223395.1, -144643.19)" xlink:href="#linear-gradient"/><clipPath id="clip-path-67"><path class="cls-1" d="M12.53,16.07a1.55,1.55,0,1,0,2.54,1.77,1.55,1.55,0,0,0-.38-2.16,1.54,1.54,0,0,0-.89-.28,1.55,1.55,0,0,0-1.27.67"/></clipPath><linearGradient id="linear-gradient-66" x1="-871.22" y1="564.12" x2="-871.03" y2="564.12" gradientTransform="matrix(-256.47, 0, 0, 256.47, -223395.07, -144662.1)" xlink:href="#linear-gradient"/><clipPath id="clip-path-68"><path class="cls-1" d="M13,18.14a1.42,1.42,0,0,1-.59-.93,1.38,1.38,0,0,1,.24-1.08,1.43,1.43,0,0,1,.93-.6,1.06,1.06,0,0,1,.25,0,1.45,1.45,0,0,1,.42,2.83,1.52,1.52,0,0,1-.42.06,1.48,1.48,0,0,1-.83-.26m.54-2.81a1.61,1.61,0,0,0-1.06.68,1.63,1.63,0,0,0,.41,2.3,1.59,1.59,0,0,0,.94.3,1.73,1.73,0,0,0,.49-.08,1.61,1.61,0,0,0,.87-.63,1.66,1.66,0,0,0-.41-2.3,1.62,1.62,0,0,0-.95-.3l-.29,0"/></clipPath><linearGradient id="linear-gradient-67" x1="-871.22" y1="564.12" x2="-871.03" y2="564.12" gradientTransform="matrix(-256.47, 0, 0, 256.47, -223394.97, -144662.25)" xlink:href="#linear-gradient"/><clipPath id="clip-path-69"><path class="cls-1" d="M14,43.35a1.59,1.59,0,0,0,.86,2.07,1.52,1.52,0,0,0,1.07,0,1.56,1.56,0,0,0,1-.9A1.59,1.59,0,0,0,16,42.49a1.66,1.66,0,0,0-.61-.12,1.6,1.6,0,0,0-1.47,1"/></clipPath><linearGradient id="linear-gradient-68" x1="-871.22" y1="563.67" x2="-871.03" y2="563.67" gradientTransform="matrix(-256.47, 0, 0, 256.47, -223394.95, -144518.98)" xlink:href="#linear-gradient"/><clipPath id="clip-path-70"><path class="cls-1" d="M14.86,45.32a1.48,1.48,0,1,1,1.94-1.93,1.46,1.46,0,0,1,0,1.14,1.49,1.49,0,0,1-.93.84,1.29,1.29,0,0,1-.43.07,1.39,1.39,0,0,1-.57-.12m-1-2a1.68,1.68,0,0,0,.91,2.2h0a1.61,1.61,0,0,0,.65.13,1.66,1.66,0,0,0,.49-.07,1.72,1.72,0,0,0,1.07-1,1.7,1.7,0,0,0,0-1.29,1.66,1.66,0,0,0-.91-.91,1.71,1.71,0,0,0-.65-.13,1.69,1.69,0,0,0-1.56,1"/></clipPath><linearGradient id="linear-gradient-69" x1="-871.22" y1="563.67" x2="-871.03" y2="563.67" gradientTransform="matrix(-256.47, 0, 0, 256.47, -223394.89, -144519.08)" xlink:href="#linear-gradient"/><clipPath id="clip-path-71"><path class="cls-1" d="M39,37.21a1.59,1.59,0,0,0,.39,2.21,1.54,1.54,0,0,0,1.37.22,1.57,1.57,0,0,0,.84-.6h0a1.59,1.59,0,0,0-.39-2.21,1.59,1.59,0,0,0-2.21.38"/></clipPath><linearGradient id="linear-gradient-70" x1="-871.22" y1="563.77" x2="-871.03" y2="563.77" gradientTransform="matrix(-256.47, 0, 0, 256.47, -223395.08, -144548.79)" xlink:href="#linear-gradient"/><clipPath id="clip-path-72"><path class="cls-1" d="M39.42,39.34a1.49,1.49,0,0,1-.36-2.07,1.46,1.46,0,0,1,1-.6,1.43,1.43,0,0,1,1.1.25,1.47,1.47,0,0,1,.39,2l0,0a1.43,1.43,0,0,1-.78.56,1.29,1.29,0,0,1-.43.07,1.46,1.46,0,0,1-.85-.27M40,36.46a1.73,1.73,0,0,0-1.09.69,1.7,1.7,0,0,0,1.38,2.67,1.8,1.8,0,0,0,.5-.08,1.72,1.72,0,0,0,.76-.49v0l.12-.17a1.68,1.68,0,0,0-.41-2.35,1.62,1.62,0,0,0-1-.31l-.29,0"/></clipPath><linearGradient id="linear-gradient-71" x1="-871.22" y1="563.77" x2="-871.03" y2="563.77" gradientTransform="matrix(-256.47, 0, 0, 256.47, -223395.01, -144548.9)" xlink:href="#linear-gradient"/><clipPath id="clip-path-73"><path class="cls-1" d="M12.31,3.55h0a1.59,1.59,0,0,0,1.08,3,1.2,1.2,0,0,0,.33-.13,1.58,1.58,0,0,0-.71-3,1.48,1.48,0,0,0-.7.17"/></clipPath><linearGradient id="linear-gradient-72" x1="-871.22" y1="564.32" x2="-871.03" y2="564.32" gradientTransform="matrix(-256.47, 0, 0, 256.47, -223395.46, -144725.13)" xlink:href="#linear-gradient"/><clipPath id="clip-path-74"><path class="cls-1" d="M11.69,5.63a1.48,1.48,0,0,1,.61-2l0,0a1.49,1.49,0,0,1,2,.66,1.46,1.46,0,0,1,.08,1.14,1.48,1.48,0,0,1-.74.85,1.66,1.66,0,0,1-.31.12,2.09,2.09,0,0,1-.35,0,1.49,1.49,0,0,1-1.33-.82m.7-2.23h0l-.13.06A1.69,1.69,0,0,0,13,6.65a1.81,1.81,0,0,0,.4,0,2.09,2.09,0,0,0,.35-.13A1.69,1.69,0,0,0,13,3.28a1.67,1.67,0,0,0-.62.12"/></clipPath><linearGradient id="linear-gradient-73" x1="-871.22" y1="564.32" x2="-871.03" y2="564.32" gradientTransform="matrix(-256.47, 0, 0, 256.47, -223395.11, -144725.67)" xlink:href="#linear-gradient"/><clipPath id="clip-path-75"><path class="cls-1" d="M31.34,5.16a1.48,1.48,0,1,1,1.11-2.75,1.48,1.48,0,0,1-.12,2.79,1.59,1.59,0,0,1-.43.06,1.54,1.54,0,0,1-.56-.1m-1-2a1.69,1.69,0,0,0,.93,2.2h0a1.77,1.77,0,0,0,.64.12,1.66,1.66,0,0,0,.49-.07,1.69,1.69,0,0,0,1.06-2.28,1.63,1.63,0,0,0-.92-.9,1.58,1.58,0,0,0-.63-.13,1.7,1.7,0,0,0-1.57,1.06"/></clipPath><linearGradient id="linear-gradient-74" x1="-871.22" y1="564.34" x2="-871.03" y2="564.34" gradientTransform="matrix(-256.47, 0, 0, 256.47, -223395.26, -144731.04)" xlink:href="#linear-gradient"/><clipPath id="clip-path-76"><path class="cls-1" d="M13.38,39.29a1.44,1.44,0,0,1-.62-.95A1.42,1.42,0,0,1,13,37.23a1.45,1.45,0,0,1,.94-.62,1.43,1.43,0,0,1,.29,0,1.45,1.45,0,0,1,.82.26h0a1.49,1.49,0,0,1,.37,2,1.45,1.45,0,0,1-.79.59,1.35,1.35,0,0,1-.44.07,1.48,1.48,0,0,1-.83-.26m.51-2.88a1.66,1.66,0,0,0-1.08.71,1.7,1.7,0,0,0-.26,1.26,1.66,1.66,0,0,0,.72,1.08,1.61,1.61,0,0,0,.94.29,1.73,1.73,0,0,0,.5-.07,1.67,1.67,0,0,0,.9-.67,1.7,1.7,0,0,0-.45-2.35l0,0h0a1.66,1.66,0,0,0-.9-.27,1.86,1.86,0,0,0-.33,0"/></clipPath><linearGradient id="linear-gradient-75" x1="-871.22" y1="563.77" x2="-871.03" y2="563.77" gradientTransform="matrix(-256.47, 0, 0, 256.47, -223394.87, -144550.4)" xlink:href="#linear-gradient"/><clipPath id="clip-path-77"><path class="cls-1" d="M6.64,24.64a1.51,1.51,0,0,1-1-.48,1.49,1.49,0,0,1,1.1-2.49h.06a1.48,1.48,0,0,1,.37,2.89,1.31,1.31,0,0,1-.44.07H6.64M5,23.08a1.72,1.72,0,0,0,.44,1.22,1.69,1.69,0,0,0,1.17.54h.08a1.62,1.62,0,0,0,.49-.08,1.72,1.72,0,0,0,1.2-1.54,1.7,1.7,0,0,0-1.62-1.76H6.71A1.69,1.69,0,0,0,5,23.08"/></clipPath><linearGradient id="linear-gradient-76" x1="-871.22" y1="564.02" x2="-871.03" y2="564.02" gradientTransform="matrix(-256.47, 0, 0, 256.47, -223394.97, -144629.61)" xlink:href="#linear-gradient"/><clipPath id="clip-path-78"><path class="cls-1" d="M31.48,34h0a1.42,1.42,0,0,1-.68-.84,1.45,1.45,0,0,1,.11-1.1,1.44,1.44,0,0,1,2.55,1.35,1.46,1.46,0,0,1-.85.71,1.59,1.59,0,0,1-.43.06,1.45,1.45,0,0,1-.67-.17M30.69,32a1.66,1.66,0,0,0,.69,2.24l0,0h0a1.7,1.7,0,0,0,.73.17,1.67,1.67,0,0,0,.49-.08,1.62,1.62,0,0,0,1-.8,1.67,1.67,0,0,0-.69-2.24,1.66,1.66,0,0,0-2.24.69"/></clipPath><linearGradient id="linear-gradient-77" x1="-871.22" y1="563.86" x2="-871.03" y2="563.86" gradientTransform="matrix(-256.47, 0, 0, 256.47, -223394.91, -144577.86)" xlink:href="#linear-gradient"/><clipPath id="clip-path-79"><path class="cls-1" d="M17.83,13.21a1.46,1.46,0,0,1,.8-1.89l0,0a1.45,1.45,0,0,1,1,2.7l-.13,0a1.23,1.23,0,0,1-.42.07,1.44,1.44,0,0,1-1.34-.9m.72-2.08-.09,0h0a1.64,1.64,0,0,0-.81.85,1.69,1.69,0,0,0,0,1.27,1.64,1.64,0,0,0,1.53,1,1.61,1.61,0,0,0,.48-.08l.15-.05a1.65,1.65,0,0,0-1.25-3.06"/></clipPath><linearGradient id="linear-gradient-78" x1="-871.22" y1="564.19" x2="-871.03" y2="564.19" gradientTransform="matrix(-256.47, 0, 0, 256.47, -223394.91, -144684.93)" xlink:href="#linear-gradient"/><clipPath id="clip-path-80"><path class="cls-1" d="M4,34.34a.63.63,0,0,1,.74-.89.58.58,0,0,1,.36.31.6.6,0,0,1,0,.47.63.63,0,0,1-.31.37l-.11,0-.18,0A.62.62,0,0,1,4,34.34m.16-1a.83.83,0,0,0-.34,1.12h0a.82.82,0,0,0,.73.44.73.73,0,0,0,.25,0A.35.35,0,0,0,5,34.78a.8.8,0,0,0,.41-.49.86.86,0,0,0-.06-.63.84.84,0,0,0-.49-.4.73.73,0,0,0-.25,0,.81.81,0,0,0-.39.1"/></clipPath><linearGradient id="linear-gradient-79" x1="-871.22" y1="563.84" x2="-871.03" y2="563.84" gradientTransform="matrix(-256.47, 0, 0, 256.47, -223395.17, -144571.59)" xlink:href="#linear-gradient"/><clipPath id="clip-path-81"><path class="cls-1" d="M24.89,43.9a1.7,1.7,0,0,0-1.59,1.79,1.63,1.63,0,0,0,.56,1.16,1.65,1.65,0,0,0,1.12.43h.1l.4-.07A1.69,1.69,0,0,0,25,43.9h-.09"/></clipPath><linearGradient id="linear-gradient-80" x1="-871.22" y1="563.64" x2="-871.03" y2="563.64" gradientTransform="matrix(-256.47, 0, 0, 256.47, -223394.71, -144510.33)" xlink:href="#linear-gradient"/><clipPath id="clip-path-82"><path class="cls-1" d="M31.86,16.81a1.45,1.45,0,1,1,2-.06,1.43,1.43,0,0,1-.63.39,1.52,1.52,0,0,1-.42.06,1.48,1.48,0,0,1-1-.39m-.2-2.19a1.65,1.65,0,0,0,1.2,2.79,1.59,1.59,0,0,0,.48-.07,1.73,1.73,0,0,0,.72-.44,1.66,1.66,0,0,0-2.4-2.28"/></clipPath><linearGradient id="linear-gradient-81" x1="-871.22" y1="564.14" x2="-871.03" y2="564.14" gradientTransform="matrix(-256.47, 0, 0, 256.47, -223394.99, -144667.89)" xlink:href="#linear-gradient"/><clipPath id="clip-path-83"><path class="cls-1" d="M5.05,12.8h0a1.5,1.5,0,0,1-.38-2.06A1.49,1.49,0,0,1,5.9,10.1a1.54,1.54,0,0,1,.84.26,1.49,1.49,0,0,1,.61,1,1.5,1.5,0,0,1-1,1.69,1.68,1.68,0,0,1-.44.07,1.45,1.45,0,0,1-.84-.27M4.5,10.62a1.73,1.73,0,0,0-.27,1.27,1.71,1.71,0,0,0,1.66,1.38,1.68,1.68,0,0,0,.5-.07,1.69,1.69,0,0,0,1.17-1.92,1.73,1.73,0,0,0-.71-1.09,1.67,1.67,0,0,0-.95-.3,1.71,1.71,0,0,0-1.4.73"/></clipPath><linearGradient id="linear-gradient-82" x1="-871.22" y1="564.21" x2="-871.03" y2="564.21" gradientTransform="matrix(-256.47, 0, 0, 256.47, -223394.87, -144691.2)" xlink:href="#linear-gradient"/><clipPath id="clip-path-84"><path class="cls-1" d="M33,43.62a1.48,1.48,0,0,1,.58-2,1.5,1.5,0,0,1,.71-.18A1.48,1.48,0,0,1,35,44.2a1.69,1.69,0,0,1-.28.12,1.59,1.59,0,0,1-.43.06,1.48,1.48,0,0,1-1.3-.76m.48-2.2a1.69,1.69,0,0,0,.82,3.17,1.66,1.66,0,0,0,.49-.07,1.83,1.83,0,0,0,.32-.14,1.69,1.69,0,1,0-1.63-3"/></clipPath><linearGradient id="linear-gradient-83" x1="-871.22" y1="563.69" x2="-871.03" y2="563.69" gradientTransform="matrix(-256.47, 0, 0, 256.47, -223394.78, -144524.15)" xlink:href="#linear-gradient"/><clipPath id="clip-path-85"><path class="cls-1" d="M12.1,30.88h0a1.45,1.45,0,0,1,.51-2,1.43,1.43,0,0,1,.74-.21,1.45,1.45,0,0,1,1.25.71,1.42,1.42,0,0,1,.16,1.1,1.44,1.44,0,0,1-.66.9,1.83,1.83,0,0,1-.32.14,1.59,1.59,0,0,1-.43.06,1.46,1.46,0,0,1-1.25-.71m.41-2.16A1.66,1.66,0,0,0,11.94,31a1.63,1.63,0,0,0,1.41.8,1.59,1.59,0,0,0,.48-.07,1.46,1.46,0,0,0,.36-.16,1.63,1.63,0,0,0,.57-2.26,1.64,1.64,0,0,0-1.41-.8,1.69,1.69,0,0,0-.84.23"/></clipPath><linearGradient id="linear-gradient-84" x1="-875.45" y1="564.75" x2="-875.26" y2="564.75" gradientTransform="matrix(-42.01, 0, 0, 42.01, -36760.24, -23692.52)" xlink:href="#linear-gradient"/></defs><title>Curately website logo</title><g class="cls-2"><path class="cls-3" d="M43.7,19.7a6.14,6.14,0,0,1,3.17-.8,5.81,5.81,0,0,1,2.54.54A4.63,4.63,0,0,1,51.25,21a5.1,5.1,0,0,1,.91,2.29h-2a3.29,3.29,0,0,0-1.17-1.87,3.41,3.41,0,0,0-2.15-.68,3.53,3.53,0,0,0-2,.58,3.64,3.64,0,0,0-1.34,1.6,6.26,6.26,0,0,0,0,4.71,3.67,3.67,0,0,0,1.34,1.61,3.61,3.61,0,0,0,2,.58,3.23,3.23,0,0,0,3.31-2.55h2a5.15,5.15,0,0,1-.9,2.3A4.71,4.71,0,0,1,49.42,31a5.82,5.82,0,0,1-2.55.53,6.23,6.23,0,0,1-3.17-.78,5.27,5.27,0,0,1-2.1-2.21,7.12,7.12,0,0,1-.74-3.34,7,7,0,0,1,.74-3.32,5.24,5.24,0,0,1,2.1-2.22"/><path class="cls-3" d="M61.88,31.47H60.19L60,30.31a3.44,3.44,0,0,1-2.81,1.26,3.54,3.54,0,0,1-2.6-1,4.42,4.42,0,0,1-1-3.21v-5h1.92v4.82a3.32,3.32,0,0,0,.53,2,1.9,1.9,0,0,0,1.59.69,2,2,0,0,0,1.72-.81A3.52,3.52,0,0,0,60,26.88V22.36h1.93Z"/><path class="cls-3" d="M68.8,24.15H68a2,2,0,0,0-1.73.78,3.33,3.33,0,0,0-.53,2v4.58H63.76V22.36h1.71l.22,1.37a2.79,2.79,0,0,1,1-1,3.34,3.34,0,0,1,1.67-.36h.43Z"/><path class="cls-3" d="M78.39,31.47h-1a1.81,1.81,0,0,1-1.28-.38A1.41,1.41,0,0,1,75.71,30a3.4,3.4,0,0,1-3,1.56,3.91,3.91,0,0,1-2.46-.71,2.3,2.3,0,0,1-.92-1.95,2.58,2.58,0,0,1,1-2.17,4.78,4.78,0,0,1,2.9-.75h2.3v-.56a1.48,1.48,0,0,0-.53-1.2,2.29,2.29,0,0,0-1.48-.43,2.44,2.44,0,0,0-1.38.36,1.46,1.46,0,0,0-.65,1H69.58A2.85,2.85,0,0,1,70.79,23a4.73,4.73,0,0,1,2.8-.76,4.23,4.23,0,0,1,2.83.85,3.07,3.07,0,0,1,1,2.46v3.59c0,.43.21.64.61.64h.37Zm-5.27-4.06a2.33,2.33,0,0,0-1.37.35,1.18,1.18,0,0,0-.48,1,1.14,1.14,0,0,0,.46.94,1.92,1.92,0,0,0,1.23.36,2.55,2.55,0,0,0,1.86-.64,2.3,2.3,0,0,0,.69-1.71v-.32Z"/><path class="cls-3" d="M78.45,24.05V22.36H80V19.81H82v2.55h2.19v1.69H82V28.8a1.07,1.07,0,0,0,.21.75,1,1,0,0,0,.73.23h1.46v1.69H82.52A2.16,2.16,0,0,1,80,29V24.05Z"/><path class="cls-3" d="M87,22.83a4.49,4.49,0,0,1,2.3-.58,5,5,0,0,1,2.33.53,4,4,0,0,1,1.58,1.52,4.66,4.66,0,0,1,.6,2.29,4.59,4.59,0,0,1-.06.73H86.88v.11a2.85,2.85,0,0,0,.75,1.88,2.37,2.37,0,0,0,1.8.7,2.54,2.54,0,0,0,1.49-.42,1.94,1.94,0,0,0,.8-1.18h1.93a3.7,3.7,0,0,1-1.35,2.27,4.15,4.15,0,0,1-2.73.89A5.13,5.13,0,0,1,87.09,31a4.08,4.08,0,0,1-1.64-1.63,4.92,4.92,0,0,1-.58-2.44,5.26,5.26,0,0,1,.56-2.47A4,4,0,0,1,87,22.83m4.06,1.53a2.52,2.52,0,0,0-1.69-.56,2.4,2.4,0,0,0-1.62.58,2.22,2.22,0,0,0-.8,1.54h4.9a2.36,2.36,0,0,0-.79-1.56"/><rect class="cls-3" x="95.35" y="19.01" width="1.92" height="12.46"/><path class="cls-3" d="M102.85,29.39l2.47-7h2.05l-4.13,10.53a8.57,8.57,0,0,1-.59,1.26,1.89,1.89,0,0,1-.66.66,2.22,2.22,0,0,1-1,.22H98.88V33.34h1.35a1.33,1.33,0,0,0,.77-.17,2,2,0,0,0,.44-.76l.37-.87-3.56-9.18h2Z"/></g><g class="cls-4"><rect class="cls-5" x="108.73" y="16.88" width="16.46" height="16.71" transform="translate(3.51 63.25) rotate(-30.7)"/></g><g class="cls-6"><rect class="cls-7" x="121.08" y="19.36" width="8.12" height="11.76" transform="translate(4.65 67.42) rotate(-30.7)"/></g><g class="cls-8"><rect class="cls-9" x="106.1" y="28.69" width="3.36" height="3.34" transform="translate(-0.4 59.28) rotate(-30.7)"/></g><g class="cls-10"><rect class="cls-11" x="-4.44" y="-2.76" width="48.7" height="53.31" transform="translate(-6.26 7.09) rotate(-17.48)"/></g><g class="cls-12"><rect class="cls-13" x="5.35" y="36.29" width="4.36" height="4.19" transform="translate(-11.18 4.04) rotate(-17.48)"/></g><g class="cls-14"><rect class="cls-15" x="0.81" y="28.22" width="4.39" height="4.27" transform="matrix(0.95, -0.3, 0.3, 0.95, -8.98, 2.3)"/></g><g class="cls-16"><rect class="cls-17" x="20.27" y="0.24" width="4.09" height="4.06" transform="translate(0.35 6.81) rotate(-17.48)"/></g><g class="cls-10"><rect class="cls-11" x="-4.44" y="-2.76" width="48.7" height="53.31" transform="translate(-6.26 7.09) rotate(-17.48)"/></g><g class="cls-18"><rect class="cls-19" x="29.1" y="37.17" width="4.45" height="4.26" transform="translate(-10.36 11.23) rotate(-17.48)"/></g><g class="cls-20"><rect class="cls-21" x="20.57" y="38.94" width="4.09" height="4.02" transform="translate(-11.26 8.69) rotate(-17.48)"/></g><g class="cls-22"><rect class="cls-23" x="30.89" y="7.56" width="4.42" height="4.17" transform="translate(-1.37 10.39) rotate(-17.48)"/></g><g class="cls-24"><rect class="cls-25" x="7.18" y="12.64" width="4.42" height="4.17" transform="translate(-3.99 3.5) rotate(-17.48)"/></g><g class="cls-26"><rect class="cls-27" x="13.74" y="6.67" width="4.45" height="4.26" transform="translate(-1.9 5.2) rotate(-17.48)"/></g><g class="cls-28"><rect class="cls-29" x="1.6" y="2.69" width="39.48" height="42.55" transform="translate(-6.21 7.52) rotate(-17.48)"/></g><g class="cls-30"><rect class="cls-31" x="15.92" y="32.64" width="4.32" height="4.07" transform="translate(-9.58 7.03) rotate(-17.48)"/></g><g class="cls-32"><rect class="cls-33" x="9.65" y="21.52" width="3.95" height="3.91" transform="translate(-6.52 4.58) rotate(-17.48)"/></g><g class="cls-34"><rect class="cls-35" x="23.94" y="9.99" width="4.14" height="3.99" transform="translate(-2.4 8.37) rotate(-17.48)"/></g><g class="cls-36"><rect class="cls-37" x="7.81" y="8.8" width="25.96" height="30.02" transform="translate(-6.19 7.35) rotate(-17.48)"/></g><g class="cls-38"><rect class="cls-39" x="11.35" y="41.7" width="4.09" height="2.41" transform="translate(-0.36 0.11) rotate(-0.48)"/></g><g class="cls-40"><rect class="cls-41" x="15.18" y="40.48" width="2.64" height="3.63" transform="matrix(1, -0.01, 0.01, 1, -0.36, 0.14)"/></g><g class="cls-42"><rect class="cls-43" x="14.28" y="39.55" width="1.16" height="4.55" transform="translate(-0.35 0.13) rotate(-0.48)"/></g><g class="cls-44"><rect class="cls-45" x="15.19" y="43.87" width="4" height="1.37" transform="translate(-0.37 0.15) rotate(-0.48)"/></g><g class="cls-46"><rect class="cls-47" x="4.47" y="30.58" width="3.97" height="1.14" transform="translate(-0.26 0.06) rotate(-0.48)"/></g><g class="cls-48"><rect class="cls-49" x="8.2" y="30.45" width="3.76" height="1.27" transform="translate(-0.26 0.09) rotate(-0.48)"/></g><g class="cls-50"><rect class="cls-51" x="7.03" y="27.46" width="1.43" height="4.26" transform="translate(-0.25 0.07) rotate(-0.48)"/></g><g class="cls-52"><rect class="cls-53" x="8.19" y="31.49" width="2.18" height="2.98" transform="translate(-0.28 0.08) rotate(-0.48)"/></g><g class="cls-54"><rect class="cls-55" x="2.51" y="25.6" width="5.96" height="6.13" transform="translate(-0.24 0.05) rotate(-0.48)"/></g><g class="cls-56"><rect class="cls-57" x="21.01" y="6.74" width="3.78" height="0.4" transform="translate(-0.06 0.19) rotate(-0.48)"/></g><g class="cls-58"><rect class="cls-59" x="24.56" y="4.4" width="6.06" height="2.59" transform="matrix(1, -0.01, 0.01, 1, -0.05, 0.23)"/></g><g class="cls-60"><rect class="cls-61" x="22.67" y="3.09" width="2.15" height="3.88" transform="translate(-0.04 0.2) rotate(-0.48)"/></g><g class="cls-62"><rect class="cls-63" x="24.55" y="6.75" width="1.28" height="4.31" transform="translate(-0.07 0.21) rotate(-0.48)"/></g><g class="cls-64"><rect class="cls-65" x="18.34" y="3.24" width="6.48" height="3.75" transform="translate(-0.04 0.18) rotate(-0.48)"/></g><g class="cls-66"><rect class="cls-67" x="24.57" y="6.74" width="4.13" height="0.9" transform="translate(-0.06 0.22) rotate(-0.48)"/></g><g class="cls-68"><rect class="cls-69" x="8.14" y="16.96" width="5.86" height="1.51" transform="translate(-0.15 0.09) rotate(-0.48)"/></g><g class="cls-70"><rect class="cls-71" x="13.76" y="14.69" width="2.05" height="2.51" transform="translate(-0.13 0.13) rotate(-0.48)"/></g><g class="cls-72"><rect class="cls-73" x="12.8" y="11.55" width="1.23" height="5.64" transform="translate(-0.12 0.11) rotate(-0.48)"/></g><g class="cls-74"><rect class="cls-75" x="12.7" y="16.98" width="1.32" height="2.67" transform="translate(-0.15 0.11) rotate(-0.48)"/></g><g class="cls-76"><rect class="cls-77" x="10.6" y="15.43" width="3.41" height="1.78" transform="translate(-0.14 0.1) rotate(-0.48)"/></g><g class="cls-78"><rect class="cls-79" x="2.06" y="20.51" width="3.36" height="2.06" transform="translate(-0.18 0.03) rotate(-0.48)"/></g><g class="cls-80"><rect class="cls-81" x="2.05" y="15.4" width="6.14" height="5.36" transform="translate(-0.15 0.04) rotate(-0.48)"/></g><g class="cls-82"><rect class="cls-83" x="1.93" y="20.52" width="0.38" height="4" transform="translate(-0.19 0.02) rotate(-0.48)"/></g><g class="cls-84"><rect class="cls-85" x="2.05" y="16.14" width="1.51" height="4.59" transform="translate(-0.16 0.02) rotate(-0.48)"/></g><g class="cls-86"><rect class="cls-87" x="32.76" y="37.99" width="7.62" height="1.01" transform="translate(-0.32 0.31) rotate(-0.48)"/></g><g class="cls-88"><rect class="cls-89" x="38.09" y="38.01" width="2.31" height="2.57" transform="translate(-0.33 0.33) rotate(-0.48)"/></g><g class="cls-90"><rect class="cls-91" x="36.26" y="35.19" width="4.14" height="3.06" transform="translate(-0.31 0.32) rotate(-0.48)"/></g><g class="cls-92"><rect class="cls-93" x="25.07" y="35.95" width="1.69" height="4.1" transform="translate(-0.32 0.22) rotate(-0.48)"/></g><g class="cls-94"><rect class="cls-95" x="21.96" y="35.83" width="3.23" height="0.28" transform="translate(-0.3 0.2) rotate(-0.48)"/></g><g class="cls-96"><rect class="cls-97" x="25.15" y="34.92" width="3.11" height="1.19" transform="translate(-0.3 0.23) rotate(-0.48)"/></g><g class="cls-98"><rect class="cls-99" x="22.94" y="35.93" width="2.35" height="3.89" transform="translate(-0.32 0.2) rotate(-0.48)"/></g><g class="cls-100"><rect class="cls-101" x="34" y="9.27" width="5.82" height="5.57" transform="translate(-0.1 0.31) rotate(-0.48)"/></g><g class="cls-102"><rect class="cls-103" x="34.37" y="8.96" width="5.66" height="0.96" transform="translate(-0.63 2.95) rotate(-4.51)"/></g><g class="cls-104"><rect class="cls-105" x="36.92" y="6.6" width="2.89" height="2.91" transform="translate(-0.07 0.32) rotate(-0.48)"/></g><g class="cls-106"><rect class="cls-107" x="9.75" y="4.85" width="3.39" height="2.47" transform="translate(-0.05 0.1) rotate(-0.48)"/></g><g class="cls-108"><rect class="cls-109" x="12.89" y="3.1" width="4.37" height="1.99" transform="translate(-0.03 0.13) rotate(-0.48)"/></g><g class="cls-110"><rect class="cls-111" x="12.89" y="4.85" width="2.48" height="3.05" transform="translate(-0.05 0.12) rotate(-0.48)"/></g><g class="cls-112"><rect class="cls-113" x="38.07" y="7.72" width="3.55" height="3.31" transform="translate(-0.08 0.34) rotate(-0.48)"/></g><g class="cls-114"><rect class="cls-115" x="38.13" y="7.62" width="3.61" height="3.41" transform="translate(-0.08 0.34) rotate(-0.48)"/></g><g class="cls-116"><rect class="cls-117" x="23.01" y="5.26" width="3.28" height="3.21" transform="translate(-0.06 0.21) rotate(-0.48)"/></g><g class="cls-118"><rect class="cls-119" x="22.9" y="5.16" width="3.5" height="3.41" transform="translate(-0.06 0.21) rotate(-0.48)"/></g><g class="cls-120"><rect class="cls-121" x="23.45" y="34.38" width="3.25" height="3.19" transform="translate(-0.3 0.21) rotate(-0.48)"/></g><g class="cls-122"><rect class="cls-123" x="23.34" y="34.27" width="3.47" height="3.33" transform="translate(-0.3 0.21) rotate(-0.48)"/></g><g class="cls-124"><rect class="cls-125" x="6.57" y="29.75" width="3.65" height="3.36" transform="translate(-0.26 0.07) rotate(-0.48)"/></g><g class="cls-126"><rect class="cls-127" x="6.64" y="29.65" width="3.7" height="3.41" transform="translate(-0.26 0.07) rotate(-0.48)"/></g><g class="cls-128"><rect class="cls-129" x="0.59" y="18.99" width="3.43" height="3.22" transform="matrix(1, -0.01, 0.01, 1, -0.17, 0.02)"/></g><g class="cls-130"><rect class="cls-131" x="0.55" y="18.88" width="3.58" height="3.41" transform="translate(-0.17 0.02) rotate(-0.48)"/></g><g class="cls-132"><rect class="cls-133" x="12.03" y="15.39" width="3.55" height="3.2" transform="translate(-0.14 0.12) rotate(-0.48)"/></g><g class="cls-134"><rect class="cls-135" x="12.08" y="15.28" width="3.61" height="3.34" transform="matrix(1, -0.01, 0.01, 1, -0.14, 0.12)"/></g><g class="cls-136"><rect class="cls-137" x="13.61" y="42.35" width="3.63" height="3.24" transform="translate(-0.37 0.13) rotate(-0.48)"/></g><g class="cls-138"><rect class="cls-139" x="13.5" y="42.25" width="3.68" height="3.41" transform="translate(-0.37 0.13) rotate(-0.48)"/></g><g class="cls-140"><rect class="cls-141" x="38.46" y="36.53" width="3.63" height="3.27" transform="matrix(1, -0.01, 0.01, 1, -0.32, 0.34)"/></g><g class="cls-142"><rect class="cls-143" x="38.34" y="36.42" width="3.86" height="3.41" transform="translate(-0.32 0.34) rotate(-0.48)"/></g><g class="cls-144"><rect class="cls-145" x="11.19" y="3.37" width="3.65" height="3.33" transform="translate(-0.04 0.11) rotate(-0.48)"/></g><g class="cls-146"><rect class="cls-147" x="11.07" y="3.26" width="3.88" height="3.41" transform="translate(-0.04 0.11) rotate(-0.48)"/></g><g class="cls-148"><rect class="cls-149" x="29.97" y="2.08" width="3.68" height="3.41" transform="translate(-0.03 0.27) rotate(-0.48)"/></g><g class="cls-150"><rect class="cls-151" x="12.45" y="36.36" width="3.69" height="3.41" transform="translate(-0.32 0.12) rotate(-0.48)"/></g><g class="cls-152"><rect class="cls-153" x="4.99" y="21.45" width="3.46" height="3.41" transform="translate(-0.19 0.06) rotate(-0.48)"/></g><g class="cls-154"><rect class="cls-155" x="30.43" y="31.09" width="3.63" height="3.34" transform="translate(-0.27 0.27) rotate(-0.48)"/></g><g class="cls-156"><rect class="cls-157" x="17.46" y="10.99" width="3.6" height="3.34" transform="translate(-0.11 0.16) rotate(-0.48)"/></g><g class="cls-158"><rect class="cls-159" x="3.61" y="33.21" width="1.82" height="1.68" transform="translate(-0.29 0.04) rotate(-0.48)"/></g><g class="cls-160"><rect class="cls-161" x="23.23" y="43.89" width="3.5" height="3.41" transform="matrix(1, -0.01, 0.01, 1, -0.38, 0.21)"/></g><g class="cls-162"><rect class="cls-163" x="31.02" y="14.09" width="3.68" height="3.34" transform="translate(-0.13 0.28) rotate(-0.48)"/></g><g class="cls-164"><rect class="cls-165" x="4.14" y="9.88" width="3.51" height="3.41" transform="translate(-0.1 0.05) rotate(-0.48)"/></g><g class="cls-166"><rect class="cls-167" x="32.35" y="41.2" width="3.89" height="3.41" transform="translate(-0.36 0.29) rotate(-0.48)"/></g><g class="cls-168"><rect class="cls-169" x="11.06" y="28.03" width="4.4" height="4.21" transform="translate(-8.44 5.38) rotate(-17.48)"/></g></svg>