<?xml version="1.0" encoding="utf-8"?>
<!-- Generator: Adobe Illustrator 25.2.3, SVG Export Plug-In . SVG Version: 6.00 Build 0)  -->
<svg version="1.1" id="Layer_1" xmlns="http://www.w3.org/2000/svg" xmlns:xlink="http://www.w3.org/1999/xlink" x="0px" y="0px"
	 viewBox="0 0 445 520" style="enable-background:new 0 0 445 520;" xml:space="preserve">
<style type="text/css">
	.st0{clip-path:url(#SVGID_2_);}
	.st1{fill:#FFFFFF;}
	.st2{filter:url(#Adobe_OpacityMaskFilter);}
	.st3{fill-opacity:0.498;}
	.st4{mask:url(#mask0_1_);}
	.st5{clip-path:url(#SVGID_4_);}
	.st6{clip-path:url(#SVGID_6_);}
	.st7{opacity:0.5;}
	.st8{clip-path:url(#SVGID_8_);}
	.st9{filter:url(#Adobe_OpacityMaskFilter_1_);}
	.st10{mask:url(#mask1_1_);}
</style>
<g id="surface1">
	<g>
		<defs>
			<rect id="SVGID_1_" x="-0.2" y="0.3" width="447.3" height="519.1"/>
		</defs>
		<clipPath id="SVGID_2_">
			<use xlink:href="#SVGID_1_"  style="overflow:visible;"/>
		</clipPath>
		<g class="st0">
			<path class="st1" d="M-0.2,0.3H447v527.1H-0.2V0.3z"/>
			<path class="st1" d="M-0.2,0.3H447v519.1H-0.2V0.3z"/>
			<path class="st1" d="M-0.2,0.3H447v519.1H-0.2V0.3z"/>
			<g transform="matrix(0.176925,0,0,0.177027,-29.441912,0)">
				
					<image style="overflow:visible;enable-background:new    ;" width="2706" height="2751" id="image5" xlink:href="556D1E9F.jpg"  transform="matrix(1.066 0 0 1.066 -13.5046 1.6309)">
				</image>
			</g>
			<defs>
				<filter id="Adobe_OpacityMaskFilter" filterUnits="userSpaceOnUse" x="-0.4" y="0.3" width="447.7" height="519.1">
					<feColorMatrix  type="matrix" values="1 0 0 0 0  0 1 0 0 0  0 0 1 0 0  0 0 0 1 0"/>
				</filter>
			</defs>
			<mask maskUnits="userSpaceOnUse" x="-0.4" y="0.3" width="447.7" height="519.1" id="mask0_1_">
				<g class="st2">
					<rect x="-0.4" y="0.3" class="st3" width="447.7" height="519.7"/>
				</g>
			</mask>
			<g transform="matrix(1,0,0,1,0.000000000000000028,0)" class="st4">
				<g>
					<defs>
						<rect id="SVGID_3_" x="-0.4" y="0.3" width="447.7" height="519.1"/>
					</defs>
					<clipPath id="SVGID_4_">
						<use xlink:href="#SVGID_3_"  style="overflow:visible;"/>
					</clipPath>
					<g id="surface8" class="st5">
						<g>
							<defs>
								<rect id="SVGID_5_" x="-0.2" y="0.3" width="447.3" height="519.1"/>
							</defs>
							<clipPath id="SVGID_6_">
								<use xlink:href="#SVGID_5_"  style="overflow:visible;"/>
							</clipPath>
							<g class="st6">
								<rect x="-0.4" y="0.3" width="447.7" height="519.1"/>
							</g>
						</g>
					</g>
				</g>
			</g>
		</g>
	</g>
	<rect x="-7.8" y="-3.4" class="st7" width="460.5" height="530.8"/>
	<g>
		<g transform="translate(127.970851, 200.096354)">
			<path class="st1" d="M30.8-7.6h-8.5v21.1h-5V-7.6H8.8v-3.9h21.9V-7.6z"/>
		</g>
	</g>
	<g>
		<g transform="translate(149.128719, 200.096354)">
			<path class="st1" d="M13-3.5c1.8-1.9,4.2-2.8,7.3-2.8c3.1,0,5.6,0.9,7.4,2.8c1.8,1.9,2.6,4.3,2.6,7.3c0,3-0.9,5.4-2.6,7.3
				c-1.8,1.9-4.2,2.8-7.4,2.8c-3.1,0-5.6-0.9-7.3-2.8c-1.8-1.9-2.6-4.3-2.6-7.3C10.4,0.8,11.2-1.6,13-3.5z M16.8,8.7
				c0.9,1.2,2,1.7,3.5,1.7s2.7-0.6,3.5-1.7c0.9-1.2,1.3-2.8,1.3-4.9c0-2.1-0.4-3.7-1.3-4.9c-0.9-1.2-2-1.8-3.5-1.8S17.7-2.2,16.8-1
				c-0.9,1.2-1.3,2.8-1.3,4.9C15.6,5.9,16,7.6,16.8,8.7z"/>
		</g>
	</g>
	<g>
		<g transform="translate(169.709252, 200.096354)">
			<path class="st1" d="M31.8-5.8V8.7c0,1.8,0,3,0,3.7c-0.1,2.9-1,5.2-2.8,6.7s-4.3,2.2-7.4,2.2c-2.8,0-5-0.6-6.6-1.7
				c-1.6-1.1-2.5-2.8-2.7-4.9l0-0.4h4.8l0,0.3c0.1,0.9,0.6,1.6,1.3,2.1c0.8,0.5,1.8,0.8,3.1,0.8c1.6,0,2.8-0.4,3.7-1.2
				c0.9-0.8,1.4-1.9,1.5-3.5c0-0.5,0-1.3,0-2.3v-0.5l-1.4,2.1c-1.2,0.9-2.7,1.3-4.8,1.3c-2.7,0-4.8-0.9-6.4-2.6
				c-1.6-1.8-2.4-4.1-2.4-6.9c0-3.3,0.9-5.9,2.6-7.7c1.8-1.8,4-2.7,6.6-2.7c2,0,3.5,0.4,4.5,1.1l1.3,2v-2.6H31.8z M18.2,8.4
				c0.9,1.2,2,1.7,3.5,1.7s2.7-0.5,3.6-1.5c0.9-1,1.4-2.7,1.4-4.9V3.1c0-2-0.5-3.5-1.4-4.4c-0.9-1-2.1-1.4-3.4-1.4
				c-1.5,0-2.7,0.5-3.7,1.6c-0.9,1.1-1.4,2.7-1.4,4.8C16.9,5.6,17.3,7.2,18.2,8.4z"/>
		</g>
	</g>
	<g>
		<g transform="translate(191.614271, 200.096354)">
			<path class="st1" d="M32,3.5c0,0.7,0,1.3-0.1,1.7H18.2c0.3,3.6,1.8,5.3,4.4,5.3c1.1,0,2-0.3,2.7-0.9c0.7-0.6,1.2-1.4,1.3-2.4h5
				c-0.5,2.2-1.5,3.9-3.2,5c-1.6,1.2-3.6,1.7-5.9,1.7c-2.8,0-5-0.9-6.8-2.6c-1.7-1.7-2.6-4.2-2.6-7.5c0-3,0.9-5.4,2.7-7.3
				C17.7-5.3,20-6.3,23-6.3c2.8,0,5,0.9,6.6,2.8C31.2-1.6,32,0.7,32,3.5z M22.7-2.8c-2.5,0-3.9,1.6-4.4,4.7h8.5
				C26.5-1.2,25.1-2.8,22.7-2.8z"/>
		</g>
	</g>
	<g>
		<g transform="translate(211.243883, 200.096354)">
			<path class="st1" d="M21.8-2.3v8.9c0,0.8,0,1.4,0,1.7c0.1,0.9,0.3,1.6,0.8,1.8c0.5,0.3,1.4,0.4,2.8,0.3v3.3
				c-1,0.2-2.1,0.2-3.3,0.2c-1.8,0-3.1-0.3-3.9-0.9c-0.8-0.6-1.2-1.6-1.3-3c0-0.6-0.1-1.5-0.1-2.8v-9.5h-2.8v-3.3h2.8v-4.7h5v4.7h4
				v3.3H21.8z"/>
		</g>
	</g>
	<g>
		<g transform="translate(223.503906, 200.096354)">
			<path class="st1" d="M34.5-0.9c0.1,0.9,0.1,2,0.1,3.5v10.9h-5V3.3c0-1.1,0-2-0.1-2.7c-0.2-2.3-1.4-3.4-3.7-3.4
				c-1.3,0-2.4,0.6-3.2,1.8c-0.8,1.2-1.2,3.1-1.2,5.6v8.8h-5v-26.8h5v10.6l1.5-2.3c1.3-0.9,2.8-1.3,4.6-1.3c2,0,3.6,0.5,4.8,1.4
				C33.7-3.9,34.3-2.6,34.5-0.9z"/>
		</g>
	</g>
	<g>
		<g transform="translate(244.593854, 200.096354)">
			<path class="st1" d="M35.5,3.5c0,0.7,0,1.3-0.1,1.7H21.7c0.3,3.6,1.8,5.3,4.4,5.3c1.1,0,2-0.3,2.7-0.9C29.6,9,30,8.2,30.2,7.2h5
				c-0.5,2.2-1.5,3.9-3.2,5C30.4,13.4,28.4,14,26,14c-2.8,0-5-0.9-6.8-2.6c-1.7-1.7-2.6-4.2-2.6-7.5c0-3,0.9-5.4,2.7-7.3
				c1.8-1.9,4.2-2.9,7.1-2.9c2.8,0,5,0.9,6.6,2.8C34.7-1.6,35.5,0.7,35.5,3.5z M26.2-2.8c-2.5,0-3.9,1.6-4.4,4.7h8.5
				C30-1.2,28.6-2.8,26.2-2.8z"/>
		</g>
	</g>
	<g>
		<g transform="translate(264.223465, 200.096354)">
			<path class="st1" d="M29.1-6.2c0.6,0,1,0,1.4,0.1v4c-2.1-0.1-3.7,0.3-4.7,1.4c-1,1-1.5,2.8-1.5,5.4v8.8h-5V-5.8h5v3.5l1.5-2.7
				C26.7-5.8,27.8-6.2,29.1-6.2z"/>
		</g>
	</g>
	<g>
		<g transform="translate(277.128754, 200.096354)">
			<path class="st1" d="M24.5,8.8l-3.6,9.1h-4.1l2.9-9.5h4.8V8.8z"/>
		</g>
	</g>
	<g>
		<g transform="translate(285.438239, 200.096354)">
			<path class="st1" d="M18.4,13.5"/>
		</g>
	</g>
	<g>
		<g transform="translate(22.961368, 244.301013)">
			<path class="st1" d="M6.7-10.2H3.6V11c0,1,0,1.9,0,2.5c0.1,2.4,1.4,3,3.3,3c0.7,0,1.5,0,2.2-0.1v-2.2c-1.7,0.2-2.3-0.2-2.4-1.4
				c0-0.6,0-1.2,0-1.8V-10.2z"/>
		</g>
	</g>
	<g>
		<g transform="translate(31.349798, 244.301013)">
			<path class="st1" d="M20,6.3c0-5.6-2.9-9.6-8.2-9.6c-5.3,0-9.1,3.9-9.1,10.2c0,6.8,3.7,10,8.7,10c3.9,0,7.6-2.1,8.4-6.7h-3.3
				c-0.4,2.8-2.5,4.3-5,4.3c-2.8,0-5.2-1.7-5.5-6.8H20C20,7.1,20,6.6,20,6.3z M11.8-0.9c3.2,0,4.9,2.3,5.1,6.3H6.1
				C6.5,1.3,8.7-0.9,11.8-0.9z"/>
		</g>
	</g>
	<g>
		<g transform="translate(49.994534, 244.301013)">
			<path class="st1" d="M9.3-0.2h3.6v-2.4H9.3v-4.5H6.1v4.5H3.6v2.4h2.6v11.2c0,1.1,0,1.9,0,2.4c0.2,2.4,1.4,3.4,3.8,3.4
				c0.9,0,1.7,0,2.6-0.2v-2.3c-2.4,0.3-3.2-0.1-3.3-2c0-0.5,0-0.8,0-1.5V-0.2z"/>
		</g>
	</g>
	<g>
		<g transform="translate(60.624416, 244.301013)">
			<path class="st1" d="M8-1.2l0.4-9H5.1l0.4,9H8z"/>
		</g>
	</g>
	<g>
		<g transform="translate(66.6016, 244.301013)">
			<path class="st1" d="M12.2-3.3c-3.9,0-6.6,2.1-6.6,5.6c0,3.4,2.8,4.8,6.2,5.7c3.2,0.9,4.5,1.8,4.5,3.7c0,1.8-1.7,2.8-3.7,2.8
				c-2.2,0-4-1-4.5-3.8H4.8c0.6,4.3,3.6,6.2,7.5,6.2c4.1,0,7.1-1.8,7.1-5.4c0-3.3-2.1-5-6.5-6.2C10.4,4.6,8.8,3.9,8.8,2
				c0-1.7,1-2.9,3.2-2.9c2.2,0,3.6,1.3,4.1,3.6h3.3C18.9-0.8,16.5-3.3,12.2-3.3z"/>
		</g>
	</g>
	<g>
		<g transform="translate(82.189825, 244.301013)">
			<path class="st1" d="M5,16.4"/>
		</g>
	</g>
	<g>
		<g transform="translate(89.525459, 244.301013)">
			<path class="st1" d="M13.7-3.3c-3.9,0-6.6,2.1-6.6,5.6c0,3.4,2.8,4.8,6.2,5.7c3.2,0.9,4.5,1.8,4.5,3.7c0,1.8-1.7,2.8-3.7,2.8
				c-2.2,0-4-1-4.5-3.8H6.3c0.6,4.3,3.6,6.2,7.5,6.2c4.1,0,7.1-1.8,7.1-5.4c0-3.3-2.1-5-6.5-6.2c-2.6-0.7-4.2-1.4-4.2-3.4
				c0-1.7,1-2.9,3.2-2.9c2.2,0,3.6,1.3,4.1,3.6h3.3C20.4-0.8,18-3.3,13.7-3.3z"/>
		</g>
	</g>
	<g>
		<g transform="translate(105.113684, 244.301013)">
			<path class="st1" d="M25.3,2.3C25-1,22.7-3.3,18.5-3.3c-2,0-3.4,0.3-5,1.6l-1.2,2.2v-10.9H9.2v26.8h3.1V8c0-6.5,2.5-8.7,5.5-8.8
				c3-0.1,4.2,1.7,4.4,3.9c0.1,1,0.1,1.8,0.1,2.8v10.6h3.1V5.6C25.4,4.1,25.4,3.3,25.3,2.3z"/>
		</g>
	</g>
	<g>
		<g transform="translate(125.252722, 244.301013)">
			<path class="st1" d="M18.4-3.3c-6.5,0-9.5,4.7-9.5,10.1c0,5.4,3,10.1,9.5,10.1s9.5-4.7,9.5-10.1C27.9,1.4,24.9-3.3,18.4-3.3z
				 M18.4,14.5c-3.9,0-6.1-3.2-6.1-7.7c0-4.5,2.2-7.7,6.1-7.7c3.9,0,6.1,3.2,6.1,7.7C24.5,11.3,22.3,14.5,18.4,14.5z"/>
		</g>
	</g>
	<g>
		<g transform="translate(145.154024, 244.301013)">
			<path class="st1" d="M37.3-2.8H34l-4.5,16.1L25.3-2.8h-3.9l-4.2,16.2L12.7-2.8H9.2l6.1,19.2H19l4.3-16.1l4.3,16.1h3.7L37.3-2.8z"
				/>
		</g>
	</g>
	<g>
		<g transform="translate(171.813626, 244.301013)">
			<path class="st1" d="M10.9,16.4"/>
		</g>
	</g>
	<g>
		<g transform="translate(179.149261, 244.301013)">
			<path class="st1" d="M17.8-0.2h3.6v-2.4h-3.6v-4.5h-3.1v4.5h-2.6v2.4h2.6v11.2c0,1.1,0,1.9,0,2.4c0.2,2.4,1.4,3.4,3.8,3.4
				c0.9,0,1.7,0,2.6-0.2v-2.3c-2.4,0.3-3.2-0.1-3.3-2c0-0.5,0-0.8,0-1.5V-0.2z"/>
		</g>
	</g>
	<g>
		<g transform="translate(189.779143, 244.301013)">
			<path class="st1" d="M30.9,2.3c-0.3-3.4-2.6-5.6-6.8-5.6c-2,0-3.4,0.3-5,1.6l-1.2,2.2v-10.9h-3.1v26.8h3.1V8
				c0-6.5,2.5-8.7,5.5-8.8c3-0.1,4.2,1.7,4.4,3.9c0.1,1,0.1,1.8,0.1,2.8v10.6H31V5.6C31,4.1,31,3.3,30.9,2.3z"/>
		</g>
	</g>
	<g>
		<g transform="translate(209.918181, 244.301013)">
			<path class="st1" d="M31.8,6.3c0-5.6-2.9-9.6-8.2-9.6c-5.3,0-9.1,3.9-9.1,10.2c0,6.8,3.7,10,8.7,10c3.9,0,7.6-2.1,8.4-6.7h-3.3
				c-0.4,2.8-2.5,4.3-5,4.3c-2.8,0-5.2-1.7-5.5-6.8h13.9C31.8,7.1,31.8,6.6,31.8,6.3z M23.5-0.9c3.2,0,4.9,2.3,5.1,6.3H17.9
				C18.3,1.3,20.5-0.9,23.5-0.9z"/>
		</g>
	</g>
	<g>
		<g transform="translate(228.562906, 244.301013)">
			<path class="st1" d="M14.6,16.4"/>
		</g>
	</g>
	<g>
		<g transform="translate(235.898552, 244.301013)">
			<path class="st1" d="M43.3-2.8H40l-4.5,16.1L31.3-2.8h-3.9l-4.2,16.2L18.7-2.8h-3.6l6.1,19.2H25l4.3-16.1l4.3,16.1h3.7L43.3-2.8z
				"/>
		</g>
	</g>
	<g>
		<g transform="translate(262.558143, 244.301013)">
			<path class="st1" d="M27.5-3.3C21-3.3,18,1.4,18,6.8c0,5.4,3,10.1,9.5,10.1S37,12.2,37,6.8C37,1.4,34-3.3,27.5-3.3z M27.5,14.5
				c-3.9,0-6.1-3.2-6.1-7.7c0-4.5,2.2-7.7,6.1-7.7c3.9,0,6.1,3.2,6.1,7.7C33.6,11.3,31.4,14.5,27.5,14.5z"/>
		</g>
	</g>
	<g>
		<g transform="translate(282.459444, 244.301013)">
			<path class="st1" d="M28.4-3.2c-0.9,0-1.9,0.3-2.7,0.9L24,0.2v-3h-3.1v19.2H24V5.5c0-4.4,2.5-6.3,5.7-6.1V-3
				C29.3-3.1,28.9-3.2,28.4-3.2z"/>
		</g>
	</g>
	<g>
		<g transform="translate(293.666661, 244.301013)">
			<path class="st1" d="M24.6-10.2h-3.1V11c0,1,0,1.9,0,2.5c0.1,2.4,1.4,3,3.3,3c0.7,0,1.5,0,2.2-0.1v-2.2c-1.7,0.2-2.3-0.2-2.4-1.4
				c0-0.6,0-1.2,0-1.8V-10.2z"/>
		</g>
	</g>
	<g>
		<g transform="translate(302.055091, 244.301013)">
			<path class="st1" d="M38.9-10.2h-3.1v10.1L34.5-2c-1-0.8-3-1.3-4.6-1.3c-5,0-9.4,3.3-9.4,10.4c0,5.6,3.1,9.8,8.7,9.8
				c2,0,4-0.6,5.1-1.5l1.4-2.1v3.1h3.1V-10.2z M29.8,14.5c-3.8,0-5.8-3.4-5.8-7.8c0-5,2.6-7.6,6-7.6c2.7,0,5.9,1.9,5.9,6.8v1
				C35.8,12.5,32.9,14.5,29.8,14.5z"/>
		</g>
	</g>
	<g>
		<g transform="translate(322.941268, 244.301013)">
			<path class="st1" d="M20.9,16.4"/>
		</g>
	</g>
	<g>
		<g transform="translate(330.276892, 244.301013)">
			<path class="st1" d="M27.8-0.2h3.6v-2.4h-3.6v-4.5h-3.1v4.5h-2.6v2.4h2.6v11.2c0,1.1,0,1.9,0,2.4c0.2,2.4,1.4,3.4,3.8,3.4
				c0.9,0,1.7,0,2.6-0.2v-2.3c-2.4,0.3-3.2-0.1-3.3-2c0-0.5,0-0.8,0-1.5V-0.2z"/>
		</g>
	</g>
	<g>
		<g transform="translate(340.906774, 244.301013)">
			<path class="st1" d="M40.9,2.3C40.6-1,38.2-3.3,34-3.3c-2,0-3.4,0.3-5,1.6l-1.2,2.2v-10.9h-3.1v26.8h3.1V8c0-6.5,2.5-8.7,5.5-8.8
				c3-0.1,4.2,1.7,4.4,3.9c0.1,1,0.1,1.8,0.1,2.8v10.6h3.1V5.6C40.9,4.1,40.9,3.3,40.9,2.3z"/>
		</g>
	</g>
	<g>
		<g transform="translate(361.045823, 244.301013)">
			<path class="st1" d="M37.1,16.4h3.1c-0.3-2.1-0.4-3.4-0.4-4.9V4.3c0-0.8,0-1.8-0.1-2.5c-0.3-3.1-2.2-5.1-6.8-5.1
				c-4.2,0-7.1,2.4-7.4,6.4h3.3c0.2-2.6,1.5-4.1,4.1-4.1c2.6,0,3.6,1.2,3.7,2.9c0.1,0.7,0.1,1.5,0.1,2.3v0.5h-1.2
				c-7.5,0-10.8,2.2-10.8,6.6c0,3.5,2.7,5.5,6.2,5.5c1.8,0,3.5-0.3,4.8-1.2l1-2.1L37.1,16.4z M31.9,14.5c-2.4,0-3.8-1-3.8-3.3
				c0-3.3,3.3-4.4,8.6-4v2C36.7,12.6,34.8,14.5,31.9,14.5z"/>
		</g>
	</g>
	<g>
		<g transform="translate(379.079259, 244.301013)">
			<path class="st1" d="M31-0.2h3.6v-2.4H31v-4.5h-3.1v4.5h-2.6v2.4h2.6v11.2c0,1.1,0,1.9,0,2.4c0.2,2.4,1.4,3.4,3.8,3.4
				c0.9,0,1.7,0,2.6-0.2v-2.3c-2.4,0.3-3.2-0.1-3.3-2c0-0.5,0-0.8,0-1.5V-0.2z"/>
		</g>
	</g>
	<g>
		<g transform="translate(389.698487, 244.301013)">
			<path class="st1" d="M25.3,16.4"/>
		</g>
	</g>
	<g>
		<g transform="translate(38.601576, 288.505672)">
			<path class="st1" d="M2.1,19.3"/>
		</g>
	</g>
	<g>
		<g transform="translate(45.929997, 288.505672)">
			<path class="st1" d="M20.9,0.1h-3.4L11.9,17L6.1,0.1H2.6l7.6,20.2L10,21c-1,2.5-2.2,3.4-4.2,3.4c-0.3,0-0.6,0-1.1,0v2.5
				c0.5,0.1,0.9,0.1,1.6,0.1c3.1,0,5.2-1.9,6.7-6L20.9,0.1z"/>
		</g>
	</g>
	<g>
		<g transform="translate(63.352134, 288.505672)">
			<path class="st1" d="M14.3-0.4c-6.5,0-9.5,4.7-9.5,10.1c0,5.4,3,10.1,9.5,10.1s9.5-4.7,9.5-10.1C23.9,4.3,20.9-0.4,14.3-0.4z
				 M14.3,17.4c-3.9,0-6.1-3.2-6.1-7.7c0-4.5,2.2-7.7,6.1-7.7c3.9,0,6.1,3.2,6.1,7.7C20.5,14.2,18.2,17.4,14.3,17.4z"/>
		</g>
	</g>
	<g>
		<g transform="translate(83.253435, 288.505672)">
			<path class="st1" d="M23.7,0.1h-3.1v8.4c0,6.5-2.4,8.8-5.4,8.8c-2.6,0-4.2-1.5-4.5-3.7c-0.1-1-0.1-2-0.1-2.6V0.1H7.4v11.5
				c0,1.6,0,2.3,0.2,3.3c0.4,2.6,2.8,4.9,6.7,4.9c2,0,3.4-0.3,5-1.5l1.2-2.2v3.3h3.1V0.1z"/>
		</g>
	</g>
	<g>
		<g transform="translate(103.358508, 288.505672)">
			<path class="st1" d="M10.8,1.8l0.4-9H7.9l0.4,9H10.8z"/>
		</g>
	</g>
	<g>
		<g transform="translate(109.335691, 288.505672)">
			<path class="st1" d="M17-0.3c-0.9,0-1.9,0.3-2.7,0.9l-1.7,2.6v-3H9.4v19.2h3.1V8.4c0-4.4,2.5-6.3,5.7-6.1V0
				C17.9-0.2,17.5-0.3,17-0.3z"/>
		</g>
	</g>
	<g>
		<g transform="translate(120.542908, 288.505672)">
			<path class="st1" d="M25.9,9.2c0-5.6-2.9-9.6-8.2-9.6c-5.3,0-9.1,3.9-9.1,10.2c0,6.8,3.7,10,8.7,10c3.9,0,7.6-2.1,8.4-6.7h-3.3
				c-0.4,2.8-2.5,4.3-5,4.3c-2.8,0-5.2-1.7-5.5-6.8h13.9C25.9,10,25.9,9.5,25.9,9.2z M17.6,2c3.2,0,4.9,2.3,5.1,6.3H12
				C12.4,4.2,14.6,2,17.6,2z"/>
		</g>
	</g>
	<g>
		<g transform="translate(139.18591, 288.505672)">
			<path class="st1" d="M8.7,19.3"/>
		</g>
	</g>
	<g>
		<g transform="translate(146.521545, 288.505672)">
			<path class="st1" d="M9.2,19.3"/>
		</g>
	</g>
	<g>
		<g transform="translate(153.85718, 288.505672)">
			<path class="st1" d="M9.7,19.3"/>
		</g>
	</g>
	<g>
		<g transform="translate(161.192814, 288.505672)">
			<path class="st1" d="M10.2,19.3"/>
		</g>
	</g>
	<g>
		<g transform="translate(168.528449, 288.505672)">
			<path class="st1" d="M10.7,19.3"/>
		</g>
	</g>
	<g>
		<g transform="translate(175.864083, 288.505672)">
			<path class="st1" d="M11.2,19.3"/>
		</g>
	</g>
	<g>
		<g transform="translate(183.199718, 288.505672)">
			<path class="st1" d="M11.6,19.3"/>
		</g>
	</g>
	<g>
		<g transform="translate(190.535352, 288.505672)">
			<path class="st1" d="M12.1,19.3"/>
		</g>
	</g>
	<g>
		<g transform="translate(197.870987, 288.505672)">
			<path class="st1" d="M12.6,19.3"/>
		</g>
	</g>
	<g>
		<g transform="translate(205.206621, 288.505672)">
			<path class="st1" d="M13.1,19.3"/>
		</g>
	</g>
	<g>
		<g transform="translate(212.542256, 288.505672)">
			<path class="st1" d="M13.6,19.3"/>
		</g>
	</g>
	<g>
		<g transform="translate(219.87789, 288.505672)">
			<path class="st1" d="M14.1,19.3"/>
		</g>
	</g>
	<g>
		<g transform="translate(227.213525, 288.505672)">
			<path class="st1" d="M14.5,19.3"/>
		</g>
	</g>
	<g>
		<g transform="translate(234.54916, 288.505672)">
			<path class="st1" d="M15,19.3"/>
		</g>
	</g>
	<g>
		<g transform="translate(241.884794, 288.505672)">
			<path class="st1" d="M15.5,19.3"/>
		</g>
	</g>
	<g>
		<g transform="translate(249.220429, 288.505672)">
			<path class="st1" d="M16,19.3"/>
		</g>
	</g>
	<g>
		<g transform="translate(256.556063, 288.505672)">
			<path class="st1" d="M16.5,19.3"/>
		</g>
	</g>
	<g>
		<g transform="translate(263.891698, 288.505672)">
			<path class="st1" d="M17,19.3"/>
		</g>
	</g>
	<g>
		<g transform="translate(271.227332, 288.505672)">
			<path class="st1" d="M17.4,19.3"/>
		</g>
	</g>
	<g>
		<g transform="translate(278.562967, 288.505672)">
			<path class="st1" d="M17.9,19.3"/>
		</g>
	</g>
	<g>
		<g transform="translate(285.898601, 288.505672)">
			<path class="st1" d="M18.4,19.3"/>
		</g>
	</g>
	<g>
		<g transform="translate(293.234236, 288.505672)">
			<path class="st1" d="M18.9,19.3"/>
		</g>
	</g>
	<g>
		<g transform="translate(300.56987, 288.505672)">
			<path class="st1" d="M19.4,19.3"/>
		</g>
	</g>
	<g>
		<g transform="translate(307.905505, 288.505672)">
			<path class="st1" d="M19.9,19.3"/>
		</g>
	</g>
	<g>
		<g transform="translate(315.24114, 288.505672)">
			<path class="st1" d="M20.4,19.3"/>
		</g>
	</g>
	<g>
		<g transform="translate(322.576774, 288.505672)">
			<path class="st1" d="M20.8,19.3"/>
		</g>
	</g>
	<g>
		<g transform="translate(329.912409, 288.505672)">
			<path class="st1" d="M21.3,19.3"/>
		</g>
	</g>
	<g>
		<g transform="translate(337.248032, 288.505672)">
			<path class="st1" d="M21.8,19.3"/>
		</g>
	</g>
	<g>
		<g transform="translate(344.583678, 288.505672)">
			<path class="st1" d="M22.3,19.3"/>
		</g>
	</g>
	<g>
		<g transform="translate(351.919324, 288.505672)">
			<path class="st1" d="M22.8,19.3"/>
		</g>
	</g>
	<g>
		<g transform="translate(359.25497, 288.505672)">
			<path class="st1" d="M23.3,19.3"/>
		</g>
	</g>
	<g>
		<g transform="translate(366.590616, 288.505672)">
			<path class="st1" d="M23.7,19.3"/>
		</g>
	</g>
	<g>
		<g transform="translate(373.917798, 288.505672)">
			<path class="st1" d="M27.9,15.2c-1.3,0-2.3,1-2.3,2.3c0,1.3,1,2.3,2.3,2.3s2.3-1,2.3-2.3C30.2,16.2,29.2,15.2,27.9,15.2z"/>
		</g>
	</g>
	<g>
		<g transform="translate(139.150786, 341.701109)">
			<path class="st1" d="M8.7,22.8"/>
		</g>
		<g transform="translate(150.049764, 341.701109)">
			<path class="st1" d="M9.5,22.8"/>
		</g>
		<g transform="translate(160.948741, 341.701109)">
			<path class="st1" d="M10.2,22.8"/>
		</g>
		<g transform="translate(171.847719, 341.701109)">
			<path class="st1" d="M10.9,22.8"/>
		</g>
		<g transform="translate(182.746696, 341.701109)">
			<path class="st1" d="M11.6,22.8"/>
		</g>
		<g transform="translate(193.645673, 341.701109)">
			<path class="st1" d="M12.3,22.8"/>
		</g>
		<g transform="translate(204.544651, 341.701109)">
			<path class="st1" d="M13,22.8"/>
		</g>
		<g transform="translate(215.443628, 341.701109)">
			<path class="st1" d="M13.8,22.8"/>
		</g>
		<g transform="translate(226.342605, 341.701109)">
			<path class="st1" d="M14.5,22.8"/>
		</g>
		<g transform="translate(237.241583, 341.701109)">
			<path class="st1" d="M15.2,22.8"/>
		</g>
		<g transform="translate(248.14056, 341.701109)">
			<path class="st1" d="M15.9,22.8"/>
		</g>
		<g transform="translate(259.039537, 341.701109)">
			<path class="st1" d="M16.6,22.8"/>
		</g>
		<g transform="translate(269.938515, 341.701109)">
			<path class="st1" d="M17.4,22.8"/>
		</g>
	</g>
	<g>
		<defs>
			<rect id="SVGID_7_" x="148.1" y="276.4" width="241.2" height="39.9"/>
		</defs>
		<clipPath id="SVGID_8_">
			<use xlink:href="#SVGID_7_"  style="overflow:visible;"/>
		</clipPath>
		<g class="st8">
			<defs>
				<filter id="Adobe_OpacityMaskFilter_1_" filterUnits="userSpaceOnUse" x="148.1" y="276.4" width="322.7" height="39.9">
					<feColorMatrix  type="matrix" values="1 0 0 0 0  0 1 0 0 0  0 0 1 0 0  0 0 0 1 0"/>
				</filter>
			</defs>
			<mask maskUnits="userSpaceOnUse" x="148.1" y="276.4" width="322.7" height="39.9" id="mask1_1_">
				<g transform="matrix(1,0,0,1,0,0.000000000000056843)" class="st9">
					
						<image style="overflow:visible;enable-background:new    ;" width="601" height="74" id="image31_1_" xlink:href="556D1E9D.jpg"  transform="matrix(0.5369 0 0 0.5396 148.0516 276.4457)">
					</image>
				</g>
			</mask>
			<g transform="matrix(0.503643,0,0,0.506238,139.308066,259.065877)" class="st10">
				<g style="enable-background:new    ;">
					
						<image style="overflow:visible;" width="601" height="74" id="image30" xlink:href="556D1EA3.jpg"  transform="matrix(1.066 0 0 1.066 17.3605 34.3314)">
					</image>
				</g>
			</g>
		</g>
	</g>
</g>
</svg>
