<?xml version="1.0" encoding="UTF-8"?>
<svg xmlns="http://www.w3.org/2000/svg" xmlns:xlink="http://www.w3.org/1999/xlink" width="651pt" height="479.999983pt" viewBox="0 0 651 479.999983" version="1.2">
<defs>
<clipPath id="clip1">
  <path d="M 53 188 L 328.742188 188 L 328.742188 480 L 53 480 Z M 53 188 "/>
</clipPath>
<clipPath id="clip2">
  <path d="M 422.25 157 L 642.996094 157 L 642.996094 480 L 422.25 480 Z M 422.25 157 "/>
</clipPath>
<clipPath id="clip3">
  <path d="M 262 143.5625 L 486 143.5625 L 486 480 L 262 480 Z M 262 143.5625 "/>
</clipPath>
</defs>
<g id="surface1">
<rect x="0" y="0" width="651" height="479.999983" style="fill:rgb(100%,100%,100%);fill-opacity:1;stroke:none;"/>
<rect x="0" y="0" width="651" height="479.999983" style="fill:rgb(100%,100%,100%);fill-opacity:1;stroke:none;"/>
<rect x="0" y="0" width="651" height="479.999983" style="fill:rgb(100%,100%,100%);fill-opacity:1;stroke:none;"/>
<path style=" stroke:none;fill-rule:nonzero;fill:rgb(52.938843%,35.289001%,32.548523%);fill-opacity:1;" d="M 311.542969 162.636719 C 311.542969 162.636719 309.421875 168.292969 303.300781 163.339844 C 297.171875 158.390625 295.523438 163.339844 295.523438 163.339844 C 295.523438 163.339844 298.820312 168.53125 299.765625 170.652344 C 300.703125 172.773438 305.894531 175.839844 307.304688 177.722656 C 308.71875 179.613281 307.304688 193.050781 307.304688 193.050781 L 323.796875 198 C 323.796875 198 324.738281 186.917969 326.625 185.035156 C 328.507812 183.148438 333.695312 180.710938 335.574219 179.574219 C 337.464844 178.429688 344.058594 174.664062 343.824219 173.714844 C 343.585938 172.773438 345.25 162.007812 343.828125 161.136719 C 342.410156 160.273438 339.351562 157.917969 337.695312 159.804688 C 336.046875 161.691406 336.757812 152.96875 335.574219 152.96875 C 334.398438 152.96875 324.269531 152.257812 321.675781 154.382812 C 319.082031 156.503906 314.839844 158.390625 311.542969 162.636719 "/>
<path style=" stroke:none;fill-rule:nonzero;fill:rgb(52.938843%,35.289001%,32.548523%);fill-opacity:1;" d="M 28.09375 243.75 C 28.09375 243.75 39.875 244.6875 42.46875 244.457031 C 45.058594 244.222656 45.765625 240.683594 46.941406 236.4375 C 48.125 232.195312 50.71875 233.371094 53.214844 233.140625 C 55.707031 232.902344 52.367188 239.976562 53.214844 240.683594 C 54.058594 241.390625 58.726562 254.121094 59.664062 255.773438 C 60.609375 257.421875 73.09375 268.742188 73.09375 268.742188 L 60.375 279.355469 C 60.375 279.355469 50.71875 267.800781 47.179688 267.800781 C 43.644531 267.800781 24.796875 264.261719 24.796875 264.261719 L 13.957031 257.1875 C 13.957031 257.1875 8.066406 242.804688 28.09375 243.75 "/>
<path style=" stroke:none;fill-rule:nonzero;fill:rgb(71.369934%,44.309998%,52.549744%);fill-opacity:1;" d="M 386.75 318.574219 C 386.75 318.574219 398.929688 318.574219 398.929688 311.75 C 398.929688 304.925781 397.46875 298.585938 398.929688 292.738281 C 400.390625 286.886719 386.261719 248.5625 353.140625 263.824219 C 320.011719 279.085938 338.417969 333.363281 365.316406 330.761719 C 392.21875 328.160156 386.75 318.574219 386.75 318.574219 "/>
<g clip-path="url(#clip1)" clip-rule="nonzero">
<path style=" stroke:none;fill-rule:nonzero;fill:rgb(71.369934%,44.309998%,52.549744%);fill-opacity:1;" d="M 159.898438 480.324219 C 210.074219 480.324219 294.351562 480.324219 294.351562 480.324219 L 290.453125 456.925781 C 290.453125 456.925781 283.636719 435.960938 294.351562 424.746094 C 305.070312 413.539062 299.222656 387.695312 299.222656 387.695312 C 299.222656 387.695312 296.785156 376.484375 297.273438 368.683594 C 297.761719 360.882812 310.914062 315.058594 312.863281 306.28125 C 314.8125 297.507812 315.785156 265.332031 316.273438 259.96875 C 316.757812 254.609375 325.042969 213.660156 325.53125 208.292969 C 326.019531 202.929688 328.453125 191.722656 328.453125 191.722656 C 328.453125 191.722656 305.070312 186.84375 305.558594 188.792969 C 306.042969 190.742188 292.890625 249.730469 292.890625 249.730469 C 292.890625 249.730469 292.890625 256.070312 289.96875 260.945312 C 287.046875 265.820312 289.480469 271.671875 281.683594 299.945312 C 273.890625 328.21875 254.40625 341.871094 254.40625 341.871094 L 225.179688 350.644531 C 225.179688 350.644531 214.945312 349.1875 210.074219 350.644531 C 205.207031 352.105469 191.5625 347.886719 191.5625 347.886719 L 133.105469 317.496094 C 133.105469 317.496094 131.15625 311.160156 129.695312 311.648438 C 128.234375 312.136719 121.410156 305.792969 121.410156 305.792969 L 70.265625 263.871094 C 70.265625 263.871094 59.542969 274.597656 53.214844 276.058594 C 64.367188 289.839844 101.925781 321.882812 101.925781 321.882812 C 101.925781 321.882812 115.566406 336.511719 121.410156 344.796875 C 127.257812 353.082031 185.226562 391.601562 185.226562 391.601562 C 185.226562 391.601562 182.792969 417.4375 188.640625 425.722656 C 188.640625 425.722656 185.226562 442.296875 176.460938 451.5625 C 167.695312 460.824219 159.898438 480.324219 159.898438 480.324219 "/>
</g>
<path style=" stroke:none;fill-rule:nonzero;fill:rgb(97.648621%,11.369324%,14.898682%);fill-opacity:1;" d="M 168.664062 291.011719 C 174.132812 283.71875 173.050781 272.648438 173.050781 272.648438 C 173.050781 272.648438 180.84375 272.160156 179.382812 266.304688 C 177.921875 260.457031 168.667969 262.894531 168.667969 262.894531 C 168.667969 262.894531 168.179688 254.121094 177.433594 257.535156 C 186.6875 260.945312 188.640625 252.964844 188.640625 252.964844 C 188.640625 252.964844 195.460938 243.882812 195.460938 248.269531 C 195.460938 252.65625 202.277344 249.242188 206.667969 249.972656 C 211.050781 250.707031 213.972656 255.097656 217.867188 251.679688 C 221.765625 248.269531 228.101562 248.269531 228.101562 248.269531 C 228.101562 248.269531 237.363281 245.34375 233.707031 241.933594 C 230.046875 238.519531 246.125 245.34375 245.636719 251.191406 C 245.636719 251.191406 251.96875 254.121094 253.917969 251.679688 C 255.867188 249.242188 263.203125 252.65625 260.75 258.507812 C 258.300781 264.355469 256.878906 265.332031 261.242188 267.769531 C 265.613281 270.210938 267.074219 275.570312 266.585938 280.445312 C 266.097656 285.320312 274.863281 288.730469 274.378906 286.78125 C 276.324219 293.609375 269.996094 293.121094 269.996094 293.121094 C 269.996094 293.121094 273.890625 302.871094 270.96875 307.746094 C 268.046875 312.625 270.785156 324.027344 271.855469 322.273438 C 272.925781 320.523438 266.097656 322.457031 266.097656 322.457031 C 266.097656 322.457031 265.636719 332.117188 260.75 332.117188 C 255.867188 332.117188 247.097656 337.972656 247.097656 337.972656 L 220.804688 341.382812 L 211.535156 344.308594 C 211.535156 344.308594 212.023438 336.996094 206.667969 337.484375 C 201.304688 337.972656 202.765625 344.308594 202.765625 344.308594 C 202.765625 344.308594 196.921875 334.097656 197.40625 334.328125 C 197.894531 334.554688 189.128906 333.09375 187.667969 330.167969 C 186.199219 327.246094 186.6875 314.085938 182.304688 315.058594 C 177.921875 316.035156 174.511719 308.230469 172.078125 312.625 C 169.640625 317.011719 163.300781 298.160156 168.664062 291.011719 "/>
<path style=" stroke:none;fill-rule:nonzero;fill:rgb(97.648621%,11.369324%,14.898682%);fill-opacity:1;" d="M 522.175781 268.851562 C 522.175781 268.851562 511.949219 267.386719 504.152344 272.75 C 496.359375 278.109375 472.003906 303.945312 475.414062 348.800781 C 478.820312 393.652344 550.921875 367.808594 550.921875 367.808594 C 550.921875 367.808594 570.894531 277.136719 522.175781 268.851562 "/>
<path style=" stroke:none;fill-rule:nonzero;fill:rgb(96.859741%,70.979309%,63.529968%);fill-opacity:1;" d="M 523.964844 282.828125 C 523.964844 282.828125 517.308594 280.226562 514.386719 282.828125 C 511.460938 285.425781 494.410156 317.597656 493.925781 320.523438 C 493.4375 323.449219 503.179688 343.925781 516.820312 344.902344 C 530.460938 345.878906 542.152344 322.960938 542.152344 322.960938 C 542.152344 322.960938 544.753906 286.5625 523.964844 282.828125 "/>
<g clip-path="url(#clip2)" clip-rule="nonzero">
<path style=" stroke:none;fill-rule:nonzero;fill:rgb(96.859741%,70.979309%,63.529968%);fill-opacity:1;" d="M 566.507812 479.9375 C 564.070312 476.039062 550.921875 456.050781 550.921875 456.050781 C 550.921875 456.050781 567.96875 408.277344 573.332031 378.050781 C 585.503906 359.523438 611.328125 312.238281 612.300781 309.519531 C 613.277344 306.804688 624.476562 261.046875 624.476562 258.121094 C 624.476562 255.199219 631.300781 225.945312 633.738281 224.484375 C 636.171875 223.019531 637.144531 217.171875 641.527344 208.398438 C 645.914062 199.621094 639.09375 191.824219 638.605469 189.386719 C 638.121094 186.949219 629.839844 182.558594 629.839844 182.558594 C 629.839844 182.558594 632.761719 162.570312 629.839844 160.621094 C 626.914062 158.671875 621.554688 186.949219 621.554688 186.949219 C 621.554688 186.949219 618.632812 167.449219 614.25 166.957031 C 609.867188 166.46875 616.199219 191.824219 614.25 193.773438 C 612.300781 195.722656 610.355469 198.648438 610.355469 198.648438 L 614.25 224.484375 C 614.25 224.484375 598.660156 270.800781 595.738281 277.625 C 592.816406 284.445312 573.816406 317.597656 562.609375 339.535156 C 551.410156 361.472656 535.332031 357.574219 535.332031 357.574219 C 531.4375 356.601562 533.382812 328.8125 533.382812 328.8125 L 500.742188 328.328125 C 500.742188 328.328125 502.691406 351.726562 498.796875 354.164062 C 498.796875 354.164062 492.949219 356.113281 488.074219 350.75 C 483.207031 345.390625 473.953125 328.328125 473.953125 328.328125 C 473.953125 328.328125 459.335938 284.734375 458.847656 281.667969 C 458.363281 278.597656 453.003906 208.398438 453.003906 208.398438 L 449.589844 189.386719 C 449.589844 189.386719 446.667969 183.53125 444.71875 182.558594 C 442.773438 181.582031 444.71875 157.207031 441.796875 157.207031 C 438.875 157.207031 438.875 178.660156 438.875 178.660156 L 432.058594 157.207031 C 432.058594 157.207031 427.183594 156.234375 428.15625 161.59375 C 429.128906 166.957031 431.570312 179.632812 431.570312 179.632812 C 431.570312 179.632812 424.261719 180.121094 424.261719 184.507812 C 420.363281 187.925781 424.261719 195.234375 424.261719 195.234375 C 424.261719 195.234375 432.542969 210.347656 433.519531 213.761719 C 434.492188 217.171875 435.953125 227.414062 434.980469 228.875 C 434.003906 230.335938 434.492188 283.472656 433.519531 290.300781 C 432.542969 297.125 453.003906 376.585938 453.003906 376.585938 C 453.003906 376.585938 461.285156 410.714844 464.207031 426.316406 C 467.128906 441.914062 471.03125 450.203125 466.152344 461.898438 L 457.875 479.9375 L 566.507812 479.9375 "/>
</g>
<path style=" stroke:none;fill-rule:nonzero;fill:rgb(71.369934%,44.309998%,52.549744%);fill-opacity:1;" d="M 462.257812 463.855469 C 462.257812 463.855469 465.179688 451.175781 464.691406 447.765625 C 464.207031 444.355469 457.988281 406.191406 457.988281 406.191406 C 482.453125 403.128906 486.589844 348.945312 486.589844 348.945312 L 495.777344 354.492188 C 495.777344 354.492188 481.742188 402.910156 515.027344 399.5 C 548.3125 396.089844 535.332031 357.574219 535.332031 357.574219 C 535.332031 357.574219 539.714844 354.648438 549.171875 354.816406 C 548.390625 388.625 572.84375 399.5 572.84375 399.5 C 572.84375 399.5 556.765625 431.675781 560.175781 436.0625 C 563.585938 440.449219 559.203125 446.792969 559.203125 446.792969 C 559.203125 446.792969 558.226562 450.691406 559.203125 454.589844 C 560.175781 458.488281 563.097656 463.367188 563.097656 463.367188 C 563.097656 463.367188 567.96875 472.628906 566.507812 479.9375 C 530.949219 479.9375 457.875 479.9375 457.875 479.9375 C 457.875 479.9375 458.363281 465.804688 462.257812 463.855469 "/>
<g clip-path="url(#clip3)" clip-rule="nonzero">
<path style=" stroke:none;fill-rule:nonzero;fill:rgb(84.709167%,60.778809%,52.549744%);fill-opacity:1;" d="M 422.3125 473.601562 C 422.800781 469.703125 425.722656 431.675781 428.15625 423.878906 C 430.589844 416.074219 432.058594 389.265625 431.570312 380.972656 C 431.078125 372.6875 435.863281 342.949219 435.863281 342.949219 C 435.746094 341.484375 439.382812 294.6875 443.285156 283.472656 C 447.179688 272.261719 454 243.007812 454 238.621094 C 454 234.234375 458.871094 210.347656 458.871094 210.347656 C 458.871094 210.347656 470.5625 205.957031 473.484375 202.058594 C 476.40625 198.160156 480.304688 185.96875 480.304688 185.96875 C 480.304688 185.96875 480.304688 177.683594 484.203125 176.222656 C 488.101562 174.757812 484.203125 168.910156 484.203125 168.910156 L 471.050781 174.273438 C 471.050781 174.273438 460.824219 182.070312 457.894531 182.070312 C 454.972656 182.070312 445.234375 201.570312 445.234375 201.570312 L 425.257812 267.386719 C 425.257812 267.386719 414.054688 325.890625 409.183594 339.535156 C 409.183594 339.535156 402.824219 344.660156 396.980469 342.949219 C 391.121094 341.242188 390.15625 305.902344 394.058594 304.433594 C 397.957031 302.972656 397.957031 294.199219 394.058594 294.6875 C 390.15625 295.175781 385.773438 291.761719 385.773438 291.761719 C 385.773438 291.761719 379.445312 282.007812 375.058594 278.109375 C 370.671875 274.210938 356.0625 275.328125 356.0625 275.328125 C 356.0625 275.328125 347.289062 278.109375 345.339844 282.007812 C 345.339844 282.007812 341.445312 298.585938 345.339844 309.800781 C 349.238281 321.011719 359.957031 329.300781 359.957031 329.300781 C 359.957031 329.300781 364.339844 342.949219 362.394531 347.828125 C 362.394531 347.828125 344.367188 327.839844 339.496094 314.1875 C 334.628906 300.535156 323.421875 242.035156 323.421875 242.035156 L 303.449219 176.222656 C 303.449219 176.222656 293.703125 156.722656 290.78125 156.722656 C 287.859375 156.722656 277.628906 148.917969 277.628906 148.917969 L 264.476562 143.558594 C 264.476562 143.558594 260.578125 149.40625 264.476562 150.867188 C 268.371094 152.335938 268.371094 160.621094 268.371094 160.621094 C 268.371094 160.621094 272.269531 172.808594 275.195312 176.710938 C 278.117188 180.609375 289.804688 184.996094 289.804688 184.996094 C 289.804688 184.996094 294.675781 208.886719 294.675781 213.273438 C 294.675781 217.660156 301.5 246.90625 305.394531 258.121094 C 309.292969 269.335938 312.933594 316.136719 312.816406 317.597656 C 312.707031 319.0625 319.523438 351.238281 337.550781 379.511719 C 337.0625 396.574219 344.855469 414.613281 344.855469 414.613281 C 344.855469 414.613281 347.777344 435.574219 343.394531 443.378906 C 339.011719 451.175781 327.316406 475.550781 326.828125 479.9375 L 422.53125 479.9375 L 422.3125 473.601562 "/>
</g>
<path style=" stroke:none;fill-rule:nonzero;fill:rgb(97.648621%,11.369324%,14.898682%);fill-opacity:1;" d="M 362.921875 347.828125 C 362.921875 347.828125 344.894531 327.839844 340.023438 314.1875 C 340.023438 314.1875 325.679688 308.339844 313.34375 317.597656 C 312.171875 318.476562 320.050781 351.238281 338.078125 379.511719 C 337.589844 396.574219 345.382812 414.613281 345.382812 414.613281 C 345.382812 414.613281 348.304688 435.574219 343.921875 443.378906 C 339.539062 451.175781 327.84375 475.550781 327.355469 479.9375 L 423.058594 479.9375 L 422.839844 473.601562 C 423.328125 469.703125 426.25 431.675781 428.683594 423.878906 C 431.117188 416.074219 432.578125 389.265625 432.09375 380.972656 C 431.605469 372.6875 436.390625 342.949219 436.390625 342.949219 C 436.273438 341.484375 436.007812 316.554688 439.90625 305.34375 L 418.359375 301.605469 C 418.359375 301.605469 414.582031 325.890625 409.710938 339.535156 C 409.710938 339.535156 403.351562 344.660156 397.507812 342.949219 C 397.507812 342.949219 403.3125 358.0625 383.339844 358.0625 C 363.367188 358.0625 362.921875 347.828125 362.921875 347.828125 "/>
<path style=" stroke:none;fill-rule:nonzero;fill:rgb(52.938843%,35.289001%,32.548523%);fill-opacity:1;" d="M 254.40625 341.871094 C 254.40625 341.871094 250.996094 327.246094 254.40625 327.246094 C 257.8125 327.246094 260.734375 320.421875 260.734375 320.421875 L 256.515625 318.308594 C 256.515625 318.308594 257.9375 305.824219 256.515625 299.457031 C 253.269531 298.808594 248.074219 291.011719 248.074219 291.011719 C 248.074219 291.011719 234.433594 297.507812 226.640625 293.121094 C 218.84375 288.730469 206.667969 304.820312 206.667969 304.820312 C 206.667969 304.820312 208.128906 336.511719 217.867188 338.945312 C 219.285156 347.445312 214.457031 352.59375 214.457031 352.59375 C 214.457031 352.59375 217.382812 372.585938 229.5625 384.285156 C 241.738281 395.988281 247.097656 404.757812 247.097656 404.757812 C 247.097656 404.757812 261.222656 375.023438 260.734375 343.332031 C 257.328125 342.847656 254.40625 341.871094 254.40625 341.871094 "/>
</g>
</svg>
