<?xml version="1.0" encoding="UTF-8"?>
<svg xmlns="http://www.w3.org/2000/svg" xmlns:xlink="http://www.w3.org/1999/xlink" width="450pt" height="464.999988pt" viewBox="0 0 450 464.999988" version="1.2">
<defs>
<clipPath id="clip1">
  <path d="M 74 373.582031 L 167.320312 373.582031 L 167.320312 447.824219 L 74 447.824219 Z M 74 373.582031 "/>
</clipPath>
</defs>
<g id="surface1">
<rect x="0" y="0" width="450" height="464.999988" style="fill:rgb(100%,100%,100%);fill-opacity:1;stroke:none;"/>
<rect x="0" y="0" width="450" height="464.999988" style="fill:rgb(100%,100%,100%);fill-opacity:1;stroke:none;"/>
<rect x="0" y="0" width="450" height="464.999988" style="fill:rgb(100%,100%,100%);fill-opacity:1;stroke:none;"/>
<path style=" stroke:none;fill-rule:nonzero;fill:rgb(71.369934%,44.309998%,52.549744%);fill-opacity:1;" d="M 196.054688 114.027344 C 202.679688 118.285156 210.730469 121.601562 217.828125 124.441406 C 217.847656 124.449219 217.863281 124.457031 217.882812 124.464844 C 211.609375 132.523438 205.082031 141.15625 204.300781 147.363281 C 204.777344 148.445312 205.609375 149.351562 206.738281 150.015625 C 207.300781 150.34375 207.902344 150.535156 208.539062 150.628906 C 217.535156 146.984375 227.300781 151.789062 235.296875 144.5625 C 237.117188 142.128906 246.25 133.277344 249.34375 134.027344 C 255.25 135.054688 251.332031 142.722656 250.203125 147.371094 C 246.65625 161.945312 237.246094 174.621094 236.289062 187.9375 C 236.085938 190.757812 235.996094 194.464844 235.910156 196.921875 C 236.453125 200.683594 239.6875 203.054688 242.894531 202.636719 C 253.539062 187.300781 265.996094 185.914062 278.273438 168.566406 C 288.761719 153.417969 300.46875 140.261719 313.59375 128.210938 C 315 129.542969 316.402344 130.859375 317.773438 132.148438 C 327.6875 141.484375 336.851562 141.808594 340.46875 126.933594 C 343.371094 114.960938 343.492188 100.324219 335.226562 91.433594 C 328.097656 83.769531 320.507812 76.511719 312.46875 69.808594 C 294.371094 54.722656 275.402344 50.097656 258.144531 50.640625 L 249.277344 44.953125 C 248.554688 47.191406 247.832031 49.433594 247.109375 51.671875 C 247.027344 51.679688 246.941406 51.679688 246.859375 51.699219 C 246.546875 51.757812 246.238281 51.816406 245.921875 51.878906 C 245.890625 51.882812 245.863281 51.890625 245.835938 51.894531 C 227.796875 55.453125 212.878906 68.445312 204.402344 79.785156 L 204.421875 79.804688 C 204.414062 79.8125 204.410156 79.828125 204.402344 79.832031 C 204.140625 80.183594 203.882812 80.53125 203.632812 80.878906 C 198.898438 87.035156 194.636719 93.1875 191.800781 100.289062 C 188.953125 107.402344 188.480469 109.289062 196.054688 114.027344 "/>
<path style=" stroke:none;fill-rule:nonzero;fill:rgb(71.369934%,44.309998%,52.549744%);fill-opacity:1;" d="M 355.179688 373.589844 C 355.214844 373.515625 355.257812 373.4375 355.273438 373.355469 C 355.394531 373.03125 355.503906 372.703125 355.617188 372.375 C 361.488281 354.945312 357.632812 335.535156 352.003906 322.542969 L 351.976562 322.550781 C 351.972656 322.539062 351.964844 322.527344 351.964844 322.519531 C 351.792969 322.117188 351.621094 321.71875 351.4375 321.332031 C 348.449219 314.164062 345.234375 307.40625 340.480469 301.414062 C 335.726562 295.414062 334.320312 294.0625 326.449219 298.289062 C 319.464844 301.921875 312.585938 307.261719 306.597656 312.015625 C 306.582031 312.03125 306.566406 312.039062 306.546875 312.054688 C 305.246094 308.875 303.902344 305.640625 302.5 302.605469 C 298.011719 298.667969 293.304688 295.0625 288.367188 291.738281 C 286.691406 300.910156 278.242188 306.949219 280.472656 317.1875 C 281.667969 319.976562 284.816406 332.300781 282.621094 334.621094 C 278.792969 339.230469 274.09375 332.019531 270.625 328.730469 C 259.746094 318.40625 253.421875 303.941406 242.34375 296.5 C 239.992188 294.921875 236.820312 292.996094 234.742188 291.699219 C 231.203125 290.308594 227.539062 291.9375 226.308594 294.929688 C 234.324219 311.785156 229.339844 323.296875 238.289062 342.570312 C 246.214844 359.210938 251.816406 375.90625 255.753906 393.292969 C 253.898438 393.847656 252.058594 394.414062 250.257812 394.964844 C 237.234375 398.933594 232.40625 406.726562 243.515625 417.257812 C 252.449219 425.726562 265.089844 433.097656 276.914062 430.339844 C 287.101562 427.960938 297.167969 424.976562 306.972656 421.328125 C 329.054688 413.109375 342.492188 398.9375 350.59375 383.683594 L 359.933594 378.808594 C 358.347656 377.070312 356.761719 375.328125 355.179688 373.589844 "/>
<path style=" stroke:none;fill-rule:nonzero;fill:rgb(71.369934%,44.309998%,52.549744%);fill-opacity:1;" d="M 60.628906 115.3125 C 60.625 115.328125 60.617188 115.347656 60.613281 115.363281 C 54.679688 132.769531 58.460938 152.191406 64.042969 165.203125 L 64.070312 165.195312 C 64.074219 165.207031 64.082031 165.21875 64.085938 165.226562 C 64.257812 165.632812 64.425781 166.03125 64.605469 166.421875 C 67.570312 173.597656 70.761719 180.367188 75.492188 186.375 C 80.222656 192.394531 81.621094 193.753906 89.507812 189.554688 C 96.398438 186.003906 103.195312 180.792969 109.136719 176.113281 C 110.222656 178.8125 111.34375 181.566406 112.5 184.234375 C 117.394531 188.65625 122.578125 192.691406 128.027344 196.359375 C 130.257812 187.929688 137.808594 182.011719 135.726562 172.289062 C 134.539062 169.492188 131.425781 157.15625 133.636719 154.847656 C 137.472656 150.246094 142.148438 157.472656 145.609375 160.773438 C 156.449219 171.136719 162.726562 185.625 173.773438 193.117188 C 176.113281 194.695312 179.277344 196.625 181.359375 197.933594 C 184.898438 199.34375 188.5625 197.730469 189.800781 194.730469 C 181.84375 177.851562 186.878906 166.359375 178 147.050781 C 169.914062 129.9375 164.296875 112.765625 160.410156 94.855469 C 162.316406 94.289062 164.207031 93.71875 166.054688 93.160156 C 179.09375 89.238281 183.957031 81.464844 172.882812 70.894531 C 163.976562 62.390625 151.367188 54.96875 139.535156 57.683594 C 129.335938 60.027344 119.257812 62.972656 109.441406 66.585938 C 86.3125 75.097656 72.613281 90.164062 64.589844 106.179688 L 56.496094 110.367188 C 57.902344 111.929688 59.316406 113.488281 60.722656 115.050781 C 60.691406 115.140625 60.660156 115.226562 60.628906 115.3125 "/>
<path style=" stroke:none;fill-rule:nonzero;fill:rgb(71.369934%,44.309998%,52.549744%);fill-opacity:1;" d="M 91.855469 330.1875 C 99.429688 329.097656 101.308594 328.5625 101.617188 319.632812 C 101.992188 311.765625 100.839844 303.128906 99.746094 295.5625 C 99.742188 295.539062 99.742188 295.523438 99.738281 295.5 C 103.125 295.972656 106.578125 296.4375 109.890625 296.75 C 115.554688 294.851562 121.0625 292.59375 126.433594 289.996094 C 119.363281 283.925781 118.386719 273.582031 108.429688 270.363281 C 105.417969 270.003906 93.191406 266.527344 92.289062 263.460938 C 90.226562 257.832031 98.820312 257.394531 103.40625 256.046875 C 117.796875 251.832031 133.472656 253.644531 145.488281 247.816406 C 148.023438 246.585938 151.273438 244.800781 153.453125 243.652344 C 156.4375 241.300781 156.875 237.316406 154.902344 234.746094 C 136.3125 233.191406 128.878906 223.089844 107.726562 221.125 C 89.363281 219.613281 72.121094 216.046875 55.125 210.703125 C 55.578125 208.820312 56.015625 206.949219 56.445312 205.117188 C 59.566406 191.859375 55.269531 183.757812 40.582031 188.066406 C 28.769531 191.535156 16.039062 198.75 12.472656 210.355469 C 9.398438 220.363281 6.914062 230.570312 5.132812 240.882812 C 0.246094 269.175781 9.445312 290.835938 22.113281 306.578125 C 22.160156 306.644531 22.207031 306.722656 22.265625 306.78125 C 22.484375 307.046875 22.714844 307.308594 22.941406 307.570312 C 35.042969 321.417969 53.75 327.851562 67.804688 329.519531 L 67.8125 329.492188 C 67.820312 329.496094 67.835938 329.492188 67.847656 329.496094 C 68.277344 329.550781 68.710938 329.601562 69.136719 329.644531 C 76.832031 330.664062 84.289062 331.285156 91.855469 330.1875 "/>
<path style=" stroke:none;fill-rule:nonzero;fill:rgb(71.369934%,44.309998%,52.549744%);fill-opacity:1;" d="M 220.273438 374.183594 C 213.648438 369.921875 205.601562 366.601562 198.5 363.765625 C 198.480469 363.761719 198.464844 363.753906 198.445312 363.746094 C 200.546875 361.046875 202.679688 358.285156 204.613281 355.570312 C 204.875 354.277344 205.113281 352.984375 205.335938 351.6875 C 205.265625 352.074219 205.214844 352.457031 205.144531 352.847656 C 205.214844 352.449219 205.273438 352.054688 205.339844 351.660156 C 205.402344 351.296875 205.464844 350.9375 205.523438 350.574219 C 205.699219 349.515625 205.859375 348.453125 206.011719 347.394531 C 206.0625 347.042969 206.109375 346.699219 206.15625 346.355469 C 206.316406 345.15625 206.464844 343.957031 206.589844 342.753906 C 206.609375 342.566406 206.636719 342.382812 206.65625 342.195312 C 206.804688 340.753906 206.941406 339.316406 207.042969 337.875 L 207.039062 337.875 C 207.039062 337.875 207.035156 337.875 207.035156 337.875 L 207.03125 337.875 C 198.246094 340.964844 188.792969 336.613281 181.035156 343.644531 C 179.210938 346.074219 170.085938 354.933594 166.980469 354.171875 C 161.078125 353.152344 164.992188 345.488281 166.128906 340.835938 C 169.667969 326.261719 179.082031 313.582031 180.046875 300.265625 C 180.242188 297.449219 180.332031 293.742188 180.421875 291.28125 C 179.875 287.511719 176.644531 285.148438 173.433594 285.574219 C 162.792969 300.910156 150.332031 302.289062 138.054688 319.640625 C 127.5625 334.785156 115.855469 347.9375 102.734375 359.992188 C 101.328125 358.660156 99.921875 357.347656 98.554688 356.0625 C 88.636719 346.726562 79.476562 346.402344 75.863281 361.277344 C 72.953125 373.246094 72.839844 387.882812 81.105469 396.773438 C 88.230469 404.441406 95.824219 411.699219 103.859375 418.394531 C 125.90625 436.78125 149.257812 439.640625 169.222656 436.53125 C 169.300781 436.523438 169.386719 436.523438 169.46875 436.507812 C 169.597656 436.484375 169.726562 436.457031 169.851562 436.433594 L 169.863281 436.46875 C 169.84375 436.472656 169.820312 436.476562 169.800781 436.480469 C 169.722656 436.5 169.886719 436.515625 169.886719 436.523438 L 169.886719 436.519531 L 169.867188 436.46875 C 183.722656 433.996094 195.613281 425.90625 204.332031 417.140625 C 204.855469 416.617188 205.359375 416.085938 205.867188 415.558594 C 205.886719 415.535156 205.914062 415.507812 205.9375 415.484375 C 205.9375 415.484375 205.941406 415.480469 205.941406 415.480469 C 206.4375 414.957031 206.914062 414.4375 207.386719 413.914062 C 207.503906 413.785156 207.625 413.648438 207.746094 413.515625 C 208.148438 413.0625 208.542969 412.609375 208.929688 412.15625 C 209.15625 411.886719 209.382812 411.617188 209.601562 411.347656 C 209.890625 411.007812 210.175781 410.660156 210.445312 410.320312 C 210.933594 409.710938 211.402344 409.109375 211.851562 408.507812 C 211.875 408.476562 211.902344 408.445312 211.925781 408.414062 L 211.90625 408.394531 C 211.90625 408.394531 211.90625 408.394531 211.902344 408.394531 C 211.910156 408.390625 211.917969 408.375 211.925781 408.367188 C 212.183594 408.019531 212.449219 407.675781 212.695312 407.324219 C 217.425781 401.167969 221.691406 395.019531 224.527344 387.914062 C 227.371094 380.804688 227.847656 378.914062 220.273438 374.183594 "/>
<path style=" stroke:none;fill-rule:nonzero;fill:rgb(71.369934%,44.309998%,52.549744%);fill-opacity:1;" d="M 394.210938 181.625 C 394.167969 181.558594 394.125 181.484375 394.066406 181.425781 C 393.839844 181.15625 393.613281 180.894531 393.382812 180.636719 C 381.28125 166.789062 362.578125 160.355469 348.523438 158.6875 L 348.515625 158.710938 C 348.503906 158.710938 348.492188 158.710938 348.480469 158.710938 C 348.046875 158.65625 347.617188 158.605469 347.191406 158.5625 C 339.496094 157.539062 332.039062 156.921875 324.472656 158.015625 C 316.898438 159.109375 315.023438 159.640625 314.710938 168.570312 C 314.335938 176.441406 315.492188 185.074219 316.582031 192.644531 C 316.585938 192.664062 316.585938 192.683594 316.589844 192.703125 C 313.191406 192.230469 309.722656 191.765625 306.394531 191.449219 C 300.746094 193.34375 295.242188 195.605469 289.894531 198.203125 C 296.96875 204.269531 297.929688 214.621094 307.898438 217.84375 C 310.914062 218.199219 323.144531 221.679688 324.046875 224.742188 C 326.105469 230.375 317.515625 230.8125 312.921875 232.160156 C 298.535156 236.375 282.847656 234.558594 270.847656 240.386719 C 268.300781 241.617188 265.046875 243.390625 262.875 244.554688 C 259.894531 246.902344 259.457031 250.890625 261.433594 253.457031 C 280.023438 255.011719 287.453125 265.117188 308.601562 267.078125 C 326.960938 268.59375 344.203125 272.15625 361.203125 277.496094 C 360.75 279.382812 360.316406 281.257812 359.886719 283.089844 C 356.761719 296.347656 361.058594 304.445312 375.746094 300.140625 C 387.5625 296.671875 400.289062 289.457031 403.855469 277.851562 C 406.929688 267.84375 409.414062 257.640625 411.195312 247.324219 C 416.085938 219.03125 406.882812 197.371094 394.210938 181.625 "/>
<path style=" stroke:none;fill-rule:nonzero;fill:rgb(66.668701%,35.289001%,34.509277%);fill-opacity:1;" d="M 243.605469 379.65625 C 243.199219 384.730469 242.257812 391.71875 242.683594 398.296875 C 244.714844 396.992188 247.269531 395.875 250.261719 394.964844 C 252.058594 394.417969 253.902344 393.851562 255.757812 393.289062 C 252.878906 380.578125 249.105469 368.234375 244.1875 356.007812 C 240.21875 362.40625 244.46875 372.59375 243.605469 379.65625 "/>
<path style=" stroke:none;fill-rule:nonzero;fill:rgb(66.668701%,35.289001%,34.509277%);fill-opacity:1;" d="M 287.320312 156.382812 C 292.992188 154.273438 298.417969 148.769531 303.582031 146.855469 C 309.28125 144.476562 317.832031 141.503906 324.007812 136.84375 C 321.996094 135.738281 319.90625 134.15625 317.773438 132.152344 C 316.40625 130.863281 315 129.542969 313.601562 128.207031 C 304.117188 136.914062 295.378906 146.191406 287.320312 156.382812 "/>
<path style=" stroke:none;fill-rule:nonzero;fill:rgb(66.668701%,35.289001%,34.509277%);fill-opacity:1;" d="M 239.976562 207.007812 C 240.601562 205.582031 241.207031 204.113281 241.902344 202.675781 C 239.550781 202.574219 237.332031 201.019531 236.363281 198.589844 C 234.089844 201.199219 231.710938 204.777344 232.492188 208.328125 C 233.675781 213.703125 238.441406 209.964844 239.976562 207.007812 "/>
<path style=" stroke:none;fill-rule:nonzero;fill:rgb(66.668701%,35.289001%,34.509277%);fill-opacity:1;" d="M 261.152344 115.386719 C 261.773438 116.050781 262.375 116.679688 262.972656 117.300781 C 264.171875 124.613281 270.566406 128.492188 277.507812 126.324219 C 279.707031 126.660156 282.160156 126.644531 284.984375 126.222656 C 291.964844 125.5 301.59375 123.574219 306.648438 118.277344 C 306.648438 118.277344 318.925781 71.316406 303.761719 63.125 C 288.597656 54.9375 252.726562 71.074219 252.726562 71.074219 C 250.316406 74.925781 250.5625 80.222656 250.5625 84.558594 C 250.316406 96.84375 252.484375 106.234375 261.152344 115.386719 "/>
<path style=" stroke:none;fill-rule:nonzero;fill:rgb(66.668701%,35.289001%,34.509277%);fill-opacity:1;" d="M 226.539062 283.074219 C 221.296875 281.429688 222.167969 287.429688 223.972656 290.222656 C 224.894531 291.472656 225.875 292.722656 226.777344 294.039062 C 228.035156 292.054688 230.472656 290.917969 233.058594 291.265625 C 231.929688 288 230.015625 284.15625 226.539062 283.074219 "/>
<path style=" stroke:none;fill-rule:nonzero;fill:rgb(66.668701%,35.289001%,34.509277%);fill-opacity:1;" d="M 208.039062 244.253906 C 208.082031 244.203125 208.128906 244.148438 208.167969 244.101562 C 208.3125 244.191406 208.449219 244.261719 208.59375 244.339844 C 208.410156 244.3125 208.222656 244.277344 208.039062 244.253906 Z M 302.503906 302.605469 C 305 304.796875 307.4375 307.097656 309.796875 309.496094 C 314.980469 305.464844 320.679688 301.289062 326.445312 298.285156 C 328.398438 297.234375 329.953125 296.53125 331.253906 296.160156 C 326.464844 291.910156 321.453125 287.84375 316.210938 283.988281 C 288.800781 264.359375 239.96875 250.410156 214.65625 245.433594 C 219.625 242.710938 216.394531 227.148438 217.09375 222.929688 C 220.542969 228.097656 223.269531 225.90625 221.949219 220.414062 C 220.917969 216.625 216.242188 212.105469 215.199219 208.320312 C 207.710938 178.722656 206.351562 150.363281 214.0625 122.914062 C 207.984375 120.421875 201.535156 117.546875 196.054688 114.027344 C 194.179688 112.847656 192.792969 111.855469 191.824219 110.914062 C 190.515625 117.191406 189.472656 123.554688 188.742188 130.019531 C 185.3125 163.738281 197.609375 213.394531 205.871094 237.707031 C 200.910156 235.164062 189.324219 245.46875 185.378906 246.957031 C 188.125 241.382812 184.867188 240.125 180.761719 244 C 178 246.796875 176.421875 253.101562 173.667969 255.890625 C 151.792969 277.175781 127.917969 292.53125 100.308594 299.582031 C 101.199219 306.09375 101.921875 313.125 101.617188 319.632812 C 101.535156 321.84375 101.371094 323.535156 101.035156 324.855469 C 107.117188 322.863281 113.152344 320.5625 119.121094 317.972656 C 149.71875 304.226562 186.140625 269.296875 203.277344 249.859375 C 204.355469 255.222656 218.351562 259.851562 221.523438 262.445312 C 215.328125 262.878906 215.875 266.328125 221.296875 267.914062 C 225.105469 268.894531 231.34375 267.089844 235.140625 268.0625 C 257.140625 274.203125 276.84375 282.972656 293.734375 295.527344 C 296.746094 297.757812 299.667969 300.121094 302.503906 302.605469 "/>
<path style=" stroke:none;fill-rule:nonzero;fill:rgb(66.668701%,35.289001%,34.509277%);fill-opacity:1;" d="M 324.933594 360.246094 C 314.398438 353.9375 305.171875 351.148438 292.929688 354.128906 C 292.046875 354.339844 291.199219 354.550781 290.367188 354.757812 C 283.425781 352.167969 276.878906 355.792969 275.308594 362.898438 C 273.929688 364.644531 272.726562 366.777344 271.6875 369.4375 C 268.84375 375.855469 265.738281 385.171875 267.820312 392.195312 C 267.820312 392.195312 302.460938 426.183594 317.097656 417.085938 C 331.734375 407.984375 335.554688 368.828125 335.554688 368.828125 C 333.410156 364.824219 328.695312 362.402344 324.933594 360.246094 "/>
<path style=" stroke:none;fill-rule:nonzero;fill:rgb(66.668701%,35.289001%,34.509277%);fill-opacity:1;" d="M 165.027344 240.90625 C 169.085938 237.207031 163.46875 234.9375 160.148438 235.097656 C 158.589844 235.265625 157.027344 235.484375 155.441406 235.59375 C 156.53125 237.683594 156.292969 240.371094 154.667969 242.4375 C 158.058594 243.089844 162.351562 243.375 165.027344 240.90625 "/>
<path style=" stroke:none;fill-rule:nonzero;fill:rgb(66.668701%,35.289001%,34.509277%);fill-opacity:1;" d="M 82.96875 201.082031 C 81.449219 200.148438 79.382812 199.492188 78.015625 199.515625 C 61.007812 197.503906 52.394531 221.828125 51.6875 236.445312 C 49.59375 237.023438 47.519531 237.597656 45.519531 238.15625 C 42.105469 249.300781 41.5625 259.753906 41.5625 259.753906 C 41.101562 260.441406 45 262.355469 50.277344 268.683594 C 50.617188 269.097656 50.960938 269.519531 51.316406 269.972656 C 51.964844 270.800781 52.929688 271.398438 54.117188 271.875 C 54.785156 272.144531 55.542969 272.371094 56.332031 272.578125 C 56.878906 271.144531 57.519531 269.808594 58.285156 268.640625 C 59.859375 266.230469 62.382812 263.257812 65.140625 259.890625 C 69.632812 262.140625 74.753906 263.007812 79.695312 261.855469 C 88.644531 259.761719 94.105469 250.960938 96.304688 241.84375 C 101.5625 237.332031 99.945312 233.492188 96.957031 227 C 95.59375 217.738281 92.03125 205.625 82.96875 201.082031 "/>
<path style=" stroke:none;fill-rule:nonzero;fill:rgb(81.568909%,44.309998%,43.919373%);fill-opacity:1;" d="M 132.65625 327.117188 C 124.9375 325.886719 117.523438 334.671875 110.644531 337.128906 C 103.90625 339.855469 93.195312 343.386719 87.039062 349.554688 C 90.527344 349.898438 94.472656 352.21875 98.554688 356.058594 C 99.921875 357.347656 101.332031 358.664062 102.730469 359.992188 C 113.648438 349.96875 123.585938 339.183594 132.65625 327.117188 "/>
<path style=" stroke:none;fill-rule:nonzero;fill:rgb(81.568909%,44.309998%,43.919373%);fill-opacity:1;" d="M 342.808594 280.675781 C 347.117188 284.777344 353.015625 291.085938 359.488281 294.914062 C 358.605469 291.832031 358.773438 287.785156 359.886719 283.085938 C 360.320312 281.261719 360.746094 279.386719 361.203125 277.5 C 350.089844 274.011719 338.863281 271.277344 327.296875 269.382812 C 331.484375 273.863281 338.902344 276.640625 342.808594 280.675781 "/>
<path style=" stroke:none;fill-rule:nonzero;fill:rgb(81.568909%,44.309998%,43.919373%);fill-opacity:1;" d="M 189.363281 205.136719 C 194.597656 206.800781 193.746094 200.800781 191.949219 197.996094 C 191.21875 196.996094 190.445312 195.984375 189.710938 194.941406 C 188.652344 197.234375 186.15625 198.652344 183.429688 198.421875 C 184.597656 201.289062 186.410156 204.203125 189.363281 205.136719 "/>
<path style=" stroke:none;fill-rule:nonzero;fill:rgb(81.568909%,44.309998%,43.919373%);fill-opacity:1;" d="M 107.738281 127.324219 C 109.316406 126.871094 110.878906 126.582031 112.363281 126.511719 C 115.121094 126.371094 118.8125 126.628906 122.941406 126.871094 C 123.007812 132.308594 124.816406 137.671875 128.5625 141.667969 C 134.84375 148.378906 145.195312 148.710938 154.195312 146.058594 C 160.71875 148.359375 163.238281 145.039062 167.355469 139.210938 C 174.695312 133.398438 183.410156 124.25 182.808594 114.125 C 182.859375 112.335938 182.386719 110.21875 181.6875 109.046875 C 175.035156 93.566406 150.386719 97.855469 137.203125 104.367188 C 135.453125 102.976562 133.695312 101.582031 131.972656 100.214844 C 120.625 102.832031 111.316406 107.582031 111.316406 107.582031 C 110.492188 107.523438 110.78125 111.863281 107.945312 119.601562 C 107.753906 120.105469 107.558594 120.613281 107.347656 121.144531 C 106.957031 122.117188 106.917969 123.253906 107.101562 124.519531 C 107.222656 125.394531 107.457031 126.335938 107.738281 127.324219 "/>
<path style=" stroke:none;fill-rule:nonzero;fill:rgb(81.568909%,44.309998%,43.919373%);fill-opacity:1;" d="M 176.359375 281.199219 C 175.730469 282.628906 175.132812 284.097656 174.429688 285.535156 C 176.789062 285.632812 178.996094 287.179688 179.96875 289.621094 C 182.242188 287 184.617188 283.429688 183.835938 279.882812 C 182.65625 274.507812 177.890625 278.246094 176.359375 281.199219 "/>
<path style=" stroke:none;fill-rule:nonzero;fill:rgb(81.568909%,44.309998%,43.919373%);fill-opacity:1;" d="M 251.304688 247.304688 C 247.230469 251 252.859375 253.261719 256.183594 253.113281 C 257.726562 252.941406 259.300781 252.726562 260.898438 252.617188 C 259.808594 250.527344 260.046875 247.839844 261.671875 245.773438 C 258.273438 245.121094 253.980469 244.832031 251.304688 247.304688 "/>
<path style=" stroke:none;fill-rule:nonzero;fill:rgb(81.568909%,44.309998%,43.919373%);fill-opacity:1;" d="M 314.710938 168.570312 C 314.792969 166.367188 314.960938 164.675781 315.296875 163.355469 C 309.210938 165.347656 303.175781 167.648438 297.210938 170.234375 C 266.3125 184.117188 229.484375 219.589844 212.566406 238.898438 C 212.601562 233.257812 197.59375 228.292969 194.300781 225.589844 C 200.492188 225.183594 199.960938 221.722656 194.546875 220.117188 C 190.753906 219.113281 184.496094 220.898438 180.710938 219.917969 C 151.335938 211.609375 126.109375 198.601562 106.207031 178.195312 C 101.003906 182.230469 95.296875 186.375 89.507812 189.359375 C 87.554688 190.402344 85.996094 191.097656 84.699219 191.464844 C 89.476562 195.734375 94.472656 199.820312 99.695312 203.6875 C 124.824219 221.839844 168.117188 235.246094 194.578125 241.222656 C 201.160156 237.109375 208.34375 233.957031 208.167969 243.898438 C 208.277344 243.835938 208.371094 243.777344 208.480469 243.714844 C 208.378906 243.839844 208.265625 243.976562 208.167969 244.101562 C 194.546875 235.730469 200.136719 259.855469 199.234375 265.265625 C 195.785156 260.105469 193.0625 262.304688 194.382812 267.796875 C 195.410156 271.582031 200.085938 276.101562 201.128906 279.882812 C 206.152344 299.738281 208.414062 319.035156 207.035156 337.875 C 206.667969 342.894531 206.046875 347.890625 205.144531 352.847656 C 204.972656 353.757812 204.804688 354.660156 204.617188 355.574219 L 204.617188 355.582031 C 203.953125 358.832031 203.167969 362.066406 202.265625 365.289062 C 208.351562 367.789062 214.804688 370.660156 220.277344 374.183594 C 222.148438 375.351562 223.535156 376.351562 224.507812 377.296875 C 225.816406 371.019531 226.855469 364.65625 227.589844 358.191406 C 231.019531 324.464844 218.714844 274.808594 210.457031 250.492188 C 215.417969 253.039062 227.003906 242.734375 230.949219 241.253906 C 228.203125 246.828125 231.464844 248.085938 235.566406 244.199219 C 238.324219 241.414062 239.90625 235.109375 242.664062 232.3125 C 257.332031 218.03125 272.898438 206.425781 289.898438 198.203125 C 290.570312 197.878906 291.234375 197.558594 291.910156 197.242188 C 292.582031 196.925781 293.257812 196.617188 293.9375 196.320312 C 296.417969 195.207031 298.9375 194.171875 301.472656 193.21875 C 302.019531 193.007812 302.550781 192.8125 303.097656 192.613281 C 303.644531 192.414062 304.1875 192.214844 304.730469 192.027344 C 305.289062 191.828125 305.84375 191.640625 306.398438 191.453125 C 309.558594 190.402344 312.761719 189.449219 316.019531 188.617188 C 315.128906 182.101562 314.40625 175.074219 314.710938 168.570312 "/>
<path style=" stroke:none;fill-rule:nonzero;fill:rgb(81.568909%,44.309998%,43.919373%);fill-opacity:1;" d="M 153.859375 382.515625 C 153.0625 375.152344 146.886719 370.925781 139.835938 372.710938 C 137.660156 372.257812 135.210938 372.140625 132.367188 372.410156 C 125.359375 372.75 115.640625 374.148438 110.304688 379.160156 C 110.304688 379.160156 95.488281 425.382812 110.1875 434.382812 C 124.882812 443.386719 161.574219 429.234375 161.574219 429.234375 C 164.1875 425.515625 164.238281 420.210938 164.476562 415.882812 C 165.382812 403.632812 163.730469 394.136719 155.574219 384.527344 C 154.992188 383.828125 154.421875 383.167969 153.859375 382.515625 "/>
<path style=" stroke:none;fill-rule:nonzero;fill:rgb(81.568909%,44.309998%,43.919373%);fill-opacity:1;" d="M 384.4375 190.753906 C 379.976562 189.894531 375.125 192.023438 371.082031 193.585938 C 359.542969 197.78125 351.5625 203.183594 346.148438 214.566406 C 345.753906 215.390625 345.375 216.1875 345.011719 216.976562 C 338.789062 220.707031 337.449219 228.179688 341.835938 233.773438 C 342.3125 235.945312 343.207031 238.226562 344.621094 240.710938 C 347.808594 246.972656 353.070312 255.261719 359.828125 258.074219 C 359.828125 258.074219 408.039062 252.628906 410.21875 235.527344 C 412.394531 218.421875 384.4375 190.753906 384.4375 190.753906 "/>
<path style=" stroke:none;fill-rule:nonzero;fill:rgb(80.778503%,56.079102%,49.01886%);fill-opacity:1;" d="M 167.535156 71.140625 C 155.183594 61.449219 138.089844 48.363281 121.222656 50.320312 C 102.660156 52.65625 127.734375 73.738281 109.5 71.5625 C 95.785156 69.71875 83.996094 62.558594 69.984375 67.4375 C 58.863281 71.621094 55.160156 86.6875 65.527344 93.351562 C 59.164062 92.515625 52.71875 92.488281 45.65625 95.511719 C 36.589844 99.167969 35.1875 107.710938 44.421875 112.253906 C 53.273438 116.554688 64.460938 118.023438 73.671875 115 C 81.375 112.636719 87.136719 107.410156 95.675781 108.8125 C 103.203125 110.109375 108.183594 116.25 115.296875 118.628906 C 126.027344 122.507812 130.988281 112.1875 140.648438 109.722656 C 142.019531 109.367188 143.617188 109.195312 145.355469 109.183594 C 148.042969 111.097656 150.765625 112.960938 153.632812 114.613281 C 159.78125 118.074219 166.792969 120.5625 173.261719 120.8125 L 173.789062 121.152344 C 173.714844 121.042969 173.632812 120.933594 173.554688 120.824219 C 182.441406 121.078125 190.257812 117.046875 193.296875 105.386719 L 191.84375 100.824219 C 192.09375 87.898438 176.597656 78.011719 167.535156 71.140625 "/>
<path style=" stroke:none;fill-rule:nonzero;fill:rgb(80.778503%,56.079102%,49.01886%);fill-opacity:1;" d="M 111.359375 375.867188 C 111.390625 376.171875 111.410156 376.484375 111.433594 376.789062 C 111.519531 376.925781 111.609375 377.058594 111.695312 377.207031 L 111.359375 375.867188 "/>
<path style=" stroke:none;fill-rule:nonzero;fill:rgb(80.778503%,56.079102%,49.01886%);fill-opacity:1;" d="M 425.101562 261.902344 C 422.925781 257.675781 420.589844 248.363281 416.480469 243.753906 C 424.308594 227.875 422.570312 208.996094 410.304688 197.003906 C 411.984375 188.875 419.550781 179.101562 421.054688 172.554688 C 426.855469 150.167969 414.117188 141.214844 396.222656 142.457031 C 413.46875 155.933594 406.277344 165.886719 404.695312 177.488281 C 404.558594 180.832031 403.25 186.398438 402.933594 191.511719 C 393.335938 186.71875 374.164062 184.832031 368.234375 195.007812 L 368.679688 193.664062 C 360.183594 203.054688 370.464844 209.761719 374.933594 217.8125 C 381.191406 227.644531 379.40625 235.695312 372.25 244.191406 C 370.910156 245.980469 360.632812 254.921875 360.632812 256.707031 C 360.632812 261.179688 371.359375 262.519531 374.488281 262.96875 C 385.613281 264.164062 402.742188 260.046875 411.429688 251.265625 C 412.722656 258.929688 411.660156 268.753906 413.3125 274.28125 C 419.324219 296.613281 434.824219 298.097656 449.773438 288.167969 C 428.117188 284.980469 429.457031 272.773438 425.101562 261.902344 "/>
<g clip-path="url(#clip1)" clip-rule="nonzero">
<path style=" stroke:none;fill-rule:nonzero;fill:rgb(80.778503%,56.079102%,49.01886%);fill-opacity:1;" d="M 164.933594 407.75 C 164.296875 407.75 159.863281 415.671875 158.914062 416.941406 C 158.59375 417.324219 158.265625 417.683594 157.9375 418.046875 C 153.976562 412.839844 142.058594 413.691406 131.863281 415.742188 L 131.875 415.738281 C 128.1875 407.355469 111.023438 405.375 111.359375 395.988281 C 111.679688 389.589844 111.988281 383.1875 111.433594 376.789062 C 107.335938 370.371094 99.59375 374.984375 97.953125 380.894531 C 96.277344 387.269531 95.605469 399.003906 85.546875 397.664062 C 82.195312 397.328125 79.847656 392.632812 76.496094 394.308594 C 72.476562 395.988281 74.488281 402.019531 75.496094 405.042969 C 76.761719 411.695312 85.414062 426.171875 89.84375 430.929688 C 99.667969 441.390625 112.660156 448.953125 126.28125 447.683594 C 133.6875 446.988281 144.648438 444.597656 151.992188 439.53125 C 154.132812 438.691406 156.082031 437.710938 157.613281 436.5625 C 158.984375 435.644531 161.1875 432.648438 162.929688 429.269531 L 162.933594 429.269531 C 163.195312 428.90625 163.578125 428.089844 164.011719 426.984375 C 164.488281 425.878906 164.878906 424.769531 165.15625 423.71875 C 167.136719 417.429688 168.917969 408.191406 164.933594 407.75 "/>
</g>
<path style=" stroke:none;fill-rule:nonzero;fill:rgb(18.03894%,12.548828%,14.509583%);fill-opacity:1;" d="M 266.203125 79.503906 C 271.019531 73.960938 280.890625 72.515625 283.78125 81.1875 C 279.929688 84.078125 278.964844 94.195312 280.648438 97.804688 C 282.816406 103.101562 287.632812 106.714844 292.203125 109.605469 C 296.296875 112.015625 300.871094 114.664062 303.277344 118.757812 C 304.964844 122.128906 304.71875 126.945312 309.296875 127.910156 L 311.21875 126.703125 C 313.386719 128.148438 317.964844 124.292969 320.851562 124.054688 C 324.460938 123.816406 324.460938 125.984375 326.628906 127.910156 C 329.035156 129.832031 331.683594 130.078125 335.050781 129.59375 C 348.292969 127.425781 338.902344 105.75 338.664062 97.324219 C 338.421875 92.746094 339.144531 88.410156 340.828125 84.078125 C 342.03125 80.464844 344.917969 77.816406 346.367188 74.203125 C 349.496094 66.738281 344.199219 57.101562 338.902344 51.804688 C 333.367188 46.746094 323.257812 50.84375 319.164062 45.0625 C 314.351562 38.078125 317.238281 29.652344 309.296875 24.59375 C 300.867188 19.296875 292.445312 17.367188 284.019531 23.148438 C 277.519531 27.960938 272.703125 38.078125 264.042969 38.320312 C 255.375 38.558594 251.28125 31.097656 243.335938 30.132812 C 235.632812 29.40625 223.910156 27.566406 224.5625 36.394531 C 225.210938 45.21875 239.726562 42.53125 243.15625 48.855469 C 246.585938 55.179688 247.910156 63.246094 249.113281 71.792969 C 249.835938 76.128906 252 79.984375 255.851562 82.394531 C 260.667969 85.042969 262.835938 83.355469 266.203125 79.503906 "/>
<path style=" stroke:none;fill-rule:nonzero;fill:rgb(18.03894%,12.548828%,14.509583%);fill-opacity:1;" d="M 350.351562 370.625 C 343.894531 353.828125 326.136719 351.894531 309.996094 350.925781 C 313.503906 354.898438 320.589844 360.09375 322.089844 367.871094 C 324.738281 381.570312 300.316406 380.132812 306.441406 394.847656 L 306.121094 394.523438 C 289.332031 399.367188 273.191406 390.003906 261.890625 377.410156 C 261.570312 398.078125 267.058594 421.652344 287.71875 430.695312 C 306.765625 438.773438 329.039062 432.957031 343.246094 418.421875 C 354.222656 407.121094 356.160156 385.160156 350.351562 370.625 "/>
<path style=" stroke:none;fill-rule:nonzero;fill:rgb(18.03894%,12.548828%,14.509583%);fill-opacity:1;" d="M 82.289062 190.082031 C 79.65625 188.699219 76.609375 188.175781 73.695312 188.808594 C 72.15625 189.144531 70.914062 189.71875 69.679688 190.691406 C 68.835938 191.359375 68.386719 191.785156 67.894531 190.660156 C 67.355469 189.4375 67.296875 188.082031 66.65625 186.855469 C 65.367188 184.382812 63.503906 182.167969 60.957031 180.933594 C 59.363281 180.160156 57.363281 179.738281 55.730469 180.671875 C 54.230469 181.539062 53.324219 183.019531 52.726562 184.605469 C 52.199219 186.011719 52.050781 186.664062 50.578125 185.664062 C 49.125 184.675781 47.851562 183.726562 46.113281 183.277344 C 42.6875 182.390625 39.191406 183.0625 36.363281 185.210938 C 34.785156 186.414062 33.523438 187.894531 32.59375 189.535156 C 29.421875 190.296875 26.457031 191.875 24.457031 193.992188 C 21.597656 196.589844 19.78125 200.222656 20.042969 204.121094 C 20.042969 206.714844 22.640625 210.613281 22.117188 212.691406 C 21.339844 215.546875 15.886719 218.402344 14.332031 221.777344 C 12.777344 225.15625 12.515625 229.304688 12.777344 232.941406 C 13.292969 241.769531 19.003906 244.367188 26.789062 244.628906 C 25.753906 247.742188 24.714844 250.082031 27.308594 252.675781 C 29.21875 254.777344 32.671875 255.753906 35.808594 256.328125 C 35.8125 256.390625 35.8125 256.457031 35.820312 256.519531 C 36.042969 258.882812 37.589844 261.132812 39.382812 262.613281 C 40.113281 263.21875 40.9375 263.734375 41.890625 263.882812 C 42.617188 264.003906 43.414062 263.988281 44.128906 263.824219 C 44.886719 263.652344 45.351562 263.160156 46.023438 262.808594 C 46.144531 262.746094 46.277344 262.691406 46.40625 262.640625 C 47.542969 263.222656 48.703125 263.640625 49.824219 263.851562 C 53.527344 264.53125 54.875 263.851562 57.234375 261.496094 C 57.574219 261.15625 57.234375 258.800781 57.910156 258.125 C 58.246094 257.113281 60.941406 256.441406 61.953125 255.425781 C 64.757812 252.289062 65.214844 248.585938 64.164062 245.183594 C 65.628906 244.4375 66.753906 243.257812 67.085938 241.300781 C 67.582031 238.375 65.546875 234.90625 62.8125 233.703125 C 65.652344 234.957031 70.042969 234.089844 72.273438 232.066406 C 74.140625 230.378906 76.289062 227.371094 75.167969 224.75 C 74.566406 223.339844 72.832031 221.617188 71.46875 220.9375 C 72.285156 221.34375 74.570312 219.1875 75.03125 218.660156 C 75.992188 217.550781 76.621094 216.246094 76.992188 214.832031 C 77.40625 213.265625 77.394531 211.859375 77.378906 210.257812 C 77.355469 207.414062 80.070312 205.539062 81.734375 203.570312 C 82.746094 202.378906 83.691406 201.09375 84.554688 199.789062 C 85.117188 198.933594 87.007812 196.480469 86.78125 195.40625 C 86.75 195.246094 86.710938 195.085938 86.65625 194.921875 C 85.980469 192.773438 84.25 191.113281 82.289062 190.082031 "/>
</g>
</svg>
